<?xml version="1.0" encoding="UTF-8"?>
<svg id="_レイヤー_1" data-name="レイヤー_1" xmlns="http://www.w3.org/2000/svg" version="1.1" viewBox="0 0 500 500">
  <!-- Generator: Adobe Illustrator 29.4.0, SVG Export Plug-In . SVG Version: 2.1.0 Build 152)  -->
  <defs>
    <style>
      .st0 {
        fill: #0f264c;
      }

      .st1 {
        fill: #d4e8ff;
      }

      .st1, .st2 {
        opacity: .4;
      }

      .st1, .st2, .st3 {
        isolation: isolate;
      }

      .st4 {
        fill: #f0f6ff;
      }

      .st5 {
        fill: #45a2ff;
      }

      .st6 {
        fill: #b3cdff;
      }

      .st2, .st7, .st3 {
        fill: #0053cc;
      }

      .st8 {
        fill: #fff;
      }

      .st9 {
        fill: #92b8f4;
      }

      .st10 {
        fill: #d2e4ff;
      }

      .st11 {
        fill: #6ea5f4;
      }

      .st12 {
        fill: #d1e3ff;
      }

      .st13 {
        fill: #e3eeff;
      }

      .st14 {
        fill: #407bff;
      }

      .st15 {
        fill: #ff8b7b;
      }

      .st16 {
        fill: #ea7063;
      }

      .st17 {
        fill: #2b6ad8;
      }

      .st18 {
        fill: #14365b;
      }

      .st19 {
        fill: #f5fcff;
      }

      .st3 {
        opacity: .2;
      }

      .st20 {
        display: none;
      }

      .st21 {
        fill: #f3f8ff;
      }

      .st22 {
        fill: #ff5652;
      }
    </style>
  </defs>
  <g id="Background_2">
    <g>
      <g>
        <rect class="st12" y="382.4" width="500" height=".2"/>
        <rect class="st12" x="385" y="393.3" width="20.5" height=".2"/>
        <rect class="st12" x="412.8" y="393.2" width="12.7" height=".2"/>
        <rect class="st12" x="276.9" y="393.2" width="38.8" height=".2"/>
        <rect class="st12" x="154.2" y="397.5" width="47.5" height=".2"/>
        <rect class="st12" x="95.4" y="389.6" width="7.1" height=".2"/>
        <rect class="st12" x="108.1" y="389.6" width="54.5" height=".2"/>
        <rect class="st12" x="70.3" y="395.7" width="28.6" height=".2"/>
        <path class="st12" d="M237,337.8H43.9c-3.1,0-5.7-2.6-5.7-5.7V60.7c0-3.1,2.6-5.7,5.7-5.7h193.1c3.1,0,5.7,2.6,5.7,5.7v271.4c0,3.1-2.6,5.7-5.7,5.7ZM43.9,55.2c-3,0-5.5,2.4-5.5,5.5v271.4c0,3,2.4,5.5,5.5,5.5h193.1c3,0,5.5-2.4,5.5-5.5V60.7c0-3-2.4-5.5-5.5-5.5H43.9Z"/>
        <path class="st12" d="M453.3,337.8h-193.1c-3.1,0-5.7-2.6-5.7-5.7V60.7c0-3.1,2.6-5.7,5.7-5.7h193.1c3.1,0,5.7,2.6,5.7,5.7v271.4c0,3.1-2.6,5.7-5.7,5.7ZM260.2,55.2c-3,0-5.5,2.4-5.5,5.5v271.4c0,3,2.4,5.5,5.5,5.5h193.1c3,0,5.5-2.4,5.5-5.5V60.7c0-3-2.4-5.5-5.5-5.5h-193.1Z"/>
      </g>
      <g>
        <g>
          <path class="st13" d="M77.2,382.4h-20.5s-12.7-11.2-16.8-26.3c-1.9-6.9,7.4-11.7,13.1-6.8,13.2,11.6,24.2,33.1,24.2,33.1Z"/>
          <path class="st13" d="M85.9,382.4h-20.5s-11.8-24.1-7.2-41.7c1.6-6.1,9.2-8,13.4-3.3,15.5,17.1,14.3,45,14.3,45Z"/>
          <path class="st13" d="M85.9,382.4h13.3s8.3-14.7,16.1-32.7c7.3-16.8-5.1-23.8-12.9-7.3-9.9,21-16.5,40-16.5,40Z"/>
          <path class="st13" d="M89.5,382.4h20.5s20.7-9.8,19.5-28.3c-.3-4.8-5.8-8-10.8-6.1-22.1,8.5-29.3,34.4-29.3,34.4Z"/>
          <path class="st13" d="M78,382.4h20.5s6.2-34.3-1.2-55.9c-2.2-6.5-10-7.6-13.6-2-13.4,20.8-5.8,57.8-5.8,57.8Z"/>
        </g>
        <g>
          <polygon class="st12" points="214.1 200 272 154 440.8 208.3 214.1 208.3 214.1 200"/>
          <rect class="st13" x="337.2" y="216.7" width="96.4" height="165.7"/>
          <g>
            <path class="st19" d="M408.8,382.4h-18.6s-11.4-9-15.1-21.2c-1.7-5.6,6.7-9.4,11.8-5.5,11.9,9.3,21.9,26.6,21.9,26.6Z"/>
            <path class="st19" d="M416.6,382.4h-18.6s-10.6-19.4-6.5-33.5c1.4-4.9,8.3-6.4,12.1-2.7,14,13.7,12.9,36.2,12.9,36.2Z"/>
            <path class="st19" d="M416.7,382.4h12s7.5-11.8,14.6-26.3c6.6-13.5-4.6-19.2-11.7-5.9-9,16.9-14.9,32.2-14.9,32.2Z"/>
            <path class="st19" d="M419.9,382.4h18.6s18.7-7.9,17.6-22.8c-.3-3.9-5.3-6.4-9.7-4.9-19.9,6.8-26.5,27.7-26.5,27.7Z"/>
            <path class="st19" d="M409.5,382.4h18.6s5.6-27.6-1-44.9c-2-5.2-9-6.1-12.3-1.6-12.1,16.8-5.2,46.5-5.2,46.5Z"/>
          </g>
          <polygon class="st12" points="337.2 216.7 433.7 216.7 440.8 208.3 337.2 208.3 337.2 216.7"/>
          <g>
            <rect class="st12" x="294.8" y="230.5" width="96.3" height="80.6"/>
            <rect class="st19" x="299.3" y="235.5" width="87.2" height="70.4"/>
            <rect class="st12" x="296.7" y="267.3" width="92.5" height="6.8"/>
          </g>
          <rect class="st21" x="91" y="187.9" width="246.2" height="194.5"/>
          <g>
            <rect class="st13" x="110.1" y="222.5" width="115.2" height="96.4"/>
            <rect class="st8" x="115.5" y="228.6" width="104.4" height="84.2"/>
            <rect class="st19" x="115.5" y="228.6" width="104.3" height="66.8"/>
            <rect class="st13" x="112.3" y="291.4" width="110.7" height="8.2"/>
          </g>
          <rect class="st12" x="251.6" y="218.6" width="65.8" height="139.9"/>
          <rect class="st13" x="255.1" y="221.8" width="58.9" height="136.8"/>
          <rect class="st10" x="260.3" y="227.3" width="48.5" height="53.7"/>
          <rect class="st10" x="260.3" y="289.2" width="48.5" height="53.7"/>
          <polygon class="st13" points="341.2 201.4 87 201.4 87 183.9 214.1 117.6 341.2 183.9 341.2 201.4"/>
          <polygon class="st12" points="352.5 193.1 214.1 121 75.8 193.1 73 187.8 214.1 114.2 355.2 187.8 352.5 193.1"/>
          <path class="st12" d="M214.1,189.7c-15.1,0-27.4-12.3-27.4-27.4s12.3-27.4,27.4-27.4,27.4,12.3,27.4,27.4-12.3,27.4-27.4,27.4ZM214.1,141c-11.8,0-21.4,9.6-21.4,21.4s9.6,21.4,21.4,21.4,21.4-9.6,21.4-21.4-9.6-21.4-21.4-21.4Z"/>
          <circle class="st19" cx="214.1" cy="162.4" r="19.9"/>
          <rect class="st13" x="243.2" y="356.2" width="82.7" height="4.3"/>
          <rect class="st12" x="245.1" y="360.5" width="78.9" height="8.8"/>
          <rect class="st13" x="236.9" y="369.3" width="95.3" height="4.3"/>
          <rect class="st12" x="239.1" y="373.6" width="90.9" height="8.8"/>
          <path class="st8" d="M310.8,281.8c0,2-1.6,3.6-3.6,3.6s-3.6-1.6-3.6-3.6,1.6-3.6,3.6-3.6,3.6,1.6,3.6,3.6Z"/>
        </g>
        <path class="st21" d="M73.6,90.4c-5.8-12.5-1.2-21.5,13-21.5s19.9,3.5,30.7,9.2c1.2-3.3,4.6-5.2,10.1-5.2,9.7,0,23,6,33.5,14.6,2.5-1.9,6.2-3.1,10.9-3.2,9.3-.4,20.5,3.1,30.2,8.7.8-.9,2.3-1.5,4.3-1.6,5.3-.2,12.6,3.3,16.1,7.8.2.3.4.6.6.8H66.4c-4.9-4.4.5-9.4,7.2-9.6Z"/>
        <path class="st21" d="M278.4,111.6c.4,0,.9,0,1.3,0-.4-4.6,2-7.6,7.1-7.6s8.3,1.6,12.9,4.2c-1.3-9,2.9-14.9,12.6-14.9s17.6,3.8,27.3,10c.9-3.5,3.7-5.7,8.5-5.7,8.5,0,20.5,6.6,30.1,15.8,0,0,0,0,0,0,2.1-2.1,5.2-3.3,9.3-3.5,8-.4,18,3.3,26.9,9.5.7-1,1.9-1.7,3.7-1.8,4.4-.2,10.5,3.2,14,7.7h-160.8c-3.8-6.9-.8-12.9,7.1-13.7Z"/>
      </g>
    </g>
  </g>
  <g id="Background_1" class="st20">
    <path class="st1" d="M223.8,156c-39.8,36.9-179.9-2-152.2,90.2,24.3,81.1,169.7,103.3,234.8,75.7,75.3-31.9,113.7-132.3,71.2-206.1-15.9-27.5-44.3-48.4-77.6-43.1-51,8.1-45.4,54.7-76.2,83.3Z"/>
  </g>
  <g id="Objects">
    <g>
      <ellipse class="st4" cx="250" cy="416.2" rx="193.9" ry="11.3"/>
      <g>
        <g>
          <path class="st6" d="M245.9,143.1l-1.2-3c-.2-.5,0-1.1.5-1.3l57.9-23.8c.5-.2,1,0,1.3.5l1.2,3c.2.5,0,1.1-.5,1.3l-57.9,23.8c-.5.2-1.1,0-1.3-.5Z"/>
          <rect class="st11" x="286.9" y="121" width="4.8" height="5.1" transform="translate(-25.2 119.3) rotate(-22.4)"/>
          <path class="st7" d="M293.1,129.3l-5.2-12.6c-1.2-2.8.2-6.1,3-7.3l.6-.2c2.8-1.2,6.1.2,7.3,3l5.2,12.6c1.2,2.8-.2,6.1-3,7.3l-.6.2c-2.8,1.2-6.1-.2-7.3-3Z"/>
        </g>
        <g>
          <polygon class="st15" points="275.6 407.2 268.4 407.2 266.4 390.3 273.7 390.3 275.6 407.2"/>
          <polygon class="st15" points="326.9 407.2 319.6 407.2 314 390.3 321.2 390.3 326.9 407.2"/>
          <path class="st18" d="M318.7,406.4h8.9c.3,0,.6.2.6.5l1.4,6.5c.1.7-.4,1.3-1.1,1.3-2.9,0-4.9-.2-8.5-.2s-6.8.2-9.8.2-3.5-3-2.2-3.3c5.6-1.2,7.7-2.9,9.5-4.5.3-.3.7-.4,1.2-.4Z"/>
          <path class="st18" d="M268.4,406.4h8c.3,0,.6.2.6.5l1.4,6.5c.1.7-.4,1.3-1,1.3-2.9,0-7-.2-10.6-.2s-7.9.2-12.8.2-3.8-3-2.6-3.3c5.7-1.2,10.4-1.4,15.3-4.4.5-.3,1.1-.6,1.8-.6Z"/>
          <path class="st15" d="M270.4,197.9c-1.2-1-2.3-1.9-3.4-3-1.1-1-2.1-2-3.2-3-2.1-2.1-4.1-4.2-6-6.4-1.9-2.2-3.8-4.6-5.5-7.1l-1.3-1.9-1.2-2c-.4-.6-.8-1.4-1.1-2.1l-.6-1c-.2-.4-.4-.8-.6-1.3-1.5-3.4-1.8-7.2-1.5-10.6.4-3.4,1.4-6.5,2.6-9.4,1.3-2.9,2.9-5.5,4.6-7.9.9-1.2,1.8-2.4,2.8-3.5,1-1.2,1.9-2.2,3.1-3.3l4.1,3.6c-.7,1-1.4,2.2-2.1,3.4-.7,1.2-1.3,2.3-1.9,3.5-1.2,2.4-2.2,4.8-2.9,7.2-1.5,4.8-1.7,9.6.2,13,.1.2.2.4.4.6l.5.8c.3.5.6,1.1,1,1.6l1.1,1.6,1.2,1.5c1.6,2,3.4,4.1,5.2,6,1.8,2,3.7,3.9,5.7,5.8,1.9,1.9,4,3.8,5.9,5.5l-7.2,8.4Z"/>
          <path class="st18" d="M280.2,203.1c-6.8,1.5-24-13.7-24-13.7l10-13.2s10.1,8.3,18.7,11.1c8.8,2.9,2.8,14.2-4.7,15.8Z"/>
          <path class="st15" d="M256.5,140.8l.8-6.2h9.6s-2.3,9.3-7.6,8.7l-2.8-2.5Z"/>
          <polygon class="st15" points="259.5 130.3 266 128.8 266.9 134.7 257.3 134.7 259.5 130.3"/>
          <g>
            <polygon class="st16" points="266.4 390.3 267.4 399 274.7 399 273.7 390.3 266.4 390.3"/>
            <polygon class="st16" points="321.2 390.3 314 390.3 316.9 399 324.2 399 321.2 390.3"/>
          </g>
          <path class="st18" d="M270.5,190.3s-8.6,22-.4,63h39c.3-6-3.5-35.2,2.3-63.4,0,0-6.7-1.3-13-1.6-5-.2-12.2-.4-16.6,0-5.8.5-11.2,2-11.2,2Z"/>
          <path class="st5" d="M283.4,201.6c-3.2-.1-4.9-.1-5.6,0,0,0-.2,0-.3,0-1.5,7-2.9,18.7-1.6,35l10.5.2c0-9.5.5-21.6,2.4-34.8-1.6-.1-3.5-.3-5.5-.3Z"/>
          <path class="st15" d="M296.6,169.6c-1,5.3-2.1,15.1,1.6,18.7,0,0-5.8,5.6-14.3,6.1-4.3-1.6-3.5-4.2-3.1-5.1.3-.6,1-1,1.6-1.2,5.1-1.6,5-5.8,4-9.8l10.2-8.7Z"/>
          <path class="st16" d="M292.5,173.1l-6,5.1c.2,1,.4,2,.5,2.9,2.3.3,5.5-2,5.5-4.6,0-1.2.2-2.9,0-3.5Z"/>
          <path class="st0" d="M277,154.1c-3.3,2-4.3,13.2.5,14.9,4.9,1.7,5.8-18.7-.5-14.9Z"/>
          <path class="st0" d="M283.4,160c-3.5-.4-14.4.4-11.8-6.5,2.6-6.9,14.1-2.6,15,.6.9,3.3,2.9,6.7-3.2,5.9Z"/>
          <path class="st15" d="M295.2,161c.5,7.2,1.2,11.4-1.9,15.6-4.7,6.3-14,4.2-16.6-2.7-2.4-6.2-2.9-17,3.7-20.8,6.5-3.7,14.3.7,14.8,7.9Z"/>
          <path class="st0" d="M295.6,168.1c-3.6,2.1-13.2-12.2-1.9-15.4,11.3-3.2,7.6,12.1,1.9,15.4Z"/>
          <path class="st0" d="M290.4,158.6c-4.6-1.3-19.7-2.6-14.7-11.4,5-8.8,19.7-.6,20.2,4,.5,4.6,2.5,9.7-5.6,7.4Z"/>
          <path class="st0" d="M291.1,156c-1.9-3.5-10-13.2-1.8-15.4,8.2-2.2,11.9,11.3,9.5,14.4-2.4,3-4.3,7.2-7.7,1Z"/>
          <path class="st0" d="M298.5,153.6s1.3-3.9,1.2-8.5c1.1,1.6,2.1,6.9-1.2,8.5Z"/>
          <path class="st0" d="M304.1,153.3s-3.2-.7-6.6.2c1-1.3,4.6-3.1,6.6-.2Z"/>
          <path class="st0" d="M293.6,156.8c2.1,2,7.2,9.4,10.3,4.2,3.1-5.2-5.5-10.4-8.1-9.3-2.5,1.1-5.8,1.6-2.2,5.1Z"/>
          <path class="st15" d="M299.5,168.5c-.8,1.8-2.3,3-3.8,3.6-2.3.8-3.6-1.1-3.1-3.4.4-2,2.1-4.9,4.5-4.7,2.3.1,3.4,2.5,2.5,4.5Z"/>
          <path class="st14" d="M270,253.2s-20.6,52.1-19.8,74.3c.8,23.1,14.4,69.8,14.4,69.8h12.3s-5.1-45.4-4.5-68.1c.6-24.7,23.1-76,23.1-76h-25.6Z"/>
          <path class="st17" d="M286.4,270.4l1.2,2.7c-3.8,10-8.2,22.4-11.2,34-.3-13.1,2.4-27.6,10.1-36.7Z"/>
          <path class="st14" d="M283.9,253.2s-4.2,53.3.4,74.1c5,22.8,29.2,70,29.2,70h13.3s-17.9-45.3-20.7-67.9c-3.1-24.5,2.9-76.2,2.9-76.2h-25.1Z"/>
          <polygon class="st6" points="311.1 397.6 328.5 397.6 328.5 392.9 309 392.6 311.1 397.6"/>
          <polygon class="st6" points="261.9 397.6 279.4 397.6 279.4 392.9 259.9 392.6 261.9 397.6"/>
          <path class="st0" d="M284.6,164.5c0,.6-.2,1.1-.5,1.1-.4,0-.8-.4-.8-1s.2-1.1.5-1.1c.4,0,.8.4.8,1Z"/>
          <path class="st0" d="M278,165.4c0,.6-.2,1.1-.5,1.1-.4,0-.8-.4-.8-1s.2-1.1.5-1.1c.4,0,.8.4.8,1Z"/>
          <path class="st22" d="M280.1,165.4s-.9,3.5-2.1,5.4c1.2.8,2.9.1,2.9.1l-.8-5.5Z"/>
          <path class="st0" d="M282.8,172.3c0,0-.2,0-.2-.1,0,0,0-.2.1-.2,2.5-.3,3.5-2.3,3.5-2.3,0,0,.1-.1.2,0s.1.1,0,.2c0,0-1,2.1-3.8,2.5,0,0,0,0,0,0Z"/>
          <path class="st0" d="M286.2,162.1c0,0-.2,0-.2-.1-1.1-1.1-2.3-.9-2.3-.8-.2,0-.4,0-.4-.3s0-.4.3-.4c0,0,1.6-.3,3,1,.1.1.1.4,0,.5,0,0-.2.1-.2.1Z"/>
          <path class="st0" d="M274.8,163.5s0,0-.1,0c-.2,0-.3-.3-.2-.4.6-1.8,2.1-2.2,2.2-2.3.2,0,.4,0,.4.2,0,.2,0,.4-.2.4h0c0,0-1.2.4-1.7,1.8,0,.1-.2.2-.3.2Z"/>
          <path class="st15" d="M314.5,197.4c.3,3.3.5,6.5.6,9.8.1,3.2,0,6.5,0,9.8-.2,6.5-.6,13.1-2.3,20-.4,1.7-1,3.5-1.8,5.3-.2.4-.5,1-.7,1.4-.3.4-.5.9-.8,1.3-.5.8-1,1.5-1.6,2.2-2.1,2.7-4.3,5.2-6.5,7.5-4.5,4.7-9.2,9-14.1,13.1l-3.9-3.8c3.8-5,7.8-10,11.5-14.9,1.8-2.5,3.7-5,5.2-7.4.7-1.2,1.4-2.4,1.7-3.3.4-1.1.8-2.4,1-3.8.5-2.7.9-5.7,1.1-8.7.2-3,.3-6,.3-9.1,0-6.1-.2-12.4-.6-18.4l11-.9Z"/>
          <path class="st18" d="M317.9,194.6c5.7,9.1.9,24.1.9,24.1l-17.7-.5s1.1-9,1.6-18c.5-9.7,9.6-14.5,15.3-5.6Z"/>
          <path class="st14" d="M316.3,407.6c-.6,0-1.1,0-1.4-.4-.3-.2-.4-.5-.4-.9,0-.3.2-.4.3-.5.8-.4,3.2,1,3.4,1.2,0,0,0,.1,0,.2,0,0,0,.1-.1.1-.5.1-1.2.3-1.9.3ZM315.2,406.1c0,0-.2,0-.2,0,0,0-.1,0-.1.2,0,.3,0,.5.2.6.4.3,1.4.4,2.6.1-.8-.5-1.9-1-2.5-1Z"/>
          <path class="st14" d="M318.1,407.4s0,0,0,0c-.8-.4-2.2-2-2.1-2.8,0-.1.1-.4.5-.5.3,0,.5,0,.7.2.8.7,1,2.8,1,2.9,0,0,0,.1,0,.2,0,0,0,0,0,0ZM316.6,404.4s0,0,0,0c-.2,0-.2.1-.3.2,0,.5.8,1.7,1.6,2.3,0-.6-.3-1.8-.9-2.3-.1-.1-.3-.2-.4-.2Z"/>
          <path class="st14" d="M265.4,407.6c-.7,0-1.4-.1-1.8-.4-.2-.2-.4-.5-.3-.8,0-.2.1-.4.3-.5.9-.5,3.8,1,4.1,1.2,0,0,.1.1,0,.2,0,0,0,.1-.1.1-.6.1-1.5.3-2.3.3ZM264.1,406.1c-.1,0-.2,0-.3,0,0,0-.1,0-.1.2,0,.2,0,.4.2.6.5.4,1.7.5,3.3.2-1-.5-2.3-1-3-1Z"/>
          <path class="st14" d="M267.6,407.4s0,0,0,0c-.9-.4-2.6-2-2.5-2.8,0-.2.2-.4.6-.5.4,0,.7,0,1,.3.9.8,1.1,2.7,1.1,2.8,0,0,0,.1,0,.2,0,0,0,0-.1,0ZM265.9,404.4s0,0-.1,0c-.3,0-.3.2-.3.2,0,.5,1.1,1.7,2,2.3,0-.6-.4-1.7-1-2.2-.2-.2-.4-.2-.6-.2Z"/>
          <path class="st15" d="M286.7,263.2l-7-2.4,1,9.3s6.4.7,7.2-2.7l-1.1-4.2Z"/>
          <polygon class="st15" points="268.8 268.3 275.1 270.4 280.7 270.1 279.7 260.9 268.8 268.3"/>
        </g>
      </g>
      <g>
        <rect class="st6" x="210.1" y="257.7" width="13" height="158.6"/>
        <path class="st9" d="M223.1,257.7c0,.3-2.9.6-6.5.6s-6.5-.3-6.5-.6,2.9-.6,6.5-.6,6.5.3,6.5.6Z"/>
        <polygon class="st3" points="223.1 357.3 210.1 356.3 210.1 346.6 223.1 346.6 223.1 357.3"/>
        <g>
          <rect class="st7" x="172.4" y="236.2" width="88.4" height="142.7" transform="translate(-108.7 496.5) rotate(-85)"/>
          <rect class="st5" x="136" y="270" width="5.6" height="1" transform="translate(-142.8 385) rotate(-85)"/>
          <rect class="st5" x="130.6" y="285.7" width="13.6" height="1" transform="translate(-159.8 398) rotate(-85)"/>
          <rect class="st5" x="166" y="235.7" width="88.4" height="142.7" transform="translate(-113.9 489.7) rotate(-85)"/>
          <polygon class="st2" points="285.9 282.9 259.2 281.7 285.7 285 285.9 282.9"/>
          <polygon class="st2" points="284.7 285.9 268.3 286.1 284.4 289.1 284.7 285.9"/>
          <polygon class="st2" points="137.3 322.5 151.7 322.6 137.5 320.4 137.3 322.5"/>
          <polygon class="st2" points="138.7 305.9 151.1 305.3 139 302.7 138.7 305.9"/>
          <polygon class="st2" points="279.4 347.9 267.1 348.5 279.2 351.1 279.4 347.9"/>
          <g>
            <path class="st7" d="M174.9,274.5l19.6,1.7-.5,5.5-11.6-1-.4,4.5,9.9.9-.5,5.2-9.9-.9-.9,10.5-7.9-.7,2.2-25.6Z"/>
            <path class="st7" d="M196.6,289.3c.4-4.2,1.8-7.3,4.4-9.5s5.9-3,10-2.6c4.3.4,7.4,1.8,9.6,4.3,2.1,2.5,3,5.8,2.6,9.9-.3,3-1,5.4-2.2,7.2-1.2,1.8-2.8,3.2-4.8,4.1s-4.4,1.2-7.3,1c-2.9-.3-5.2-.9-7.1-2s-3.2-2.7-4.2-4.8c-1-2.1-1.4-4.6-1.1-7.6ZM204.5,290c-.2,2.6,0,4.5,1,5.7.9,1.2,2.1,1.9,3.8,2,1.7.1,3.1-.3,4.1-1.3s1.7-3,1.9-5.8c.2-2.4-.1-4.2-1-5.4-.9-1.2-2.1-1.9-3.8-2-1.6-.1-2.9.3-4,1.4-1.1,1-1.7,2.9-1.9,5.5Z"/>
            <path class="st7" d="M226.4,304.8l2.2-25.6,13.2,1.2c2.4.2,4.3.6,5.6,1.1s2.2,1.4,2.9,2.6c.7,1.2,1,2.6.8,4.3-.1,1.4-.5,2.6-1.2,3.6s-1.6,1.7-2.7,2.3c-.7.3-1.7.6-2.9.8.9.4,1.6.8,2,1.1.3.2.7.7,1.1,1.5.5.7.8,1.3,1,1.7l3.2,7.8-8.9-.8-3.5-8.2c-.4-1.1-.9-1.8-1.3-2.1-.5-.4-1.2-.7-1.9-.8h-.7c0,0-.9,10.3-.9,10.3l-8-.7ZM235.7,290.3l3.3.3c.4,0,1.1,0,2.1-.2.5,0,1-.3,1.4-.7s.6-.9.6-1.4c0-.8-.1-1.5-.6-2s-1.4-.8-2.9-.9l-3.5-.3-.5,5.2Z"/>
            <path class="st7" d="M158.2,323.3l7.6.2c0,1.2.3,2.2.8,2.9.7,1.1,1.8,1.7,3.4,1.9,1.1,0,2,0,2.7-.6s1-1.1,1.1-1.8c0-.7-.2-1.3-.7-1.9s-1.8-1.2-3.9-1.8c-3.4-1.1-5.8-2.3-7.2-3.8-1.4-1.4-2-3.1-1.8-5.1.1-1.3.6-2.5,1.5-3.6s2.1-1.9,3.7-2.5c1.6-.5,3.7-.7,6.4-.5,3.3.3,5.7,1.1,7.3,2.5s2.5,3.4,2.6,6.1l-7.5-.2c0-1.2-.4-2-1-2.6s-1.4-.9-2.6-1c-.9,0-1.6,0-2.1.4-.5.3-.8.8-.8,1.4,0,.4.1.8.5,1.2.3.4,1.2.8,2.6,1.2,3.4,1,5.8,2,7.2,2.9,1.4.9,2.4,1.9,3,3.1.6,1.2.8,2.5.7,3.9-.1,1.6-.7,3.1-1.8,4.4s-2.4,2.2-4.1,2.8-3.8.8-6.3.5c-4.4-.4-7.3-1.5-8.8-3.3-1.5-1.8-2.3-4-2.3-6.6Z"/>
            <path class="st7" d="M200.8,331.4l-9-.8-1.6,4.1-8.1-.7,11.9-24.8,8.6.8,7.4,26.5-8.3-.7-.9-4.3ZM199.6,325.7l-2-9.5-3.6,9,5.6.5Z"/>
            <path class="st7" d="M214.7,311l7.9.7-1.7,19.3,12.4,1.1-.6,6.3-20.3-1.8,2.2-25.6Z"/>
            <path class="st7" d="M238.6,313.1l21.2,1.9-.5,5.5-13.3-1.2-.4,4.1,12.3,1.1-.5,5.2-12.3-1.1-.4,5,13.7,1.2-.5,5.8-21.6-1.9,2.2-25.6Z"/>
          </g>
        </g>
      </g>
    </g>
  </g>
</svg>