<?xml version="1.0" encoding="UTF-8"?>
<svg id="_レイヤー_1" data-name="レイヤー_1" xmlns="http://www.w3.org/2000/svg" version="1.1" viewBox="0 0 500 500">
  <!-- Generator: Adobe Illustrator 29.4.0, SVG Export Plug-In . SVG Version: 2.1.0 Build 152)  -->
  <defs>
    <style>
      .st0 {
        fill: #fefdff;
      }

      .st1 {
        fill: #007ce6;
      }

      .st2, .st3 {
        fill: #0065d6;
      }

      .st4 {
        fill: #fdfcff;
      }

      .st5 {
        fill: #16162f;
      }

      .st6 {
        fill: #445279;
      }

      .st7, .st8, .st9, .st10 {
        fill: #fff;
      }

      .st8 {
        opacity: .3;
      }

      .st8, .st9, .st10, .st11, .st3 {
        isolation: isolate;
      }

      .st12 {
        fill: #61b3ff;
      }

      .st13 {
        fill: #fba691;
      }

      .st14 {
        fill: #90c3ef;
      }

      .st9 {
        opacity: .5;
      }

      .st15 {
        fill: #445379;
      }

      .st16 {
        fill: #fda893;
      }

      .st10, .st3 {
        font-family: ArialMT, Arial;
        font-size: 15.3px;
      }

      .st11 {
        opacity: .2;
      }

      .st17 {
        fill: #2a3554;
      }

      .st18 {
        fill: #004bca;
      }

      .st19 {
        fill: #abd3f2;
      }

      .st20 {
        fill: #d65c48;
      }

      .st21 {
        fill: #cae6fe;
      }

      .st22 {
        fill: #fd896b;
      }

      .st23 {
        fill: #2a365c;
      }

      .st24 {
        fill: #009ef3;
      }
    </style>
  </defs>
  <g id="BACKGROUND">
    <rect class="st4" width="500" height="500"/>
  </g>
  <g id="OBJECTS">
    <ellipse class="st21" cx="253.8" cy="438.4" rx="221.3" ry="14"/>
    <g>
      <path class="st21" d="M229,83.5c0,1.2-.5,2.3-1.3,3.1-.8.8-1.9,1.3-3.1,1.3h-93.2c-2.4,0-4.4-2-4.4-4.4s.5-2.3,1.3-3.1c.8-.8,1.9-1.3,3.1-1.3h4.4c1.7-4,5.8-6.9,10.4-6.9s6,1.3,8.1,3.3c2.7-4.7,7.8-7.8,13.6-7.8s3.1.2,4.6.7c3-5.7,9-9.6,15.9-9.6s15.3,5.6,17.4,13.2c1.5-.8,3.3-1.2,5.1-1.2,5.2,0,9.5,3.5,10.9,8.2h2.8c2.4,0,4.4,2,4.4,4.4Z"/>
      <path class="st21" d="M322.1,103c0,1-.4,2-1.1,2.7-.7.7-1.6,1.1-2.7,1.1h-81.4c-2.1,0-3.8-1.7-3.8-3.8s.4-2,1.1-2.7c.7-.7,1.6-1.1,2.7-1.1h3.9c1.5-3.5,5-6,9.1-6s5.2,1.1,7,2.9c2.4-4.1,6.8-6.8,11.9-6.8s2.7.2,4,.6c2.6-5,7.9-8.4,13.9-8.4s13.4,4.9,15.2,11.6c1.3-.7,2.8-1.1,4.4-1.1,4.5,0,8.3,3,9.5,7.2h2.5c2.1,0,3.8,1.7,3.8,3.8Z"/>
    </g>
    <g>
      <g>
        <path class="st19" d="M404.8,323.7l2.2.5,1.2.3,3.3.7s43.6-43.8,28.9-65.5c-4.5-6.7-15.9-5-19.7,19.4-3.6,22.6-15.9,44.7-15.9,44.7Z"/>
        <path class="st14" d="M407,324.2l1.2.3c8.5-11.1,14.6-23.9,18.4-32.9,4.5-10.8,6.6-18.9,6.6-19,0-.3,0-.6-.4-.7-.3,0-.6,0-.7.4,0,0-2.2,8.1-6.6,18.8-3.8,9.1-10,22-18.6,33.1Z"/>
      </g>
      <g>
        <path class="st19" d="M123.9,152.9h-2.6c0,0-1.4,0-1.4,0h-4c0,0-40.2-59.9-18.5-81.5,6.7-6.7,19.3-2.2,18.3,26.6-1,26.7,8.2,54.8,8.2,54.8Z"/>
        <path class="st14" d="M121.3,152.9h-1.4c-7.3-14.7-11.4-30.6-13.7-41.9-2.7-13.4-3.3-23.2-3.4-23.2,0-.3.2-.7.6-.7.3,0,.7.2.7.6,0,0,.7,9.8,3.3,23.1,2.3,11.3,6.5,27.4,13.9,42.1Z"/>
      </g>
      <g>
        <path class="st21" d="M146,161.8l-3.2,2.1-1.7,1.1-4.8,3.2S40.4,126.5,50,83.1c3-13.3,21.9-17.8,43.1,18.2,19.7,33.3,52.8,60.4,52.8,60.4Z"/>
        <path class="st19" d="M142.8,163.9l-1.7,1.1c-20.3-12.2-37.9-28.5-49.5-40.4-13.7-14.2-22.2-25.6-22.2-25.7-.3-.4-.2-1,.2-1.3.4-.3,1-.2,1.3.2,0,.1,8.5,11.4,22.1,25.6,11.6,12,29.3,28.4,49.8,40.5Z"/>
      </g>
      <g>
        <path class="st21" d="M388.2,333.9l2.6,2,1.4,1.1,3.9,3s84.3-30,78.6-67.6c-1.8-11.6-17.6-16.4-37.8,13-18.7,27.3-48.6,48.5-48.6,48.5Z"/>
        <path class="st19" d="M390.8,335.9l1.4,1.1c18.1-9.2,34-22.1,44.6-31.6,12.5-11.3,20.4-20.6,20.5-20.7.3-.3.2-.8,0-1.1-.3-.3-.8-.2-1.1,0,0,0-7.9,9.3-20.4,20.5-10.6,9.6-26.7,22.5-44.9,31.7Z"/>
      </g>
      <g>
        <path class="st19" d="M462.2,133.5c-3.8,10.7-14.6,9.8-14.8,18.7-.2,8.8-6.1,15.3-13.6,13.3-7.5-2-13-3.9-16.9,4.7-3.9,8.6-15.2,12.5-19.3,5.3-1-1.8-2.1-3.7-3.2-5.6-.3-.5-.6-1-.9-1.5,0-.1-.1-.2-.2-.4-4.3-7.6-2.3-17.3,4.9-22.4,2.9-2,6.3-3.1,10-1.8,11.6,4,8-8,15.2-12.7,8.4-5.4,15,1.5,20.8-3.1,8-6.5,21.8-5.2,18,5.5Z"/>
        <path class="st14" d="M447.9,137.5l-53.5,32.4c-.3-.5-.6-1-.9-1.5l53.4-32.4c.4-.3,1-.1,1.2.3.3.4.1,1-.3,1.2Z"/>
      </g>
      <g>
        <path class="st21" d="M455.3,77.9c1.6,14.5-11.5,19.4-6.8,29.7,4.6,10.3,1.4,21-8.4,22.8-9.8,1.9-17.1,2.7-16.9,14.8.2,12.1-10.7,22.8-19.3,16.7-2.1-1.5-4.5-3.1-6.7-4.7-.6-.4-1.2-.9-1.8-1.3-.1,0-.3-.2-.4-.3-9.1-6.4-12.2-18.7-6.7-28.5,2.2-4,5.5-7,10.5-7.6,15.6-1.7,4.8-13.6,10.6-23,6.7-10.8,18.1-6.5,22.2-15.1,5.7-11.9,22.3-18,23.9-3.6Z"/>
        <path class="st19" d="M441,90.4l-43.9,66.9c-.6-.4-1.2-.9-1.8-1.3l43.9-66.8c.3-.5,1-.7,1.6-.3.5.3.7,1,.3,1.6Z"/>
      </g>
      <g>
        <path class="st19" d="M326.2,149.2c7.1-19.6,14.3-35.8,21.5-48.4,9.4-16.5,18.9-26.6,28.1-30.3.6-.2,1.3,0,1.5.7s0,1.3-.7,1.5c-16.1,6.3-33.4,34.8-50.1,82.4l-.4-5.9Z"/>
        <path class="st21" d="M357.4,86.8s-9.1-4-1.4-19.7c0,0,12.2,10.1,1.4,19.7Z"/>
        <path class="st21" d="M353,94.7s3.5-9.3,19.6-2.5c0,0-9.4,12.7-19.6,2.5Z"/>
        <path class="st21" d="M369.9,75.3s.2-9.9,17.7-8.9c0,0-4.6,15.1-17.7,8.9Z"/>
        <path class="st21" d="M343.7,110.3s-9.9-.7-8-18.1c0,0,14.9,5.4,8,18.1Z"/>
        <path class="st21" d="M340.5,119s1.8-9.8,18.9-5.9c0,0-7.1,14.2-18.9,5.9Z"/>
        <path class="st21" d="M334.8,130.5s-9.9-.5-8.4-17.9c0,0,15,5.1,8.4,17.9Z"/>
      </g>
      <g>
        <path class="st19" d="M98.1,335.9c-18.4-9.7-33.5-19.1-45-28-15-11.6-23.8-22.4-26.1-32-.2-.6.2-1.3.9-1.4s1.3.2,1.4.9c4.1,16.9,29.9,37.9,74.6,61l-5.9-.4Z"/>
        <path class="st21" d="M40.6,296.4s-5.2,8.5-19.8-1.3c0,0,11.7-10.7,19.8,1.3Z"/>
        <path class="st21" d="M47.8,301.9s-8.7-4.8.2-19.8c0,0,11.3,11.1-.2,19.8Z"/>
        <path class="st21" d="M30.9,282.5s-9.8-1.6-6.4-18.7c0,0,14.4,6.7,6.4,18.7Z"/>
        <path class="st21" d="M62,313.3s-2.1,9.7-19,5.4c0,0,7.4-14,19-5.4Z"/>
        <path class="st21" d="M70.2,317.7s-9.4-3.2-3.2-19.5c0,0,13.1,9,3.2,19.5Z"/>
        <path class="st21" d="M80.8,324.8s-1.9,9.8-18.9,5.8c0,0,7.1-14.1,18.9-5.8Z"/>
      </g>
    </g>
    <g>
      <g>
        <path class="st17" d="M422.4,124.8v216.4c0,3.6-2.9,6.6-6.6,6.6H87.4c-3.6,0-6.6-2.9-6.6-6.6V124.8c0-3.6,2.9-6.6,6.6-6.6h328.4c3.6,0,6.6,2.9,6.6,6.6Z"/>
        <path class="st7" d="M413.3,134v197.8c0,3.7-3,6.7-6.7,6.7H96.5c-.8,0-1.6-.1-2.3-.4-2.5-.9-4.3-3.4-4.3-6.2v-197.8c0-3.7,3-6.7,6.6-6.7h310.1c.9,0,1.7.2,2.5.5,2.4,1,4.1,3.4,4.1,6.2Z"/>
        <g>
          <path class="st21" d="M413.3,134v9.8H89.9v-9.8c0-3.7,3-6.7,6.7-6.7h310.1c3.7,0,6.7,3,6.7,6.7Z"/>
          <g>
            <circle class="st12" cx="384.7" cy="135.6" r="3.2"/>
            <circle class="st1" cx="372.8" cy="135.6" r="3.2"/>
            <path class="st24" d="M399.9,135.6c0,1.8-1.4,3.2-3.2,3.2s-3.2-1.4-3.2-3.2,1.4-3.2,3.2-3.2c1.8,0,3.2,1.4,3.2,3.2Z"/>
          </g>
        </g>
        <g>
          <g>
            <g>
              <rect class="st24" x="150.4" y="166.8" width="18.1" height="20.4"/>
              <rect class="st1" x="150.4" y="166.8" width="18.1" height="5.2"/>
            </g>
            <g>
              <path class="st6" d="M172.2,159.9v2.4c0,.4,0,.7-.1,1-.5,2-2.2,3.4-4.4,3.4h-16.7c-2.1,0-3.9-1.5-4.4-3.4,0-.3-.1-.7-.1-1v-2.4h25.6Z"/>
              <path class="st17" d="M172.1,163.3c-.5,2-2.2,3.4-4.4,3.4h-16.7c-2.1,0-3.9-1.5-4.4-3.4h25.4Z"/>
            </g>
          </g>
          <polygon class="st17" points="316.8 217.7 112.3 217.7 112.4 217.6 117.1 211.1 141.1 178.1 288 178.1 312 211.1 316.7 217.6 316.8 217.7"/>
          <rect class="st24" x="112.3" y="217.7" width="204.4" height="82.6"/>
          <rect class="st7" x="112.3" y="217.7" width="204.4" height="5.2"/>
          <rect class="st11" x="112.3" y="220.3" width="204.4" height="2.6"/>
          <polygon class="st1" points="255 281.2 255 285.7 316.8 285.7 316.8 300.3 112.3 300.3 112.3 285.7 175.4 285.7 175.4 281.2 112.3 281.2 112.3 275.9 175.4 275.9 175.4 229.5 112.3 229.5 112.3 222.9 182.1 222.9 182.1 275.9 248.3 275.9 248.3 222.9 316.8 222.9 316.8 229.5 255 229.5 255 275.9 316.8 275.9 316.8 281.2 255 281.2"/>
          <rect class="st1" x="182.1" y="222.9" width="66.2" height="6.5"/>
          <g>
            <polygon class="st24" points="248.3 200.6 248.3 300.4 182.1 300.4 182.1 200.6 187.2 197.1 190.6 194.8 192.4 193.6 194.6 192.1 199.5 188.8 204.7 185.2 215.2 178.1 225.7 185.2 230.9 188.8 235.8 192.1 238 193.6 239.8 194.8 243.2 197.1 248.3 200.6"/>
            <g>
              <polygon class="st6" points="267.9 206.7 258.3 206.7 248.3 206.7 215.2 184.4 182.1 206.7 172.1 206.7 162.5 206.7 215.2 171.2 267.9 206.7"/>
              <polygon class="st17" points="258.3 206.7 248.3 206.7 215.2 184.4 182.1 206.7 172.1 206.7 215.2 177.7 258.3 206.7"/>
            </g>
          </g>
          <g>
            <g>
              <g>
                <path class="st6" d="M122.3,265.7v-20.1c0-4.6,3.8-8.4,8.4-8.4s8.4,3.8,8.4,8.4v20.1h-16.8Z"/>
                <path class="st17" d="M123.3,264.7v-19.2c0-4.1,3.3-7.4,7.4-7.4s7.4,3.3,7.4,7.4v19.2h-14.9Z"/>
                <path class="st21" d="M136.9,245.5v17.9h-12.4v-17.9c0-3.4,2.8-6.2,6.2-6.2s3,.6,4.1,1.6c0,0,.2.2.3.2.7.7,1.3,1.6,1.6,2.6.2.6.3,1.2.3,1.8Z"/>
                <path class="st7" d="M136.6,243.8l-12.1,12.1v-4.6l10.3-10.3c0,0,.2.2.3.2.7.7,1.3,1.6,1.6,2.6Z"/>
                <polygon class="st7" points="136.9 251.4 136.9 253.8 127.2 263.5 124.8 263.5 136.9 251.4"/>
                <rect class="st17" x="123.7" y="251.4" width="14.1" height="1.5"/>
              </g>
              <path class="st11" d="M136.9,245.5v1.5c0-.6,0-1.2-.3-1.8-.3-1-.8-1.9-1.6-2.6,0,0-.2-.2-.3-.2-1.1-1-2.5-1.6-4.1-1.6-3.4,0-6.2,2.8-6.2,6.2v-1.5c0-3.4,2.8-6.2,6.2-6.2s3,.6,4.1,1.6c0,0,.2.2.3.2.7.7,1.3,1.6,1.6,2.6.2.6.3,1.2.3,1.8Z"/>
            </g>
            <g>
              <g>
                <path class="st6" d="M148.8,265.7v-20.1c0-4.6,3.8-8.4,8.4-8.4s8.4,3.8,8.4,8.4v20.1h-16.8Z"/>
                <path class="st17" d="M149.8,264.7v-19.2c0-4.1,3.3-7.4,7.4-7.4s7.4,3.3,7.4,7.4v19.2h-14.9Z"/>
                <path class="st21" d="M163.4,245.5v17.9h-12.4v-17.9c0-3.4,2.8-6.2,6.2-6.2s3,.6,4.1,1.6c0,0,.2.2.3.2.7.7,1.3,1.6,1.6,2.6.2.6.3,1.2.3,1.8Z"/>
                <path class="st7" d="M163.2,243.8l-12.1,12.1v-4.6l10.3-10.3c0,0,.2.2.3.2.7.7,1.3,1.6,1.6,2.6Z"/>
                <polygon class="st7" points="163.4 251.4 163.4 253.8 153.8 263.5 151.3 263.5 163.4 251.4"/>
                <rect class="st17" x="150.2" y="251.4" width="14.1" height="1.5"/>
              </g>
              <path class="st11" d="M163.4,245.5v1.5c0-.6,0-1.2-.3-1.8-.3-1-.8-1.9-1.6-2.6,0,0-.2-.2-.3-.2-1.1-1-2.5-1.6-4.1-1.6-3.4,0-6.2,2.8-6.2,6.2v-1.5c0-3.4,2.8-6.2,6.2-6.2s3,.6,4.1,1.6c0,0,.2.2.3.2.7.7,1.3,1.6,1.6,2.6.2.6.3,1.2.3,1.8Z"/>
            </g>
          </g>
          <g>
            <g>
              <g>
                <path class="st6" d="M264.9,265.7v-20.1c0-4.6,3.8-8.4,8.4-8.4s8.4,3.8,8.4,8.4v20.1h-16.8Z"/>
                <path class="st17" d="M265.9,264.7v-19.2c0-4.1,3.3-7.4,7.4-7.4s7.4,3.3,7.4,7.4v19.2h-14.9Z"/>
                <path class="st21" d="M279.5,245.5v17.9h-12.4v-17.9c0-3.4,2.8-6.2,6.2-6.2s3,.6,4.1,1.6c0,0,.2.2.3.2.7.7,1.3,1.6,1.6,2.6.2.6.3,1.2.3,1.8Z"/>
                <path class="st7" d="M279.2,243.8l-12.1,12.1v-4.6l10.3-10.3c0,0,.2.2.3.2.7.7,1.3,1.6,1.6,2.6Z"/>
                <polygon class="st7" points="279.5 251.4 279.5 253.8 269.8 263.5 267.4 263.5 279.5 251.4"/>
                <rect class="st17" x="266.3" y="251.4" width="14.1" height="1.5"/>
              </g>
              <path class="st11" d="M279.5,245.5v1.5c0-.6,0-1.2-.3-1.8-.3-1-.8-1.9-1.6-2.6,0,0-.2-.2-.3-.2-1.1-1-2.5-1.6-4.1-1.6-3.4,0-6.2,2.8-6.2,6.2v-1.5c0-3.4,2.8-6.2,6.2-6.2s3,.6,4.1,1.6c0,0,.2.2.3.2.7.7,1.3,1.6,1.6,2.6.2.6.3,1.2.3,1.8Z"/>
            </g>
            <g>
              <g>
                <path class="st6" d="M291.4,265.7v-20.1c0-4.6,3.8-8.4,8.4-8.4s8.4,3.8,8.4,8.4v20.1h-16.8Z"/>
                <path class="st17" d="M292.4,264.7v-19.2c0-4.1,3.3-7.4,7.4-7.4s7.4,3.3,7.4,7.4v19.2h-14.9Z"/>
                <path class="st21" d="M306,245.5v17.9h-12.4v-17.9c0-3.4,2.8-6.2,6.2-6.2s3,.6,4.1,1.6c0,0,.2.2.3.2.7.7,1.3,1.6,1.6,2.6.2.6.3,1.2.3,1.8Z"/>
                <path class="st7" d="M305.8,243.8l-12.1,12.1v-4.6l10.3-10.3c0,0,.2.2.3.2.7.7,1.3,1.6,1.6,2.6Z"/>
                <polygon class="st7" points="306 251.4 306 253.8 296.3 263.5 293.9 263.5 306 251.4"/>
                <rect class="st17" x="292.8" y="251.4" width="14.1" height="1.5"/>
              </g>
              <path class="st11" d="M306,245.5v1.5c0-.6,0-1.2-.3-1.8-.3-1-.8-1.9-1.6-2.6,0,0-.2-.2-.3-.2-1.1-1-2.5-1.6-4.1-1.6-3.4,0-6.2,2.8-6.2,6.2v-1.5c0-3.4,2.8-6.2,6.2-6.2s3,.6,4.1,1.6c0,0,.2.2.3.2.7.7,1.3,1.6,1.6,2.6.2.6.3,1.2.3,1.8Z"/>
            </g>
          </g>
          <path class="st17" d="M326.6,303.8H103.1c-1,0-1.8-.8-1.8-1.8v-1c0-1,.8-1.8,1.8-1.8h223.4c1,0,1.8.8,1.8,1.8v1c0,1-.8,1.8-1.8,1.8Z"/>
          <g>
            <rect class="st17" x="204.2" y="257.6" width="22.1" height="38.1"/>
            <rect class="st6" x="206.1" y="259.4" width="18.4" height="34.4"/>
            <path class="st17" d="M223.2,277.3c0,.9-.7,1.6-1.6,1.6s-1.6-.7-1.6-1.6.7-1.6,1.6-1.6c.9,0,1.6.7,1.6,1.6Z"/>
            <rect class="st17" x="202" y="293.1" width="26.7" height="2.6"/>
            <path class="st17" d="M226.2,258.4h-21.9c-1.1,0-2-.9-2-2v-.5h25.8v.5c0,1.1-.9,2-2,2Z"/>
            <rect class="st17" x="199" y="295.7" width="32.6" height="3.5"/>
          </g>
          <polygon class="st1" points="182.1 206.7 182.1 215.2 215.2 192.2 248.3 215.2 248.3 206.7 215.2 184.4 182.1 206.7"/>
          <g>
            <g>
              <rect class="st6" x="199.3" y="218.4" width="32" height="22.3"/>
              <rect class="st17" x="200.3" y="219.5" width="29.8" height="20.2"/>
              <rect class="st21" x="201.5" y="220.7" width="27.4" height="17.8"/>
              <polygon class="st7" points="228.9 220.7 228.9 222.3 212.8 238.5 208.6 238.5 226.4 220.7 228.9 220.7"/>
              <polygon class="st7" points="215.3 220.7 201.5 234.5 201.5 230.3 211.1 220.7 215.3 220.7"/>
              <rect class="st6" x="201.5" y="228.6" width="27.4" height="1.7"/>
              <rect class="st17" x="201.5" y="229.5" width="27.4" height=".9"/>
            </g>
            <rect class="st11" x="199.3" y="218.4" width="32" height="4.7"/>
            <path class="st6" d="M231.3,218.4h-32c-.9,0-1.6-.7-1.6-1.6v-.4h35.1v.4c0,.9-.7,1.6-1.6,1.6Z"/>
          </g>
          <path class="st7" d="M172.6,299.1v-19.2h0v-2c0-1.5-1.3-2.8-2.8-2.8s-2.8,1.3-2.8,2.8v10.2h-4.4v-10.2c0-1.5-1.3-2.8-2.8-2.8s-2.8,1.3-2.8,2.8v10.2h-4.4v-10.2c0-1.5-1.3-2.8-2.8-2.8s-2.8,1.3-2.8,2.8v10.2h-4.4v-10.2c0-1.5-1.3-2.8-2.8-2.8h0c-1.5,0-2.8,1.3-2.8,2.8v10.2h-4.4v-10.2c0-1.5-1.3-2.8-2.8-2.8s-2.8,1.3-2.8,2.8v10.2h-4.4v-10.2c0-1.5-1.3-2.8-2.8-2.8s-2.8,1.3-2.8,2.8v21.2h5.6v-5.5h4.4v5.5h5.6v-5.5h4.4v5.5h5.6v-5.5h4.4v5.5h5.6v-5.5h4.4v5.5h5.6v-5.5h4.4v5.5h5.6Z"/>
          <path class="st7" d="M313.4,299.1v-19.2h0v-2c0-1.5-1.3-2.8-2.8-2.8s-2.8,1.3-2.8,2.8v10.2h-4.4v-10.2c0-1.5-1.3-2.8-2.8-2.8s-2.8,1.3-2.8,2.8v10.2h-4.4v-10.2c0-1.5-1.3-2.8-2.8-2.8s-2.8,1.3-2.8,2.8v10.2h-4.4v-10.2c0-1.5-1.3-2.8-2.8-2.8h0c-1.5,0-2.8,1.3-2.8,2.8v10.2h-4.4v-10.2c0-1.5-1.3-2.8-2.8-2.8s-2.8,1.3-2.8,2.8v10.2h-4.4v-10.2c0-1.5-1.3-2.8-2.8-2.8s-2.8,1.3-2.8,2.8v21.2h5.6v-5.5h4.4v5.5h5.6v-5.5h4.4v5.5h5.6v-5.5h4.4v5.5h5.6v-5.5h4.4v5.5h5.6v-5.5h4.4v5.5h5.6Z"/>
        </g>
        <g>
          <path class="st12" d="M306.4,164.6v23.4c0,1.5-1.2,2.7-2.7,2.7h-23.5c-1,0-1.9-.6-2.4-1.4,0,0,0-.2-.1-.3,0-.1,0-.3-.1-.4,0,0,0,0,0,0s0,0,0,0c0-.2,0-.3,0-.5v-23.4c0-1.4,1.1-2.5,2.4-2.7,0,0,.2,0,.3,0h23.5c.3,0,.5,0,.8.1h0c1.1.3,1.9,1.4,1.9,2.6Z"/>
          <path class="st7" d="M293.7,184.2v2.3s-3,0-3,0v-2.2c-2.1-.1-4.1-.7-5.4-1.5l1.6-3.6c1.4.8,3.2,1.4,4.9,1.4,1.4,0,1.9-.3,1.9-.8,0-1.9-8.1-.4-8.1-5.9,0-2.4,1.8-4.4,5.2-4.8v-2.3s3,0,3,0v2.3c1.5.2,3.1.6,4.2,1.3l-1.5,3.6c-1.4-.7-2.8-1.1-4.1-1.1-1.5,0-1.9.4-1.9.9,0,1.8,8.1.4,8.1,5.8,0,2.3-1.7,4.2-4.9,4.8Z"/>
        </g>
        <g>
          <path class="st1" d="M387.9,193.4h-49c-4.4,0-7.9-3.5-7.9-7.9v-4.2c0-4.4,3.5-7.9,7.9-7.9h49c4.4,0,7.9,3.5,7.9,7.9v4.2c0,4.4-3.5,7.9-7.9,7.9Z"/>
          <g>
            <text class="st3" transform="translate(341.4 189.9)"><tspan x="0" y="0">RENT</tspan></text>
            <text class="st10" transform="translate(341.4 188.8)"><tspan x="0" y="0">RENT</tspan></text>
          </g>
        </g>
        <g>
          <path class="st21" d="M393.1,214h-59.5c-1.4,0-2.6-1.2-2.6-2.6h0c0-1.4,1.2-2.6,2.6-2.6h59.5c1.4,0,2.6,1.2,2.6,2.6h0c0,1.4-1.2,2.6-2.6,2.6Z"/>
          <path class="st21" d="M393.1,226.9h-59.5c-1.4,0-2.6-1.2-2.6-2.6h0c0-1.4,1.2-2.6,2.6-2.6h59.5c1.4,0,2.6,1.2,2.6,2.6h0c0,1.4-1.2,2.6-2.6,2.6Z"/>
          <path class="st21" d="M393.1,239.8h-59.5c-1.4,0-2.6-1.2-2.6-2.6h0c0-1.4,1.2-2.6,2.6-2.6h59.5c1.4,0,2.6,1.2,2.6,2.6h0c0,1.4-1.2,2.6-2.6,2.6Z"/>
          <path class="st21" d="M393.1,252.7h-59.5c-1.4,0-2.6-1.2-2.6-2.6h0c0-1.4,1.2-2.6,2.6-2.6h59.5c1.4,0,2.6,1.2,2.6,2.6h0c0,1.4-1.2,2.6-2.6,2.6Z"/>
          <path class="st21" d="M393.1,265.6h-59.5c-1.4,0-2.6-1.2-2.6-2.6h0c0-1.4,1.2-2.6,2.6-2.6h59.5c1.4,0,2.6,1.2,2.6,2.6h0c0,1.4-1.2,2.6-2.6,2.6Z"/>
          <path class="st21" d="M393.1,278.5h-59.5c-1.4,0-2.6-1.2-2.6-2.6h0c0-1.4,1.2-2.6,2.6-2.6h59.5c1.4,0,2.6,1.2,2.6,2.6h0c0,1.4-1.2,2.6-2.6,2.6Z"/>
        </g>
      </g>
      <rect class="st5" x="228.3" y="347.7" width="50.9" height="72.5"/>
      <path class="st17" d="M309,433.3h-110.5v-3.3c0-6.8,5.5-12.3,12.3-12.3h86c6.8,0,12.3,5.5,12.3,12.3v3.3h0Z"/>
      <g>
        <path class="st5" d="M358.8,351.6h-14.2c-1.7,0-3.1-1.4-3.1-3.1v-.8h20.4v.8c0,1.7-1.4,3.1-3.1,3.1Z"/>
        <path class="st5" d="M390.1,351.6h-14.2c-1.7,0-3.1-1.4-3.1-3.1v-.8h20.4v.8c0,1.7-1.4,3.1-3.1,3.1Z"/>
        <path class="st5" d="M327.4,351.6h-14.2c-1.7,0-3.1-1.4-3.1-3.1v-.8h20.4v.8c0,1.7-1.4,3.1-3.1,3.1Z"/>
      </g>
      <path class="st8" d="M413.3,134v197.8c0,3.7-3,6.7-6.7,6.7H96.5c-.8,0-1.6-.1-2.3-.4L409.2,127.9c2.4,1,4.1,3.4,4.1,6.2Z"/>
    </g>
    <g>
      <g>
        <g>
          <path class="st16" d="M319.5,188.1c1.6-.5,8.5,3.1,8.8,3.2s1.6-.4,3-.6c1.4-.2,2.2.3,3.3,2.1,1.1,1.8,2.1,5,2.1,5,.7.3,1.4.5,2.2.8-1,2.1-2.1,4.2-3.2,6.2-1.2-.7-2.3-1.3-3.2-1.8-.7.3-1.3.4-2,.2-1.7-.4-3.1-.8-3.9-1.1-.5-.2-.8-.3-.8-.3,0,0,0,0,0,0-.2,0-.9.4-2.4,0-1.7-.5-2.9-1.7-2.9-2.5,0-.9,1-1.3,1-1.3,0,0-.7-.6-.7-1.5,0-.9,1.6-1.8,1.6-1.8,0,0-.7-.9,0-1.8.6-.9,2.7,0,2.9,0-.3-.2-7-4.3-5.5-4.7Z"/>
          <g>
            <path class="st22" d="M332.5,196.1c0,0,.1,0,.2,0,.2,0,.3-.3.2-.5l-.8-1.6c0,0-.1-.2-.2-.2s-.2,0-.3,0c0,0-1.7,1.1-3.3.7-.5-.1-.8-.3-.9-.6-.1-.3,0-.6,0-.6,0-.2,0-.4-.2-.5-.2,0-.4,0-.5.2,0,0-.3.6,0,1.2.2.5.7.8,1.4,1,1.4.4,2.9-.3,3.6-.6l.7,1.2c0,.1.2.2.3.2Z"/>
            <path class="st22" d="M325.8,201.9s0,0,0,0c0,0,.3.1.8.3.7-.8.7-1.7.8-2.5,0-.7,0-1.3.4-1.7.4-.4.5-.9.6-1.4,0-.4,0-.9-.2-1.2,0-.1,0-.3-.1-.4-.1-.3-.2-.4-.2-.5-.1-.2-.3-.2-.5-.1-.2.1-.2.3-.1.5,0,0,0,0,0,0,.1.2.4.8.4,1.4s0,.8-.4,1.1c-.5.6-.6,1.4-.6,2.1,0,.9,0,1.7-.8,2.3Z"/>
            <path class="st22" d="M331,199.1c.1,0,.3,0,.3-.2,0-.2,0-.4-.2-.5h0s-2.3-1.1-2.5-3.2c0-.2-.2-.4-.4-.3-.2,0-.4.2-.3.4.3,2.6,2.8,3.8,2.9,3.8,0,0,.1,0,.2,0Z"/>
          </g>
        </g>
        <path class="st12" d="M338.8,198.6c14.1,4.8,24.8,8,35.9,10.7,19.8,4.8,30.3,2,30.3,2l-7.4,13.6-1.3,2.4c-2.2.6-4.7.6-7.3.4-7.4-.7-15.1-3.8-15.1-3.8-20.3-7.9-33.5-14.3-39-18.1l4-7.2Z"/>
        <polygon class="st24" points="339.1 197.6 342.5 199.1 337.9 208.1 334.4 206.1 339.1 197.6"/>
        <path class="st24" d="M388.9,227.7c2.6.2,5.1.2,7.3-.4l1.3-2.4c-.3-1.2-1-2.2-2.4-2.8,0,0-1.7,3.5-6.3,5.6Z"/>
      </g>
      <g>
        <g>
          <path class="st16" d="M454.9,408l5.8,7.5s-1.1,3.3-5.4,5.9l-6.9-8.6,6.5-4.8Z"/>
          <g>
            <path class="st1" d="M456.3,419.1s-2.7-.6-3.6.3c-.9.9-3.3,13.2-5.4,15.8-2.2,2.7,0,4.1,1.4,4.7,1.3.5,20.6-17.9,20.6-17.9,0,0-4.8-6.3-7-7.5-2.3-1.2-3.4,3.3-5.8,4.6Z"/>
            <g>
              <path class="st7" d="M455.8,425.9c.1,0,.2-.1.3-.3,0-.2,0-.5-.3-.6,0,0-2.1-.7-3.6-.4-2.1.5-2.5,2.2-2.5,2.2,0,.2.1.5.4.6.3,0,.5,0,.6-.3,0,0,.3-1.2,1.8-1.6,1.3-.3,3,.3,3.1.3.1,0,.3,0,.4,0Z"/>
              <path class="st7" d="M456,424c.1,0,.2-.1.3-.3,0-.2,0-.5-.3-.6,0,0-2.1-.7-3.6-.4-2.1.5-2.5,2.2-2.5,2.2,0,.2.1.5.4.6.3,0,.5,0,.6-.3,0,0,.3-1.2,1.8-1.6,1.3-.3,3,.3,3.1.3.1,0,.3,0,.4,0Z"/>
              <path class="st7" d="M455,427.9c.1,0,.2-.1.3-.3,0-.2,0-.5-.3-.6,0,0-2.1-.7-3.6-.4-2.1.5-2.5,2.2-2.5,2.2,0,.2.1.5.4.6.3,0,.5,0,.6-.3,0,0,.3-1.2,1.8-1.6,1.3-.3,3,.3,3.1.3.1,0,.2,0,.4,0Z"/>
            </g>
          </g>
        </g>
        <path class="st5" d="M418.2,306.8l5.2,49.7s6.9,8.2,11.9,17.3c4.2,7.7,22.1,35,22.1,35l-8.6,7-44.6-50.1-9.9-59.4,23.9.5Z"/>
      </g>
      <g>
        <g>
          <path class="st16" d="M410.1,422.3l-.9,9.6s-3.1,1.9-8.1,1l.8-11.3,8.1.6Z"/>
          <g>
            <path class="st1" d="M402.9,431.6s-1.7-2.3-3.1-2.3c-1.4,0-12.1,8.4-15.7,9-3.6.6-3,3.3-2.3,4.7.6,1.4,28.8.6,28.8.6,0,0,1-9.1.2-11.7-.9-2.6-5,.3-7.8-.3Z"/>
            <g>
              <path class="st7" d="M397.4,436.6c.1,0,.3,0,.4,0,.2-.1.3-.4.2-.6,0,0-1-2-2.4-2.8-1.8-1.1-3.4,0-3.4,0-.2.1-.3.4-.1.7.1.2.4.3.7.1,0,0,1.1-.7,2.4,0,1.1.7,2,2.4,2,2.4,0,.1.2.2.3.2Z"/>
              <path class="st7" d="M398.9,435.3c.1,0,.3,0,.4,0,.2-.1.3-.4.2-.6,0,0-1-2-2.4-2.8-1.8-1.1-3.4,0-3.4,0-.2.1-.3.4-.1.7.1.2.4.3.7.1,0,0,1.1-.7,2.4,0,1.1.7,2,2.4,2,2.4,0,.1.2.2.3.2Z"/>
              <path class="st7" d="M395.4,437.5c.1,0,.3,0,.4,0,.2-.1.3-.4.2-.6,0,0-1-2-2.4-2.8-1.8-1.1-3.4,0-3.4,0-.2.1-.3.4-.1.7.1.2.4.3.7.1,0,0,1.1-.7,2.4,0,1.1.7,2,2.4,2,2.4,0,.1.2.2.3.2Z"/>
            </g>
          </g>
        </g>
        <g>
          <path class="st17" d="M445.4,308.2s-10.4,37.1-24,57.2c0,0-2,19.5-5.5,29.9-1.5,4.5-5.4,31.6-5.4,31.6l-1.7-.2h-1c0-.1-7.4-1.2-7.4-1.2l3.3-64.4,16.3-50.8,21.1-1.6h1.1c0,0,3.1-.3,3.1-.3Z"/>
          <path class="st5" d="M442.3,308.5l-23.1,57c0,0-3.5,15.5-5.4,26.4-1.7,9.7-4.3,26.5-5,34.8h-1c.7-8.5,3.2-25.1,5-35,2-10.9,5.4-26.4,5.4-26.5l22.9-56.6h1.1Z"/>
        </g>
      </g>
      <g>
        <path class="st12" d="M392.8,305.4c0,2.1,0,3.8,0,4.9,5,1.3,10,2.3,15,2.9.1,0,.3,0,.4,0,.2,0,.4,0,.7,0,0,0,.1,0,.2,0,.9,0,1.7.2,2.6.2,4.3.4,8.6.4,12.9.2.4,0,.8,0,1.1,0,.3,0,.7,0,1,0,.2,0,.3,0,.5,0,.3,0,.6,0,.9,0,6.3-.5,12.6-1.6,18.9-3.3,0-2.5,0-7.5,0-14.1,0-.4,0-.7,0-1.1,0-7.2,0-16-.1-25.1,0-.7,0-1.4,0-2.2,0-.8,0-1.7,0-2.5,0-.1,0-.3,0-.4,0-.2,0-.4,0-.6,0-.4,0-.8,0-1.2,0-.6,0-1.1,0-1.7,0-.4,0-.9,0-1.3,0-.9,0-1.7,0-2.6-.3-18-.9-34.6-2.1-38.8-.1-.4-.2-.7-.3-.8-.1-.2-.3-.4-.4-.6-.2-.2-.5-.5-.8-.8-1.9-1.8-5.3-3.8-8.7-5.8-.4-.2-.8-.5-1.2-.7,0,0-9.2-3.1-9.3-3.2l-9.6.7c-1.2.7-10.2,3.8-11.3,4.5-.3.2-.7.4-1,.6-2.6,1.7-4.8,3.4-5.8,4.8-1.4,2.1-2.2,20.5-2.7,40.5,0,.5,0,.9,0,1.4,0,2.1,0,4.3-.1,6.4,0,2.1,0,4.2-.1,6.3,0,3.4-.1,6.8-.1,10,0,.4,0,.7,0,1.1,0,3.2,0,6.2,0,9,0,.4,0,.7,0,1.1,0,4.2,0,8,0,11h0c0,.4,0,.8,0,1.2Z"/>
        <path class="st24" d="M437.3,242.3c0-.5.6-.7.9-.3,3.9,5.1,6.2,10.6,7.6,15,.4,1.1.7,2.2.9,3.3,0,.4,0,.9,0,1.3,0,.6,0,1.1,0,1.7,0,.4,0,.8,0,1.2,0,.2,0,.4,0,.6,0,.1,0,.3,0,.4-.4-2.2-1-5.1-2-8.2-1.3-4.3-3.6-9.7-7.4-14.7,0,0-.1-.2-.1-.3h0Z"/>
        <path class="st24" d="M435.3,294.6h0c-10.4,0-19.2-4.8-24.8-8.7-6.1-4.3-9.7-8.6-9.8-8.6-.2-.2-.1-.5,0-.7s.5-.1.7,0c0,0,3.6,4.3,9.6,8.5,5.5,3.9,14.1,8.5,24.2,8.5.3,0,.5.2.5.5,0,.3-.2.5-.5.5Z"/>
        <path class="st24" d="M424.5,298.2c-9,0-18-5.1-18.4-5.4-.2-.1-.3-.4-.2-.7s.4-.3.7-.2c.1,0,10.7,6.1,20,5.1.3,0,.5.2.5.4,0,.3-.2.5-.4.5-.7,0-1.5.1-2.2.1Z"/>
      </g>
      <g>
        <path class="st16" d="M464,321c.2,2.6-2.9,1.2-2-4,.9-5.2-1.6-9.9-2.7-9.7-1.1.2.9,5.7,0,7.7-1,2-2.2-1.9-3.4-4.2-1.3-2.4-1.2-7.7-.6-11.5.6-3.8-6.3-26.8-6.3-33.5l-.8-2.8-3.1-10.4-4.8-16.2s2.9-12.3,7.7-11.2c0,0,2.6,8.5,5.3,18.2.5,1.6.9,3.3,1.4,5,2,7,3.8,13.9,4.6,18,2.3,10.8,2.4,33.3,2.4,33.3,0,0,4,8.3,4.1,11.9,0,3.9-2,7-1.7,9.6Z"/>
        <path class="st12" d="M443.7,217.8c0,.2.3-.4.5,0,.6,1.3,3,4.5,4.3,7.6.2.4.3.8.5,1.2,1.8,4.6,11.5,34.5,13.5,60.1l-9.5,1.8c-3-16.7-4.9-21.8-6.8-30-1-3.2-2-6.3-2.9-9.1,0,0,0,0,0,0-.4-1.1-.7-2.2-1.1-3.3,0,0,0,0,0,0-.1-.4-.2-.7-.4-1.1h0c-1.4-4.2-2.5-7.6-2.8-9.5-.8-5.2,1.4-15.5,4.6-17.6Z"/>
        <polygon class="st24" points="463.1 284.9 463.7 288.7 452.5 290.5 451.7 286.6 463.1 284.9"/>
        <g>
          <path class="st5" d="M462.3,290.9s-6.2-.5-8.9,1.4l.6,3.6s7.3-.8,9-.7c0,0,.2-3.6-.7-4.3Z"/>
          <path class="st17" d="M459.2,293.4c0,1.7,1.1,3,2.5,3s2.5-1.4,2.5-3-1.1-3-2.5-3c-1.4,0-2.5,1.4-2.5,3Z"/>
          <path class="st15" d="M460.3,293.3c0,1.2.8,2.2,1.8,2.2s1.8-1,1.8-2.2-.8-2.2-1.8-2.2c-1,0-1.8,1-1.8,2.2Z"/>
        </g>
      </g>
      <g>
        <path class="st17" d="M434.9,182.9c0,8.8-5.4,14.8-14.2,14.8s-14.9-6.5-14.9-15.3,5.2-15.4,14-15.4c10.5,0,15.1,7.1,15.1,15.9Z"/>
        <path class="st17" d="M434.9,182.9s0-3.5,1.2-4.7c.7-.6,1-2.2,0-4s-2-2.2-.9-4.8c1-2.6-1.1-4.9-2.6-5.1-1.5-.2-5.2,1.9-7-.6-1.9-2.4-4.2-3.6-6.8-2.8s-6.1,1.2-7.6-.2-6,.6-5.7,3.4c.3,2.8,2.7,5.6,1.4,6.7-1.3,1.2-3,4.8,0,5.4,3,.7,28,6.7,28,6.7Z"/>
        <g>
          <path class="st22" d="M432.9,186.7s2.4-3.2,4.2-.6-.7,10.6-5.2,8.7l.9-8.1Z"/>
          <path class="st20" d="M433,192.4c.2,0,.3-.1.4-.3.7-2.4,3.2-3.4,3.2-3.4.2,0,.3-.3.2-.5,0-.2-.3-.3-.5-.2-.1,0-2.9,1.1-3.7,3.9,0,.2,0,.4.3.5,0,0,0,0,.1,0Z"/>
          <path class="st20" d="M435.5,191.1c0,0,.1,0,.2,0,.2-.1.2-.3.1-.5,0,0-.5-.7-1.4-1.1-.2,0-.4,0-.5.2,0,.2,0,.4.2.5.7.3,1.1.9,1.1.9,0,.1.2.2.3.2Z"/>
        </g>
        <g>
          <path class="st22" d="M407.9,186.7s-2.4-3.2-4.2-.6.7,10.6,5.2,8.7l-.9-8.1Z"/>
          <path class="st20" d="M407.8,192.4c-.2,0-.3-.1-.4-.3-.7-2.4-3.2-3.4-3.2-3.4-.2,0-.3-.3-.2-.5,0-.2.3-.3.5-.2.1,0,2.9,1.1,3.7,3.9,0,.2,0,.4-.3.5,0,0,0,0-.1,0Z"/>
          <path class="st20" d="M405.3,191.1c0,0-.1,0-.2,0-.2-.1-.2-.3-.1-.5,0,0,.5-.7,1.4-1.1.2,0,.4,0,.5.2s0,.4-.2.5c-.7.3-1.1.9-1.1.9,0,.1-.2.2-.3.2Z"/>
        </g>
        <path class="st16" d="M414.4,201.5v8.3s.9,4.3,3.5,4.6c3.7.4,8-5.8,8-5.8v-6.6l-11.5-.6Z"/>
        <path class="st22" d="M414.4,201.5v3.5c2.1,2.4,5.9,3,11.5,2.1v-5.1l-11.5-.6Z"/>
        <path class="st16" d="M434.2,186.6c0,.5,0,.9-.1,1.4-.1,1.2-.3,2.4-.5,3.6,0,0,0,0,0,.1-1.1,5.8-3.4,11.5-8.6,13.4-11.6,4.1-15.8-5.8-17.4-11.6-.2-.6-.3-1.4-.5-2.1,0,0,0,0,0,0-.2-.9-.3-1.8-.4-2.7,0-.7-.2-1.4-.2-2.1-.2-1.7-.3-3.5-.4-5-.2-3.5,1.9-6.8,5.3-8,4.8-1.8,12-3.3,18.9.6,2.5,1.4,4.1,4.1,4.2,7,0,1.6,0,3.6-.1,5.7Z"/>
        <path class="st17" d="M432.8,186.8s-1.1,4.5-2.3,7.6c-2.6-2.7-10.1,0-10.1,0,0,0-8.5-3.1-10,.6-1-1.8-1.7-5.6-2.2-8.2l-1.7-.5c0,.7.1,1.4.2,2.1.1.9.3,1.9.4,2.7,0,0,0,0,0,0,.1.8.3,1.5.5,2.1,1.7,5.8,5.8,15.8,17.4,11.6,5.1-1.8,7.5-7.5,8.6-13.4,0,0,0,0,0-.1.2-1.2.4-2.4.5-3.6,0-.5,0-.9.1-1.4l-1.4.2ZM427.4,199.4c-3.1,2.4-7.3,2.5-9.4,2-1.7-.4-3.5-1.4-5.2-3.1.3-1.8,1.8-3.4,7.9-2.5,7.4-1.9,7,2.2,6.7,3.6Z"/>
        <path class="st17" d="M424.4,187.2c0,.8.4,1.5,1,1.5s1-.7,1-1.5-.4-1.5-1-1.5-1,.7-1,1.5Z"/>
        <path class="st17" d="M413.1,187.2c0,.8.4,1.5,1,1.5s1-.7,1-1.5-.4-1.5-1-1.5-1,.7-1,1.5Z"/>
        <path class="st17" d="M411.3,181.9s3.1-1.2,5.4-.2l-.2,1.3s-3.5-.3-5.2.4c-.2-.5-.2-1,0-1.5Z"/>
        <path class="st17" d="M429.1,181.9s-3.1-1.2-5.4-.2l.2,1.3s3.5-.3,5.2.4c.2-.5.2-1,0-1.5Z"/>
        <path class="st22" d="M420,193.8c.6,0,1.3,0,1.4-.1.2,0,.3-.3.3-.5,0-.2-.3-.3-.5-.3-.4,0-1.2.2-1.5,0,0,0-.1-.1-.1-.4,0-1.3.9-5.6.9-5.7,0-.2,0-.4-.3-.4-.2,0-.4,0-.4.3,0,.2-.9,4.4-.9,5.8,0,.5.2.8.4,1,.2.2.5.3.8.3Z"/>
        <path class="st7" d="M425.1,196c-.3,1.5-1.3,4.4-4.8,4.4s-4.4-2.6-4.7-4.4h9.5Z"/>
        <path class="st17" d="M406.5,186.8h1.7c-.2-1.7.4-3.8.9-5.1,1.2-3.1-1.3-4.5.7-6,2-1.6,7-.9,10.4-1,3.5-.1,9.1,0,10.4.3,1.4.3.6,2.6.1,4.3-.5,1.7,1.7,3.7,2,5.5.1.5,0,1.3,0,2.1h1.4c.2-2.2.2-4.3.2-5.9,0-2.9-1.6-5.6-4.2-7-6.9-3.9-14.1-2.4-18.9-.6-3.3,1.3-5.4,4.5-5.3,8.1,0,1.7.2,3.6.4,5.5Z"/>
        <g>
          <path class="st7" d="M414.1,192.4c-2.5,0-4.5-2-4.5-4.5s2-4.5,4.5-4.5,4.5,2,4.5,4.5c0,2.5-2,4.5-4.5,4.5ZM414.1,184.2c-2.1,0-3.8,1.7-3.8,3.8s1.7,3.8,3.8,3.8,3.8-1.7,3.8-3.8-1.7-3.8-3.8-3.8Z"/>
          <path class="st7" d="M426.3,192.4c-2.5,0-4.5-2-4.5-4.5s2-4.5,4.5-4.5,4.5,2,4.5,4.5-2,4.5-4.5,4.5ZM426.3,184.2c-2.1,0-3.8,1.7-3.8,3.8s1.7,3.8,3.8,3.8,3.8-1.7,3.8-3.8-1.7-3.8-3.8-3.8Z"/>
          <path class="st7" d="M410.4,186.5c0,0-.2,0-.2-.1h0s-2-2-4.7-1.4c-.2,0-.4,0-.4-.3,0-.2,0-.4.3-.4,3-.7,5.3,1.5,5.4,1.6.1.1.1.4,0,.5,0,0-.2.1-.2.1Z"/>
          <path class="st7" d="M430.1,186.5c-.1,0-.2,0-.3-.2-.1-.2,0-.4.1-.5.1,0,3.3-2.1,6-1.7.2,0,.3.2.3.4,0,.2-.2.3-.4.3-2.4-.4-5.5,1.6-5.5,1.6,0,0-.1,0-.2,0Z"/>
          <path class="st7" d="M422.1,186.9s-.8-1.1-1.9-1.1-1.8,1.1-1.8,1.1l-.6-.4c0,0,1-1.4,2.4-1.4s2.4,1.4,2.5,1.4l-.6.4Z"/>
        </g>
      </g>
    </g>
    <g>
      <g>
        <path class="st1" d="M454.8,205.9c0,2.7-2.2,4.8-4.8,4.8s-4.8-2.2-4.8-4.8,2.2-4.8,4.8-4.8c2.7,0,4.8,2.2,4.8,4.8ZM446.7,205.9c0,1.8,1.5,3.3,3.3,3.3s3.3-1.5,3.3-3.3-1.5-3.3-3.3-3.3-3.3,1.5-3.3,3.3Z"/>
        <path class="st12" d="M459.7,181.4c0,2.7-2.2,4.8-4.8,4.8s-4.8-2.2-4.8-4.8,2.2-4.8,4.8-4.8c2.7,0,4.8,2.2,4.8,4.8ZM451.6,181.4c0,1.8,1.5,3.3,3.3,3.3s3.3-1.5,3.3-3.3-1.5-3.3-3.3-3.3c-1.8,0-3.3,1.5-3.3,3.3Z"/>
        <g>
          <g>
            <path class="st1" d="M469.5,169.9c0,.4-.3.8-.8.8h-3.3c-.4,0-.8-.3-.8-.8s.3-.8.8-.8h3.3c.4,0,.8.3.8.8Z"/>
            <path class="st1" d="M475.3,169.9c0,.4-.3.8-.8.8h-3.3c-.4,0-.8-.3-.8-.8s.3-.8.8-.8h3.3c.4,0,.8.3.8.8Z"/>
          </g>
          <g>
            <path class="st1" d="M470.8,165.2v3c0,.4-.3.8-.8.8s-.8-.3-.8-.8v-3c0-.4.3-.8.8-.8.4,0,.8.3.8.8Z"/>
            <path class="st1" d="M470.8,171.5v3c0,.4-.3.8-.8.8s-.8-.3-.8-.8v-3c0-.4.3-.8.8-.8s.8.3.8.8Z"/>
          </g>
        </g>
        <g>
          <g>
            <path class="st2" d="M464.1,195.6c0,.4-.3.8-.8.8h-3.3c-.4,0-.8-.3-.8-.8s.3-.8.8-.8h3.3c.4,0,.8.3.8.8Z"/>
            <path class="st2" d="M469.9,195.6c0,.4-.3.8-.8.8h-3.3c-.4,0-.8-.3-.8-.8s.3-.8.8-.8h3.3c.4,0,.8.3.8.8Z"/>
          </g>
          <g>
            <path class="st2" d="M465.3,190.9v3c0,.4-.3.8-.8.8s-.8-.3-.8-.8v-3c0-.4.3-.8.8-.8.4,0,.8.3.8.8Z"/>
            <path class="st2" d="M465.3,197.2v3c0,.4-.3.8-.8.8s-.8-.3-.8-.8v-3c0-.4.3-.8.8-.8s.8.3.8.8Z"/>
          </g>
        </g>
      </g>
      <g>
        <path class="st1" d="M63,171.3c2.7,0,4.8,2.2,4.8,4.8s-2.2,4.8-4.8,4.8-4.8-2.2-4.8-4.8c0-2.7,2.2-4.8,4.8-4.8ZM63,172.8c-1.8,0-3.3,1.5-3.3,3.3s1.5,3.3,3.3,3.3,3.3-1.5,3.3-3.3c0-1.8-1.5-3.3-3.3-3.3Z"/>
        <path class="st12" d="M58.1,146.8c2.7,0,4.8,2.2,4.8,4.8s-2.2,4.8-4.8,4.8-4.8-2.2-4.8-4.8,2.2-4.8,4.8-4.8ZM58.1,148.3c-1.8,0-3.3,1.5-3.3,3.3s1.5,3.3,3.3,3.3,3.3-1.5,3.3-3.3c0-1.8-1.5-3.3-3.3-3.3Z"/>
        <g>
          <g>
            <path class="st1" d="M43.5,140c0,.4.3.8.8.8h3.3c.4,0,.8-.3.8-.8s-.3-.8-.8-.8h-3.3c-.4,0-.8.3-.8.8Z"/>
            <path class="st1" d="M37.7,140c0,.4.3.8.8.8h3.3c.4,0,.8-.3.8-.8s-.3-.8-.8-.8h-3.3c-.4,0-.8.3-.8.8Z"/>
          </g>
          <g>
            <path class="st1" d="M42.2,135.4v3c0,.4.3.8.8.8s.8-.3.8-.8v-3c0-.4-.3-.8-.8-.8-.4,0-.8.3-.8.8Z"/>
            <path class="st1" d="M42.2,141.7v3c0,.4.3.8.8.8s.8-.3.8-.8v-3c0-.4-.3-.8-.8-.8s-.8.3-.8.8Z"/>
          </g>
        </g>
        <g>
          <g>
            <path class="st2" d="M48.9,165.7c0,.4.3.8.8.8h3.3c.4,0,.8-.3.8-.8s-.3-.8-.8-.8h-3.3c-.4,0-.8.3-.8.8Z"/>
            <path class="st2" d="M43.1,165.7c0,.4.3.8.8.8h3.3c.4,0,.8-.3.8-.8s-.3-.8-.8-.8h-3.3c-.4,0-.8.3-.8.8Z"/>
          </g>
          <g>
            <path class="st2" d="M47.7,161.1v3c0,.4.3.8.8.8s.8-.3.8-.8v-3c0-.4-.3-.8-.8-.8-.4,0-.8.3-.8.8Z"/>
            <path class="st2" d="M47.7,167.4v3c0,.4.3.8.8.8s.8-.3.8-.8v-3c0-.4-.3-.8-.8-.8-.4,0-.8.3-.8.8Z"/>
          </g>
        </g>
      </g>
    </g>
    <g>
      <g>
        <path class="st2" d="M188.1,397.9h-33.1c-2.5,0-4.6-2.1-4.6-4.6v-33.1c0-2.5,2.1-4.6,4.6-4.6h33.1c2.5,0,4.6,2.1,4.6,4.6v33.1c0,2.5-2.1,4.6-4.6,4.6Z"/>
        <path class="st1" d="M185.3,397.9h-33.1c-2.5,0-4.6-2.1-4.6-4.6v-33.1c0-2.5,2.1-4.6,4.6-4.6h33.1c2.5,0,4.6,2.1,4.6,4.6v33.1c0,2.5-2.1,4.6-4.6,4.6Z"/>
        <path class="st7" d="M169.4,362.8c-5.4-.4-9.9,3.9-9.9,9.2s.5,3.3,1.3,4.7c1.2,2.1,2.5,4.1,3.6,6.2l4.4,7.9,6.7-12.1c.4-.7.8-1.4,1.2-2.1.8-1.4,1.3-3.1,1.3-4.9-.1-4.7-3.9-8.7-8.6-9ZM168.7,374.8c-2.2,0-3.9-1.7-3.9-3.9s1.7-3.9,3.9-3.9,3.9,1.7,3.9,3.9-1.7,3.9-3.9,3.9Z"/>
      </g>
      <g>
        <path class="st1" d="M165.6,440.2h-33.1c-2.5,0-4.6-2.1-4.6-4.6v-33.1c0-2.5,2.1-4.6,4.6-4.6h33.1c2.5,0,4.6,2.1,4.6,4.6v33.1c0,2.5-2.1,4.6-4.6,4.6Z"/>
        <path class="st24" d="M162.7,440.2h-33.1c-2.5,0-4.6-2.1-4.6-4.6v-33.1c0-2.5,2.1-4.6,4.6-4.6h33.1c2.5,0,4.6,2.1,4.6,4.6v33.1c0,2.5-2.1,4.6-4.6,4.6Z"/>
        <path class="st7" d="M146.2,405.2c-7.7,0-13.9,6.2-13.9,13.9s6.2,13.9,13.9,13.9,13.9-6.2,13.9-13.9c0-7.7-6.2-13.9-13.9-13.9ZM146.7,424.2v-4.9h6.3c0,1.7-.3,3.4-.7,4.9h-5.5ZM150.7,429.7c1-1.3,1.8-2.8,2.4-4.4h4.2c-1.8,3.2-4.8,5.4-8.3,6.2.6-.5,1.2-1.1,1.7-1.8ZM151.9,425.3c-.5,1.4-1.2,2.6-2.1,3.7-1.3,1.7-2.7,2.6-3.1,2.8v-6.5h5.2ZM146.7,412.2v-5.9c.2,0,.3,0,.5,0,.7.6,2.9,2.6,4.4,5.9h-4.8ZM152.8,412.2c-.5-1.2-1.1-2.3-1.9-3.4-.5-.8-1.1-1.5-1.8-2.2,3.2.8,6,2.8,7.8,5.6h-4.1ZM146.7,418.2v-4.9h5.3c.6,1.6.9,3.2,1,4.9h-6.3ZM154.1,418.2c0-1.7-.4-3.3-.9-4.9h4.4c.8,1.5,1.2,3.2,1.3,4.9h-4.8ZM158.9,419.3c0,1.7-.4,3.3-1.1,4.9h-4.4c.4-1.5.7-3.2.7-4.9h4.8ZM139.1,424.2h-4.6c-.7-1.5-1-3.2-1.1-4.9h4.9c0,1.7.3,3.3.7,4.9ZM140.9,412.2c.4-1,1-1.9,1.6-2.7,1.2-1.7,2.3-2.7,2.8-3.1.1,0,.2,0,.4,0v5.9h-4.7ZM145.6,413.3v4.9h-6.1c0-1.7.4-3.3,1-4.9h5.2ZM135.4,412.2c1.8-2.8,4.7-4.9,7.9-5.6-.6.7-1.2,1.4-1.8,2.2-.7,1.1-1.4,2.2-1.9,3.4h-4.3ZM145.6,419.3v4.9h-5.4c-.5-1.5-.7-3.1-.7-4.9h6.1ZM133.4,418.2c.1-1.7.6-3.3,1.3-4.9h4.5c-.5,1.6-.8,3.2-.9,4.9h-4.9ZM139.4,425.3c.6,1.6,1.4,3.1,2.4,4.4.5.7,1.1,1.3,1.7,1.8-3.6-.8-6.7-3.1-8.5-6.2h4.4ZM145.6,425.3v6.4c-.8-.5-3.5-2.4-5-6.4h5Z"/>
      </g>
      <g>
        <path class="st24" d="M215.6,440.2h-33.1c-2.5,0-4.6-2.1-4.6-4.6v-33.1c0-2.5,2.1-4.6,4.6-4.6h33.1c2.5,0,4.6,2.1,4.6,4.6v33.1c0,2.5-2.1,4.6-4.6,4.6Z"/>
        <path class="st12" d="M212.7,440.2h-33.1c-2.5,0-4.6-2.1-4.6-4.6v-33.1c0-2.5,2.1-4.6,4.6-4.6h33.1c2.5,0,4.6,2.1,4.6,4.6v33.1c0,2.5-2.1,4.6-4.6,4.6Z"/>
        <g>
          <polygon class="st7" points="209.5 416.9 208.8 416.3 197.2 406.2 185.6 416.3 184.8 417 183 418.5 183 431.5 193.5 431.5 193.5 423.1 200.8 423.1 200.8 431.5 211.2 431.5 211.2 418.4 209.5 416.9"/>
          <polygon class="st7" points="197.2 401.9 179.8 417 182.5 417 183 416.5 183.3 416.3 197.2 404.2 211.1 416.3 211.2 416.4 211.8 416.9 214.4 416.9 197.2 401.9"/>
        </g>
      </g>
    </g>
    <g>
      <g>
        <path class="st1" d="M348.2,400.8s-.9.8-2.6,1c-.5,0-1.1,0-1.8-.1-.7-.1-1.6-.4-2.5-.8,0,0,.4-17.2-6.5-29-7-11.8-16.2-28.2-8.8-36.6s19.2,3.3,23.1,22.9c3.9,19.6-.8,42.7-.8,42.7Z"/>
        <path class="st18" d="M345.6,401.7c-.5,0-1.1,0-1.8-.1,2.2-30.5-11.6-54.1-11.8-54.3-.3-.4-.1-1,.3-1.3.4-.3,1-.1,1.3.3.1.2,14.3,24.3,12,55.4Z"/>
      </g>
      <g>
        <path class="st1" d="M372,373c-16.3,26.3-15.1,32.4-15.1,32.4l-2.1-.4-1.8-.3-2.6-.5c-1.4-11.7,7.5-61,23.5-61s3.7,20.8-1.8,29.7Z"/>
        <path class="st18" d="M371.4,357.9c-.2.3-13.8,24.6-16.7,47.1l-1.8-.3c3-22.9,16.7-47.5,16.9-47.7.3-.4.8-.6,1.3-.3.4.3.6.8.4,1.3Z"/>
      </g>
      <g>
        <g>
          <path class="st1" d="M336.2,404.4h0s0,0,0,0Z"/>
          <path class="st1" d="M341.1,403.1l-1.9.5-1.8.5-1.1.3c0-.2-.7-2.2-12.2-17.5-4.7-6.3-17.3-23.3-5.8-26.2,10.6-2.6,23,33.6,22.7,42.4Z"/>
        </g>
        <path class="st18" d="M339.2,403.6l-1.8.5c-3.3-14.7-16.7-32.8-16.8-33-.3-.4-.2-1,.2-1.3.4-.3,1-.2,1.3.2.6.8,13.8,18.6,17.2,33.6Z"/>
      </g>
      <path class="st12" d="M363.7,442h-36.4v-40c0-2.2,1.8-4.1,4.1-4.1h28.2c2.2,0,4.1,1.8,4.1,4.1v40h0Z"/>
    </g>
    <g>
      <g>
        <g>
          <polygon class="st13" points="114.5 422.1 114.5 431.2 108 431 107.5 421.4 114.5 422.1"/>
          <g>
            <path class="st1" d="M112.7,430.3s1.5-2.1,2.7-2,10.8,7.3,14,7.9c3.2.5,2.7,2.9,2.1,4.1s-25.6.1-25.6.1c0,0-.9-7.4,0-9.7.8-2.3,4.4.2,6.9-.3Z"/>
            <g>
              <path class="st0" d="M118,435.4c-.1,0-.2,0-.4,0-.2-.1-.3-.4-.2-.6,0,0,1-1.8,2.3-2.5,1.7-.9,3.1,0,3.2,0,.2.1.3.4.1.6-.1.2-.4.3-.6.1,0,0-1-.7-2.2,0-1.1.6-1.9,2.1-1.9,2.1,0,.1-.2.2-.3.2Z"/>
              <path class="st0" d="M116.7,434.2c-.1,0-.2,0-.4,0-.2-.1-.3-.4-.2-.6,0,0,1-1.8,2.3-2.5,1.7-.9,3.1,0,3.2,0,.2.1.2.4.1.6s-.4.3-.6.1c0,0-1-.7-2.2,0-1.1.6-1.9,2.1-1.9,2.1,0,.1-.2.2-.3.2Z"/>
              <path class="st0" d="M119.9,436.4c-.1,0-.2,0-.4,0-.2-.1-.3-.4-.2-.6,0,0,1-1.8,2.3-2.5,1.7-.9,3.1,0,3.2,0,.2.1.3.4.1.6-.1.2-.4.3-.6.1,0,0-1-.7-2.2,0-1.1.6-1.9,2.1-1.9,2.1,0,.1-.2.2-.3.2Z"/>
            </g>
          </g>
        </g>
        <path class="st23" d="M115.8,423.7l-6.6-.6h-.8c0,0-1.6-.2-1.6-.2,0,0-2.2-49.3-3-62.4-.7-11.4-4.8-37-7.6-52.9-.8-4.5-1.4-8.3-1.9-10.7-.3-1.9-.5-3-.5-3l22.4-2.9s0,.6,0,1.7c.1,2.3.4,6.6.7,12.1.8,14.9,2,38.2,2.4,50,.9,30.5-3.6,68.8-3.6,68.8Z"/>
        <path class="st5" d="M117,304.9l-20.7,2.7c-.8-4.5-1.4-8.3-1.9-10.7l21.9-4.2c.1,2.3.4,6.6.7,12.1Z"/>
        <path class="st5" d="M109.2,423.2h-.8c.2-15.3.5-53.4-1.3-69.5-2.2-20.3-8.1-49.9-8.1-50.2l.8-.3c0,.3,5.9,29.9,8.1,50.3,1.8,16.2,1.5,54.5,1.3,69.7Z"/>
      </g>
      <g>
        <g>
          <polygon class="st13" points="62 419.1 59.4 427.9 53.2 425.8 55.6 416.5 62 419.1"/>
          <g>
            <path class="st1" d="M57.6,426.6s2.1-1.4,3.2-1,7.5,10.6,10.4,12.2c2.8,1.6,1.5,3.7.5,4.6-1,.9-24.1-8.9-24.1-8.9,0,0,1.8-7.3,3.3-9.1,1.5-1.9,4.1,1.8,6.6,2.1Z"/>
            <g>
              <path class="st0" d="M60.8,433.2c-.1,0-.2,0-.3-.2-.2-.2-.1-.5,0-.6,0,0,1.5-1.3,3-1.5,2-.3,2.9,1.1,3,1.2.1.2,0,.5-.1.6s-.5,0-.6-.1c0,0-.7-1-2.1-.8-1.2.2-2.5,1.3-2.5,1.3,0,0-.2.1-.3.1Z"/>
              <path class="st0" d="M59.9,431.5c-.1,0-.2,0-.3-.2-.2-.2-.1-.5,0-.6,0,0,1.5-1.3,3-1.5,2-.3,2.9,1.1,3,1.2.1.2,0,.5-.1.6-.2.1-.5,0-.6-.1,0,0-.7-1-2.1-.8-1.2.2-2.5,1.3-2.5,1.3,0,0-.2.1-.3.1Z"/>
              <path class="st0" d="M62.2,434.8c-.1,0-.2,0-.3-.2-.2-.2-.1-.5,0-.6,0,0,1.5-1.3,3-1.5,2-.3,2.9,1.1,3,1.2.1.2,0,.5-.1.6-.2.1-.5,0-.6-.1,0,0-.7-1-2.1-.8-1.2.2-2.5,1.3-2.5,1.3,0,0-.2.1-.3.1Z"/>
            </g>
          </g>
        </g>
        <path class="st23" d="M62.7,421l-6.2-2.3-.7-.3-1.5-.6s11.2-48,14-60.9c2.4-11.2,5.3-36.9,7-53,.5-4.6.8-8.3,1.1-10.8.2-1.9.3-3,.3-3l22.3,3.2s-.1.6-.4,1.7c-.5,2.2-1.4,6.5-2.6,11.9-3.2,14.6-8.4,37.3-11.2,48.8-7.3,29.6-22,65.3-22,65.3Z"/>
        <path class="st5" d="M95.9,306.9l-20.7-3c.5-4.6.8-8.3,1.1-10.8l22.3,1.9c-.5,2.2-1.4,6.5-2.6,11.9Z"/>
        <path class="st5" d="M56.5,418.7l-.7-.3c4.3-14.6,14.9-51.2,17.5-67.2,3.3-20.2,5.7-50.2,5.7-50.5h.8c0,.2-2.4,30.3-5.7,50.6-2.6,16.1-13.2,52.9-17.6,67.5Z"/>
      </g>
      <path class="st24" d="M112.5,240c6.1,10,23.5,19.3,23.5,19.3,6.6-1.1,10.9-2.8,15.1-4.9-1.1-3-1.5-6-2-9.9-6.2,1.4-11.5,2.1-11.5,2.1-12.6-6.6-26.2-37.3-26.2-37.3-4.6,8.4,1,30.7,1,30.7Z"/>
      <g>
        <path class="st17" d="M72.8,222.3c5.1,5,11.5,3.2,19.6-.5,8.2-3.7,2.7,4.1,10.4,5.8s7.8-17.7,8.7-27.3c.6-6,3.4-13.6,3.5-16.6h0c0-.5.1-1.1.1-1.6.4-7.4-3.5-21-19.6-19.6,0,0-13.3.9-15.4,13.8,0,0-.9,5.9-1.5,10.2-1.8,12.2-6,5.6-5.2,20.6.2,5-6.7,9.5-.7,15.3Z"/>
        <g>
          <path class="st12" d="M118,297.8c-13.5,9-43.2-1.5-43.2-1.5-3.2-4.3,2-13.6,3.9-24.6,1.6-9.3.9-22-.4-31.5-.2-1.8-.5-3.4-.8-4.9-1.7-9.5-1.1-25.2-1.1-25.2,1.7-.8,4.4-1.8,7.1-2.7,1.7-.6,3.4-1.2,4.9-1.7,2.6-.9,4.6-1.5,4.6-1.5l10.7,2.2,2.1.7,3.4,1.2,2.3.8s1.1,10.7,2.4,17.2c.3,1.8.7,3.3,1.1,4.1,1.6,4,1.1,5.8-1.1,10.9-.5,1.2-.9,2.5-1.1,3.9,0,.3-.1.7-.1,1.1-.5,4.3.1,9.8,1.2,17.2,1.2,8.6,4.5,25.3,5.6,30.9.3,1.3-.3,2.6-1.4,3.4Z"/>
          <g>
            <path class="st24" d="M112.8,245.3c0,.3-.1.7-.1,1.1-5.6,4.3-15.1,10-25.6,9.5-.2,0-.4-.2-.4-.4,0-.2.2-.4.4-.4,10.7.5,20.3-5.6,25.7-9.8Z"/>
            <path class="st24" d="M102.8,227.6c-5.3-.3-10-6.2-10.2-6.4-.1-.2,0-.4,0-.5s.4,0,.5,0c0,0,4.9,6.3,10.1,6.1.2,0,.4.2.4.4,0,.2-.2.4-.4.4-.2,0-.3,0-.5,0Z"/>
            <path class="st24" d="M87.8,281c-.2,0-.3-.2-.4-.4,0-.2.1-.4.4-.4,13.9-.9,20.7-24.5,20.8-24.8,0-.2.3-.3.5-.3.2,0,.3.3.3.5-.3,1-7.1,24.4-21.5,25.3,0,0,0,0,0,0Z"/>
            <path class="st24" d="M93.6,274.1c-.1,0-.2,0-.3-.2-.1-.2,0-.4.1-.5,7.6-4.2,9-10.8,9-10.9,0-.2.2-.3.4-.3.2,0,.3.2.3.4,0,.3-1.5,7-9.3,11.4,0,0-.1,0-.2,0Z"/>
          </g>
        </g>
        <g>
          <g>
            <g>
              <path class="st22" d="M109.6,184.2s2.4-2.8,4-.3-1.1,9.4-5.2,7.5l1.2-7.2Z"/>
              <path class="st7" d="M110.3,191c0,.4.3.8.7.8s.8-.3.8-.7c0-.4-.3-.8-.7-.8-.4,0-.8.3-.8.7Z"/>
              <path class="st20" d="M109.4,189.3c.2,0,.3,0,.3-.2.7-2.1,3.2-2.9,3.2-2.9.2,0,.3-.2.2-.4,0-.2-.3-.3-.4-.2-.1,0-2.8.9-3.6,3.3,0,.2,0,.4.2.4,0,0,0,0,0,0Z"/>
              <path class="st20" d="M111.9,188.3c0,0,.1,0,.2,0,.2,0,.2-.3.1-.5,0,0-.4-.7-1.3-1.1-.2,0-.4,0-.5.1s0,.4.2.4c.7.3,1,.8,1,.8,0,.1.2.2.3.2Z"/>
            </g>
            <path class="st16" d="M91.4,198.2l-.4,7.8s3.8,4.2,7,4.6c3.1.4,4.4-3.2,4.4-3.2l.4-8.1-11.4-1.1Z"/>
            <path class="st22" d="M91.3,199l-.2,3.5c2,2.4,5.7,3.4,11.3,2.9l.2-5.3-11.4-1.1Z"/>
            <path class="st16" d="M110.8,187.6c-.1.8-.3,1.7-.5,2.5-1.3,5.6-5.1,11.5-9.6,12.3-9.8,1.7-13.5-6.1-14.8-11.8-.1-.6.2-1.3.1-2.1-.2-1.8-.9-3.8-.9-5.8,0-1.4,0-2.7,0-3.9,0-3.4,2.1-6.5,5.3-7.6,4.5-1.6,11.4-2.6,17.6,1.4,2.3,1.5,3.7,4.1,3.6,7,0,2.2-.2,5-.7,7.9Z"/>
            <path class="st22" d="M98.8,191.4c-.2,0-.3-.1-.4-.3,0-.2.1-.4.3-.4l1.3-.2-1.6-4.8c0-.2,0-.4.2-.5.2,0,.4,0,.5.2l1.8,5.7-2.2.3s0,0,0,0Z"/>
            <path class="st17" d="M107.6,177.9c3.7,1.9,2.3,6.4,3.5,8.7,0,.2.2.2.3.1.5-3,.7-5.9.8-8,0-2.9-1.4-5.6-3.8-7.1-6.6-4.2-13.8-3.1-18.6-1.5-3.3,1.1-5.6,4.2-5.6,7.7,0,1.2,0,2.6,0,4,.6.4,2.1.6,2.2,1.7,0,2.7,0,4.5.7,4.4,1-.2,1.7-3.4.7-5.6,0,0,.9-1.4,4.5-2.6,4.6-1.5,9.1-3.9,9.1-3.9,0,0,1.8-1,2.5-2.1,0,0,.9,2.8,3.7,4.2Z"/>
            <path class="st17" d="M103.5,185.3c0,.8.4,1.5.9,1.5s1-.6,1-1.5c0-.8-.4-1.5-.9-1.5-.5,0-1,.6-1,1.5Z"/>
            <path class="st17" d="M93.2,184.8c0,.8.4,1.5.9,1.5s1-.6,1-1.5c0-.8-.4-1.5-.9-1.5-.5,0-1,.6-1,1.5Z"/>
            <path class="st17" d="M107.2,181.5c-.8-.2-2.3-.5-4-.5-.4,0-.8.3-.8.7h0c0,.3.3.5.7.5,1.1,0,4.1.1,5.4.6,0-.2,0-.4-.3-.6-.3-.3-.7-.5-1.1-.6Z"/>
            <path class="st17" d="M91.8,181c.8-.1,2.3-.3,4-.2.4,0,.8.4.7.7h0c0,.3-.4.5-.7.4-1.1-.1-4.1-.2-5.5.2,0-.2.1-.4.3-.6.3-.3.7-.4,1.2-.5Z"/>
            <path class="st7" d="M102.9,193.8c-.3,1.3-1.4,3.7-4.5,3.5-3.1-.1-3.9-2.4-4.1-4l8.7.4Z"/>
            <path class="st22" d="M98.3,199.7c.9,0,1.7-.4,1.8-.4.2,0,.2-.3.1-.5,0-.2-.3-.2-.5-.1h0s-.7.4-1.4.3c-.7,0-1.4-.5-1.4-.5-.2-.1-.4,0-.5.1-.1.2,0,.4.1.5,0,0,.8.5,1.8.6Z"/>
          </g>
          <g>
            <path class="st16" d="M86.3,183.1s-2.5-3.3-4.2-1.1c-1.7,2.2.2,9.2,4.1,7.7v-6.6Z"/>
            <path class="st7" d="M83.8,189.8c0,.4.3.8.7.8.4,0,.8-.3.8-.7,0-.4-.3-.8-.7-.8-.4,0-.8.3-.8.7Z"/>
            <path class="st22" d="M85.5,187.6c-.1,0-.3-.1-.3-.3-.5-2.1-2.6-3.1-2.7-3.1-.2,0-.2-.3-.2-.4s.3-.2.4-.2c.1,0,2.5,1.1,3,3.6,0,.2,0,.3-.2.4,0,0,0,0,0,0Z"/>
            <path class="st22" d="M83.3,186.4c0,0-.1,0-.2,0-.1-.1-.2-.3,0-.5,0,0,.4-.6,1.3-.9.2,0,.4,0,.4.2,0,.2,0,.4-.2.4-.6.3-1,.7-1,.7,0,0-.2.1-.3.1Z"/>
          </g>
        </g>
      </g>
      <g>
        <path class="st12" d="M136.3,257l9,7.6c1.1,1,2.8.8,3.8-.3l19.2-22.7,7.9-9.4-13.1-11.1-4.7,5.6-22.4,26.6c-1,1.1-.8,2.8.3,3.8Z"/>
        <path class="st24" d="M158.4,226.6c1.7,4.5,4.7,10.3,9.8,14.9l7.9-9.4-13.1-11.1-4.7,5.6Z"/>
        <path class="st17" d="M105.8,300.4l1.7,1.5c1.8,1.5,4.4,1.3,5.9-.5l31.4-37.2-8.1-6.9-31.4,37.2c-1.5,1.8-1.3,4.4.5,5.9Z"/>
        <g>
          <path class="st17" d="M161,162.2c-17.3,20.2-14.9,50.6,5.4,67.9,20.2,17.3,50.6,14.9,67.9-5.4,17.3-20.2,14.9-50.6-5.4-67.9-20.2-17.3-50.6-14.9-67.9,5.4ZM166.7,167c14.6-17.1,40.4-19.1,57.5-4.5,17.1,14.6,19.1,40.4,4.5,57.5-14.6,17.1-40.4,19.1-57.5,4.5-17.1-14.6-19.1-40.4-4.5-57.5Z"/>
          <path class="st9" d="M158.8,181.1c-6.8,21.4,5.1,44.4,26.5,51.2,1.8.6,3.7,1,5.5,1.4,4.8.8,9.6.8,14.2-.1,4.8-.9,9.4-2.6,13.6-5.1,6.5-3.9,12-9.6,15.6-16.7.9-1.9,1.7-3.8,2.4-5.9,6.8-21.4-5-44.4-26.5-51.2-2-.7-4.1-1.1-6.2-1.5-7.9-1.2-15.7,0-22.7,3-4.4,2-8.5,4.7-12,8.1-3.4,3.3-6.2,7.1-8.3,11.5-.8,1.7-1.5,3.5-2.1,5.3Z"/>
          <path class="st9" d="M181.2,156.2l37.4,72.3c6.5-3.9,12-9.6,15.6-16.7l-30.3-58.6c-7.9-1.2-15.7,0-22.7,3Z"/>
          <path class="st9" d="M160.9,175.8l29.9,57.9c4.8.8,9.6.8,14.2-.1l-35.8-69.3c-3.4,3.3-6.2,7.1-8.3,11.5Z"/>
        </g>
      </g>
      <g>
        <path class="st16" d="M115.5,276.4h1.6c1.5.1,2.6-.7,3.3-1.9.3-.6.8-1.6,1.1-2,.8-1,3-2.6,3.8-2.6s.6,1.4,0,2c-.6.6-1.5,1.4-2,2.3-.5.9,3.7,2.9,5.4,3.4,1.7.5,4.8-.3,5.1,1.2.2,1.5-2.1,1.6-2.1,1.6,0,0,.6,1.3-1.3,2.3,0,0,.3,1.3-1,1.9,0,0,0,1.6-1.4,2s-6,1.4-14.5-4.3l2-5.9Z"/>
        <path class="st24" d="M86.3,237.9c1.1,10.6,5.6,18.6,5.6,18.6,0,0,4.4,5.4,11.8,11.1,5.1,4,13.4,8.8,13.4,8.8-1.6,1.8-2.8,5.6-2.3,6.7-16.1-4.4-31.6-18.9-31.6-18.9-12-15.3-10.2-48.1-10.2-48.1,0,0,.6-4.9,3.3-6,0,0,5.2,2.2,6.8,8.6,1.6,6.3,3.2,19.1,3.2,19.1Z"/>
      </g>
      <path class="st16" d="M167.4,243.6s-3.9-1.6-5.7-.9,3,3.6,3,3.6c0,0-5.9-3.5-7-2.3-1.1,1.3,4.6,4.8,4.6,4.8,0,0-4.4-1.8-5.3-.9-.9.9,3.1,3.7,3.1,3.7,0,0-3.6-1.1-4.4-.5-.8.6,2.3,3.3,4.4,4.1,2,.8,2.5-2.1,2.5-2.1,0,0,2-1.6,1.8-2.8,0,0,2.1-1.3,2.3-2.6,0,0,3-2.4.9-4.2Z"/>
    </g>
  </g>
</svg>