<svg width="17" height="31" viewBox="0 0 17 31" fill="none" xmlns="http://www.w3.org/2000/svg">
<path d="M14.38 9.15C14.38 8.45 14.24 7.8 13.96 7.2C13.68 6.6 13.29 6.08 12.79 5.64C12.31 5.22 11.73 4.88 11.05 4.62C10.39 4.38 9.67 4.26 8.89 4.26C8.11 4.26 7.38 4.38 6.7 4.62C6.04 4.88 5.46 5.22 4.96 5.64C4.48 6.08 4.1 6.6 3.82 7.2C3.54 7.8 3.4 8.45 3.4 9.15C3.4 9.85 3.54 10.5 3.82 11.1C4.1 11.7 4.48 12.21 4.96 12.63C5.46 13.07 6.04 13.41 6.7 13.65C7.38 13.91 8.11 14.04 8.89 14.04C9.67 14.04 10.39 13.91 11.05 13.65C11.73 13.41 12.31 13.07 12.79 12.63C13.29 12.21 13.68 11.7 13.96 11.1C14.24 10.5 14.38 9.85 14.38 9.15ZM16.96 9.15C16.96 10.31 16.76 11.39 16.36 12.39C15.96 13.41 15.4 14.29 14.68 15.03C13.96 15.79 13.11 16.38 12.13 16.8C11.15 17.24 10.07 17.46 8.89 17.46C7.71 17.46 6.63 17.24 5.65 16.8C4.67 16.38 3.82 15.79 3.1 15.03C2.4 14.29 1.86 13.41 1.48 12.39C1.1 11.39 0.91 10.31 0.91 9.15C0.91 7.99 1.1 6.9 1.48 5.88C1.86 4.88 2.4 4 3.1 3.24C3.82 2.5 4.67 1.91 5.65 1.47C6.63 1.05 7.71 0.84 8.89 0.84C10.07 0.84 11.15 1.05 12.13 1.47C13.11 1.91 13.96 2.5 14.68 3.24C15.4 4 15.96 4.88 16.36 5.88C16.76 6.9 16.96 7.99 16.96 9.15ZM1.36 25.2098C1.36 25.4098 1.41 25.5798 1.51 25.7198C1.63 25.8798 1.86 25.9598 2.2 25.9598L12.22 25.9598C12.22 25.8198 12.21 25.6498 12.19 25.4498C12.17 25.2698 12.13 25.0898 12.07 24.9098C12.03 24.7298 11.96 24.5598 11.86 24.3998C11.78 24.2598 11.66 24.1598 11.5 24.0998L11.5 23.7398L15.28 23.7398L15.28 24.0998C15.1 24.0998 14.97 24.1898 14.89 24.3698C14.83 24.5498 14.8 24.7198 14.8 24.8798C14.8 25.2198 14.9 25.4998 15.1 25.7198C15.32 25.9598 15.58 26.0798 15.88 26.0798C16.16 26.0798 16.34 26.0098 16.42 25.8698C16.5 25.7498 16.56 25.5798 16.6 25.3598L16.96 25.3598L16.96 30.2198L16.6 30.2198C16.56 29.9798 16.49 29.7798 16.39 29.6198C16.29 29.4598 16.14 29.3798 15.94 29.3798L2.2 29.3798C1.86 29.3798 1.63 29.4598 1.51 29.6198C1.41 29.7798 1.36 29.9598 1.36 30.1598L0.999999 30.1598L0.999999 25.2098L1.36 25.2098Z" fill="white"/>
</svg>
