<svg width="17" height="35" viewBox="0 0 17 35" fill="none" xmlns="http://www.w3.org/2000/svg">
<path d="M14.38 9.15C14.38 8.45 14.24 7.8 13.96 7.2C13.68 6.6 13.29 6.08 12.79 5.64C12.31 5.22 11.73 4.88 11.05 4.62C10.39 4.38 9.67 4.26 8.89 4.26C8.11 4.26 7.38 4.38 6.7 4.62C6.04 4.88 5.46 5.22 4.96 5.64C4.48 6.08 4.1 6.6 3.82 7.2C3.54 7.8 3.4 8.45 3.4 9.15C3.4 9.85 3.54 10.5 3.82 11.1C4.1 11.7 4.48 12.21 4.96 12.63C5.46 13.07 6.04 13.41 6.7 13.65C7.38 13.91 8.11 14.04 8.89 14.04C9.67 14.04 10.39 13.91 11.05 13.65C11.73 13.41 12.31 13.07 12.79 12.63C13.29 12.21 13.68 11.7 13.96 11.1C14.24 10.5 14.38 9.85 14.38 9.15ZM16.96 9.15C16.96 10.31 16.76 11.39 16.36 12.39C15.96 13.41 15.4 14.29 14.68 15.03C13.96 15.79 13.11 16.38 12.13 16.8C11.15 17.24 10.07 17.46 8.89 17.46C7.71 17.46 6.63 17.24 5.65 16.8C4.67 16.38 3.82 15.79 3.1 15.03C2.4 14.29 1.86 13.41 1.48 12.39C1.1 11.39 0.91 10.31 0.91 9.15C0.91 7.99 1.1 6.9 1.48 5.88C1.86 4.88 2.4 4 3.1 3.24C3.82 2.5 4.67 1.91 5.65 1.47C6.63 1.05 7.71 0.84 8.89 0.84C10.07 0.84 11.15 1.05 12.13 1.47C13.11 1.91 13.96 2.5 14.68 3.24C15.4 4 15.96 4.88 16.36 5.88C16.76 6.9 16.96 7.99 16.96 9.15ZM8.92 27.7298C8.92 26.5898 8.67 25.6698 8.17 24.9698C7.67 24.2698 7 23.9198 6.16 23.9198C5.32 23.9198 4.65 24.2698 4.15 24.9698C3.65 25.6698 3.4 26.5898 3.4 27.7298C3.4 28.8698 3.65 29.7898 4.15 30.4898C4.65 31.1898 5.32 31.5398 6.16 31.5398C7 31.5398 7.67 31.1898 8.17 30.4898C8.67 29.7898 8.92 28.8698 8.92 27.7298ZM12.25 33.2498L12.37 32.8898C12.47 32.8498 12.56 32.8198 12.64 32.7998C12.74 32.7798 12.84 32.7298 12.94 32.6498C13.24 32.4498 13.49 32.1598 13.69 31.7798C13.89 31.3998 14.05 30.9998 14.17 30.5798C14.29 30.1598 14.37 29.7498 14.41 29.3498C14.47 28.9698 14.5 28.6598 14.5 28.4198C14.5 26.8998 14.11 25.6998 13.33 24.8198C12.57 23.9598 11.41 23.4998 9.85 23.4398C10.35 24.3798 10.73 25.2698 10.99 26.1098C11.25 26.9498 11.38 27.9098 11.38 28.9898C11.38 29.7298 11.27 30.4498 11.05 31.1498C10.85 31.8698 10.54 32.5098 10.12 33.0698C9.7 33.6298 9.18 34.0798 8.56 34.4198C7.96 34.7798 7.25 34.9598 6.43 34.9598C5.49 34.9598 4.67 34.7298 3.97 34.2698C3.27 33.8098 2.69 33.2298 2.23 32.5298C1.77 31.8298 1.43 31.0498 1.21 30.1898C1.01 29.3298 0.909999 28.4898 0.909999 27.6698C0.909999 26.4698 1.08 25.3998 1.42 24.4598C1.76 23.5198 2.26 22.7198 2.92 22.0598C3.6 21.3998 4.42 20.8898 5.38 20.5298C6.34 20.1898 7.41 20.0198 8.59 20.0198C9.79 20.0198 10.9 20.2298 11.92 20.6498C12.96 21.0698 13.85 21.6498 14.59 22.3898C15.33 23.1498 15.91 24.0398 16.33 25.0598C16.75 26.0998 16.96 27.2198 16.96 28.4198C16.96 29.3798 16.89 30.1798 16.75 30.8198C16.61 31.4598 16.45 31.9998 16.27 32.4398C16.09 32.8998 15.93 33.2598 15.79 33.5198C15.65 33.7998 15.58 34.0198 15.58 34.1798C15.58 34.2998 15.59 34.4098 15.61 34.5098C15.63 34.6298 15.66 34.7098 15.7 34.7498L15.49 34.9898L12.25 33.2498Z" fill="white"/>
</svg>
