<svg width="18" height="36" viewBox="0 0 18 36" fill="none" xmlns="http://www.w3.org/2000/svg">
<path d="M14.38 9.15C14.38 8.45 14.24 7.8 13.96 7.2C13.68 6.6 13.29 6.08 12.79 5.64C12.31 5.22 11.73 4.88 11.05 4.62C10.39 4.38 9.67 4.26 8.89 4.26C8.11 4.26 7.38 4.38 6.7 4.62C6.04 4.88 5.46 5.22 4.96 5.64C4.48 6.08 4.1 6.6 3.82 7.2C3.54 7.8 3.4 8.45 3.4 9.15C3.4 9.85 3.54 10.5 3.82 11.1C4.1 11.7 4.48 12.21 4.96 12.63C5.46 13.07 6.04 13.41 6.7 13.65C7.38 13.91 8.11 14.04 8.89 14.04C9.67 14.04 10.39 13.91 11.05 13.65C11.73 13.41 12.31 13.07 12.79 12.63C13.29 12.21 13.68 11.7 13.96 11.1C14.24 10.5 14.38 9.85 14.38 9.15ZM16.96 9.15C16.96 10.31 16.76 11.39 16.36 12.39C15.96 13.41 15.4 14.29 14.68 15.03C13.96 15.79 13.11 16.38 12.13 16.8C11.15 17.24 10.07 17.46 8.89 17.46C7.71 17.46 6.63 17.24 5.65 16.8C4.67 16.38 3.82 15.79 3.1 15.03C2.4 14.29 1.86 13.41 1.48 12.39C1.1 11.39 0.91 10.31 0.91 9.15C0.91 7.99 1.1 6.9 1.48 5.88C1.86 4.88 2.4 4 3.1 3.24C3.82 2.5 4.67 1.91 5.65 1.47C6.63 1.05 7.71 0.84 8.89 0.84C10.07 0.84 11.15 1.05 12.13 1.47C13.11 1.91 13.96 2.5 14.68 3.24C15.4 4 15.96 4.88 16.36 5.88C16.76 6.9 16.96 7.99 16.96 9.15ZM6.25 22.3298C6.21 22.3298 6.16 22.3198 6.1 22.2998C6.04 22.2998 5.98 22.2998 5.92 22.2998C5.66 22.2998 5.38 22.4598 5.08 22.7798C4.78 23.1198 4.5 23.5398 4.24 24.0398C4 24.5598 3.8 25.1398 3.64 25.7798C3.48 26.4198 3.4 27.0498 3.4 27.6698C3.4 28.1298 3.44 28.5998 3.52 29.0798C3.62 29.5598 3.78 29.9998 4 30.3998C4.22 30.7998 4.52 31.1298 4.9 31.3898C5.28 31.6498 5.75 31.7798 6.31 31.7798C6.89 31.7798 7.36 31.6398 7.72 31.3598C8.1 31.0998 8.4 30.7598 8.62 30.3398C8.84 29.9398 8.99 29.4898 9.07 28.9898C9.17 28.4898 9.22 28.0098 9.22 27.5498C9.22 27.3498 9.2 27.0498 9.16 26.6498C9.12 26.2498 9.04 25.8498 8.92 25.4498C8.82 25.0498 8.68 24.6998 8.5 24.3998C8.32 24.1198 8.08 23.9798 7.78 23.9798C7.68 23.9798 7.58 24.0098 7.48 24.0698L7.24 23.8898L10.9 20.1698C11.08 20.4098 11.21 20.5698 11.29 20.6498C11.39 20.7498 11.54 20.7998 11.74 20.7998L15.88 20.7998C16.24 20.7998 16.42 20.6098 16.42 20.2298L16.78 20.2298L16.78 32.5598C16.78 32.7798 16.81 32.9798 16.87 33.1598C16.93 33.3598 17.08 33.4598 17.32 33.4598L17.32 33.8198L13.27 33.8198L13.27 33.4598C13.61 33.4598 13.82 33.3598 13.9 33.1598C13.98 32.9798 14.02 32.7798 14.02 32.5598L14.02 23.5598L10.75 23.5598C11.03 24.3198 11.24 25.0698 11.38 25.8098C11.54 26.5698 11.62 27.3698 11.62 28.2098C11.62 28.9898 11.52 29.7798 11.32 30.5798C11.14 31.3998 10.84 32.1398 10.42 32.7998C10 33.4798 9.46 34.0298 8.8 34.4498C8.16 34.8698 7.39 35.0798 6.49 35.0798C5.45 35.0798 4.57 34.8298 3.85 34.3298C3.13 33.8498 2.54 33.2298 2.08 32.4698C1.64 31.7098 1.33 30.8698 1.15 29.9498C0.989999 29.0298 0.909999 28.1398 0.909999 27.2798C0.909999 26.1798 1.01 25.2398 1.21 24.4598C1.43 23.6998 1.69 23.0398 1.99 22.4798C2.35 21.7998 2.63 21.3398 2.83 21.0998C3.05 20.8598 3.16 20.6598 3.16 20.4998C3.16 20.4598 3.15 20.3998 3.13 20.3198C3.13 20.2398 3.12 20.1498 3.1 20.0498L3.4 19.6898L6.52 22.0598L6.25 22.3298Z" fill="white"/>
</svg>
