<svg width="17" height="35" viewBox="0 0 17 35" fill="none" xmlns="http://www.w3.org/2000/svg">
<path d="M14.38 9.15C14.38 8.45 14.24 7.8 13.96 7.2C13.68 6.6 13.29 6.08 12.79 5.64C12.31 5.22 11.73 4.88 11.05 4.62C10.39 4.38 9.67 4.26 8.89 4.26C8.11 4.26 7.38 4.38 6.7 4.62C6.04 4.88 5.46 5.22 4.96 5.64C4.48 6.08 4.1 6.6 3.82 7.2C3.54 7.8 3.4 8.45 3.4 9.15C3.4 9.85 3.54 10.5 3.82 11.1C4.1 11.7 4.48 12.21 4.96 12.63C5.46 13.07 6.04 13.41 6.7 13.65C7.38 13.91 8.11 14.04 8.89 14.04C9.67 14.04 10.39 13.91 11.05 13.65C11.73 13.41 12.31 13.07 12.79 12.63C13.29 12.21 13.68 11.7 13.96 11.1C14.24 10.5 14.38 9.85 14.38 9.15ZM16.96 9.15C16.96 10.31 16.76 11.39 16.36 12.39C15.96 13.41 15.4 14.29 14.68 15.03C13.96 15.79 13.11 16.38 12.13 16.8C11.15 17.24 10.07 17.46 8.89 17.46C7.71 17.46 6.63 17.24 5.65 16.8C4.67 16.38 3.82 15.79 3.1 15.03C2.4 14.29 1.86 13.41 1.48 12.39C1.1 11.39 0.91 10.31 0.91 9.15C0.91 7.99 1.1 6.9 1.48 5.88C1.86 4.88 2.4 4 3.1 3.24C3.82 2.5 4.67 1.91 5.65 1.47C6.63 1.05 7.71 0.84 8.89 0.84C10.07 0.84 11.15 1.05 12.13 1.47C13.11 1.91 13.96 2.5 14.68 3.24C15.4 4 15.96 4.88 16.36 5.88C16.76 6.9 16.96 7.99 16.96 9.15ZM13.72 29.3798L6.28 22.5998L6.28 29.3798L13.72 29.3798ZM3.7 20.6198C3.7 20.2798 3.65 20.0198 3.55 19.8398C3.47 19.6798 3.3 19.5998 3.04 19.5998L3.04 19.2398L6.4 19.2398L14.77 26.9498C15.01 27.1698 15.23 27.3698 15.43 27.5498C15.65 27.7298 15.82 27.8198 15.94 27.8198C16.1 27.8198 16.2 27.7598 16.24 27.6398C16.3 27.5198 16.36 27.4098 16.42 27.3098L16.78 27.3098L16.78 33.1298L16.42 33.1298C16.42 32.9498 16.37 32.7998 16.27 32.6798C16.17 32.5598 16.03 32.4998 15.85 32.4998L6.28 32.4998L6.28 33.4598C6.28 33.7198 6.32 33.9198 6.4 34.0598C6.48 34.2198 6.68 34.2998 7 34.2998L7 34.6598L2.95 34.6598L2.95 34.2998C3.29 34.2998 3.5 34.2198 3.58 34.0598C3.66 33.9198 3.7 33.7198 3.7 33.4598L3.7 32.4998L2.2 32.4998C1.86 32.4998 1.63 32.5598 1.51 32.6798C1.41 32.8198 1.36 32.9598 1.36 33.0998L0.999999 33.0998L0.999999 28.5698L1.36 28.5698C1.36 28.7898 1.41 28.9798 1.51 29.1398C1.63 29.2998 1.86 29.3798 2.2 29.3798L3.7 29.3798L3.7 20.6198Z" fill="white"/>
</svg>
