<svg width="17" height="35" viewBox="0 0 17 35" fill="none" xmlns="http://www.w3.org/2000/svg">
<path d="M14.38 9.15C14.38 8.45 14.24 7.8 13.96 7.2C13.68 6.6 13.29 6.08 12.79 5.64C12.31 5.22 11.73 4.88 11.05 4.62C10.39 4.38 9.67 4.26 8.89 4.26C8.11 4.26 7.38 4.38 6.7 4.62C6.04 4.88 5.46 5.22 4.96 5.64C4.48 6.08 4.1 6.6 3.82 7.2C3.54 7.8 3.4 8.45 3.4 9.15C3.4 9.85 3.54 10.5 3.82 11.1C4.1 11.7 4.48 12.21 4.96 12.63C5.46 13.07 6.04 13.41 6.7 13.65C7.38 13.91 8.11 14.04 8.89 14.04C9.67 14.04 10.39 13.91 11.05 13.65C11.73 13.41 12.31 13.07 12.79 12.63C13.29 12.21 13.68 11.7 13.96 11.1C14.24 10.5 14.38 9.85 14.38 9.15ZM16.96 9.15C16.96 10.31 16.76 11.39 16.36 12.39C15.96 13.41 15.4 14.29 14.68 15.03C13.96 15.79 13.11 16.38 12.13 16.8C11.15 17.24 10.07 17.46 8.89 17.46C7.71 17.46 6.63 17.24 5.65 16.8C4.67 16.38 3.82 15.79 3.1 15.03C2.4 14.29 1.86 13.41 1.48 12.39C1.1 11.39 0.91 10.31 0.91 9.15C0.91 7.99 1.1 6.9 1.48 5.88C1.86 4.88 2.4 4 3.1 3.24C3.82 2.5 4.67 1.91 5.65 1.47C6.63 1.05 7.71 0.84 8.89 0.84C10.07 0.84 11.15 1.05 12.13 1.47C13.11 1.91 13.96 2.5 14.68 3.24C15.4 4 15.96 4.88 16.36 5.88C16.76 6.9 16.96 7.99 16.96 9.15ZM0.609998 34.7798L0.609998 34.4198C0.829998 34.4198 0.949998 34.3198 0.969999 34.1198C0.989999 33.9398 0.999999 33.7398 0.999999 33.5198L0.999999 20.8898C0.999999 20.6698 0.989999 20.4898 0.969999 20.3498C0.929999 20.2098 0.819999 20.1398 0.639999 20.1398L0.639999 19.7798L1.72 19.7798C2.78 19.7798 3.69 20.0398 4.45 20.5598C5.21 21.0998 5.88 21.7698 6.46 22.5698C7.04 23.3698 7.55 24.2298 7.99 25.1498C8.43 26.0698 8.86 26.9298 9.28 27.7298C9.72 28.5298 10.17 29.1898 10.63 29.7098C11.09 30.2498 11.63 30.5198 12.25 30.5198C12.67 30.5198 13.01 30.4198 13.27 30.2198C13.55 30.0398 13.77 29.7998 13.93 29.4998C14.11 29.1998 14.23 28.8698 14.29 28.5098C14.35 28.1498 14.38 27.7998 14.38 27.4598C14.38 27.1198 14.32 26.6998 14.2 26.1998C14.08 25.6998 13.9 25.2198 13.66 24.7598C13.42 24.2998 13.13 23.8998 12.79 23.5598C12.47 23.2398 12.1 23.0798 11.68 23.0798C11.58 23.0798 11.45 23.0998 11.29 23.1398C11.13 23.1998 11.02 23.2698 10.96 23.3498L10.75 23.0498L14.05 19.9598L14.26 20.2598C14.22 20.3398 14.18 20.4198 14.14 20.4998C14.1 20.5798 14.08 20.6698 14.08 20.7698C14.08 20.8898 14.23 21.1098 14.53 21.4298C14.83 21.7498 15.16 22.1898 15.52 22.7498C15.88 23.3098 16.21 24.0098 16.51 24.8498C16.81 25.6898 16.96 26.6898 16.96 27.8498C16.96 28.6098 16.87 29.3498 16.69 30.0698C16.51 30.8098 16.22 31.4598 15.82 32.0198C15.44 32.5998 14.94 33.0598 14.32 33.3998C13.72 33.7598 12.98 33.9398 12.1 33.9398C11.16 33.9398 10.38 33.7598 9.76 33.3998C9.14 33.0398 8.61 32.5598 8.17 31.9598C7.75 31.3798 7.39 30.7198 7.09 29.9798C6.79 29.2398 6.49 28.4798 6.19 27.6998C5.91 26.9398 5.61 26.1998 5.29 25.4798C4.97 24.7798 4.56 24.1598 4.06 23.6198L3.76 23.6198L3.76 33.5198C3.76 33.7398 3.8 33.9398 3.88 34.1198C3.96 34.3198 4.2 34.4198 4.6 34.4198L4.6 34.7798L0.609998 34.7798Z" fill="white"/>
</svg>
