<?xml version="1.0" encoding="UTF-8"?>
<svg id="_レイヤー_2" data-name="レイヤー 2" xmlns="http://www.w3.org/2000/svg" viewBox="0 0 565 565">
  <defs>
    <style>
      .cls-1 {
        fill: #ba4d3c;
      }

      .cls-2 {
        fill: #630f0f;
      }

      .cls-3, .cls-4 {
        fill: #263238;
      }

      .cls-5, .cls-6, .cls-7, .cls-8, .cls-9, .cls-10 {
        fill: #407bff;
      }

      .cls-5, .cls-6, .cls-4, .cls-8, .cls-11, .cls-12, .cls-13, .cls-14, .cls-9, .cls-15, .cls-10, .cls-16 {
        isolation: isolate;
      }

      .cls-5, .cls-13 {
        opacity: .3;
      }

      .cls-17, .cls-11, .cls-15, .cls-16 {
        fill: #fff;
      }

      .cls-18 {
        fill: #ce7a63;
      }

      .cls-6, .cls-11 {
        opacity: .7;
      }

      .cls-19 {
        fill: #b65b52;
      }

      .cls-20 {
        fill: none;
        stroke: #fff;
        stroke-miterlimit: 10;
      }

      .cls-21 {
        fill: #e0e0e0;
      }

      .cls-4, .cls-14, .cls-15 {
        opacity: .2;
      }

      .cls-22 {
        fill: #a02724;
      }

      .cls-8 {
        opacity: .4;
      }

      .cls-23 {
        fill: #7f3e3b;
      }

      .cls-12 {
        opacity: .15;
      }

      .cls-24 {
        fill: #ffb573;
      }

      .cls-25 {
        fill: #b55b52;
      }

      .cls-9 {
        opacity: .5;
      }

      .cls-26 {
        fill: #ebebeb;
      }

      .cls-27 {
        fill: #f5f5f5;
      }

      .cls-28 {
        fill: #ed893e;
      }

      .cls-10 {
        opacity: .6;
      }

      .cls-16 {
        opacity: .1;
      }
    </style>
  </defs>
  <g id="_レイヤー_1-2" data-name="レイヤー 1">
    <rect class="cls-20" x=".5" y=".5" width="564" height="564"/>
    <g>
      <g id="Background_Complete" data-name="Background Complete">
        <g>
          <path class="cls-26" d="M271.12,439.19H101.92c-2.76,0-5-2.24-5-5V102.38c0-2.76,2.24-5,5-5h169.2c2.76,0,5,2.24,5,5v331.81c0,2.76-2.24,5-5,5ZM101.92,97.6c-2.64,0-4.78,2.14-4.78,4.78v331.81c0,2.64,2.14,4.78,4.78,4.78h169.2c2.64,0,4.78-2.14,4.78-4.78V102.38c0-2.64-2.14-4.78-4.78-4.78H101.92Z"/>
          <path class="cls-26" d="M460.64,439.19h-169.2c-2.76,0-5-2.24-5-5V102.38c0-2.76,2.24-5,5-5h169.2c2.76,0,5,2.24,5,5v331.81c0,2.76-2.24,5-5,5ZM291.45,97.6c-2.64,0-4.78,2.14-4.78,4.78v331.81c0,2.64,2.14,4.78,4.78,4.78h169.2c2.64,0,4.78-2.14,4.78-4.78V102.38c0-2.64-2.14-4.78-4.78-4.78h-169.2Z"/>
        </g>
        <g>
          <path class="cls-26" d="M343.03,83.76c2.19-2.16,2.16-3.34-4.9-1.72-7.06,1.62-5.27-.28-3.72-3.01,1.55-2.73-7.2-1.05-13.26,2.08-6.06,3.13-3.99.03-12.02,2.97-7.48,2.74-4.51,3.88-4.51,3.88h41.39c7.41-3.08-5.17-2.04-2.98-4.2Z"/>
          <polygon class="cls-26" points="298.86 162.75 198.43 182.78 198.43 194.34 201.06 194.34 201.06 487.34 296.23 487.34 296.23 194.34 298.86 194.34 298.86 162.75"/>
          <g>
            <rect class="cls-27" x="279.94" y="227.85" width="87.47" height="259.49"/>
            <rect class="cls-21" x="277.52" y="219.93" width="92.3" height="10.15"/>
            <rect class="cls-26" x="291.02" y="243.18" width="14.06" height="28.4"/>
            <rect class="cls-26" x="316.65" y="243.18" width="14.06" height="28.4"/>
            <rect class="cls-26" x="342.27" y="243.18" width="14.06" height="28.4"/>
            <rect class="cls-26" x="291.02" y="288.02" width="14.06" height="28.4"/>
            <rect class="cls-26" x="316.65" y="288.02" width="14.06" height="28.4"/>
            <rect class="cls-26" x="342.27" y="288.02" width="14.06" height="28.4"/>
            <rect class="cls-26" x="291.02" y="332.86" width="14.06" height="28.4"/>
            <rect class="cls-26" x="316.65" y="332.86" width="14.06" height="28.4"/>
            <rect class="cls-26" x="342.27" y="332.86" width="14.06" height="28.4"/>
            <rect class="cls-26" x="291.02" y="377.7" width="14.06" height="28.4"/>
            <rect class="cls-26" x="316.65" y="377.7" width="14.06" height="28.4"/>
            <rect class="cls-26" x="342.27" y="377.7" width="14.06" height="28.4"/>
            <rect class="cls-26" x="291.02" y="422.54" width="14.06" height="28.4"/>
            <rect class="cls-26" x="316.65" y="422.54" width="14.06" height="28.4"/>
            <rect class="cls-26" x="342.27" y="422.54" width="14.06" height="28.4"/>
          </g>
          <path class="cls-26" d="M186.95,115.83c-7.79.96,10.58-9.5-.33-13-7.64-2.45-23.26,12.17-25.97,9.84-2.72-2.33-9.63-4.08-15.94-1.08-6.31,3-9.11,11.08-9.11,11.08h57.67c17.08-5.22,1.47-7.8-6.32-6.84Z"/>
        </g>
      </g>
      <g id="Building_1" data-name="Building 1">
        <g>
          <g>
            <rect class="cls-7" x="63.44" y="151.4" width="190.82" height="335.94"/>
            <rect class="cls-15" x="63.44" y="151.4" width="190.82" height="335.94"/>
          </g>
          <g>
            <rect class="cls-10" x="97.79" y="173.26" width="41.77" height="10.51"/>
            <rect class="cls-8" x="76.91" y="162.75" width="41.77" height="10.51"/>
          </g>
          <g>
            <rect class="cls-17" x="108.96" y="176.33" width="107" height="109.39"/>
            <rect class="cls-8" x="111.93" y="179.3" width="101.06" height="103.45"/>
            <rect class="cls-8" x="111.93" y="199.14" width="101.06" height="83.61"/>
            <rect class="cls-16" x="111.93" y="208.8" width="34.34" height="73.95"/>
            <rect class="cls-17" x="111.93" y="196.82" width="101.06" height="4.62"/>
            <g>
              <polygon class="cls-15" points="153.03 179.3 150.16 196.82 167.52 196.82 170.38 179.3 153.03 179.3"/>
              <polygon class="cls-15" points="136.97 196.82 143.4 196.82 146.26 179.3 139.83 179.3 136.97 196.82"/>
            </g>
          </g>
          <rect class="cls-3" x="63.44" y="142.26" width="198.03" height="9.15"/>
          <g>
            <rect class="cls-7" x="194" y="310.34" width="41.77" height="10.51"/>
            <rect class="cls-10" x="152.23" y="310.34" width="41.77" height="10.51"/>
            <rect class="cls-7" x="173.12" y="320.86" width="41.77" height="10.51"/>
          </g>
          <rect class="cls-10" x="63.44" y="360.63" width="15.24" height="10.51"/>
          <rect class="cls-7" x="63.44" y="371.14" width="36.13" height="10.51"/>
          <g>
            <rect class="cls-17" x="108.96" y="344.61" width="107" height="109.39"/>
            <rect class="cls-8" x="111.93" y="347.58" width="101.06" height="103.45"/>
            <rect class="cls-8" x="111.93" y="367.42" width="101.06" height="83.61"/>
            <rect class="cls-17" x="111.93" y="362.79" width="101.06" height="4.62"/>
            <g>
              <polygon class="cls-15" points="175.39 347.58 172.52 365.1 189.88 365.1 192.74 347.58 175.39 347.58"/>
              <polygon class="cls-15" points="159.33 365.1 165.76 365.1 168.63 347.58 162.19 347.58 159.33 365.1"/>
            </g>
          </g>
        </g>
      </g>
      <g id="Building_2" data-name="Building 2">
        <g>
          <g>
            <polygon class="cls-7" points="323.68 487.34 501.56 487.34 501.56 112.61 323.68 137.92 323.68 487.34"/>
            <polygon class="cls-11" points="323.68 487.34 501.56 487.34 501.56 112.61 323.68 137.92 323.68 487.34"/>
          </g>
          <rect class="cls-7" x="389.31" y="110.7" width="6.22" height=".88" transform="translate(-13 66.69) rotate(-9.56)"/>
          <rect class="cls-7" x="401.91" y="107.22" width="22.54" height=".88" transform="translate(-12.14 70.08) rotate(-9.56)"/>
          <polygon class="cls-7" points="501.56 95.48 501.56 138.6 318.93 138.6 318.93 126.18 501.56 95.48"/>
          <polygon class="cls-5" points="318.92 138.6 501.55 143.86 501.55 138.6 318.92 138.6"/>
          <g>
            <rect class="cls-17" x="430.78" y="162.85" width="57.25" height="129.1"/>
            <rect class="cls-6" x="434.28" y="166.35" width="50.24" height="122.09"/>
            <polygon class="cls-15" points="470.99 288.44 451.06 166.35 440.54 166.35 460.48 288.44 470.99 288.44"/>
            <polygon class="cls-15" points="478.26 288.44 458.32 166.35 454.36 166.35 474.29 288.44 478.26 288.44"/>
          </g>
          <g>
            <rect class="cls-17" x="430.77" y="383.67" width="57.25" height="103.67"/>
            <rect class="cls-6" x="434.28" y="387.17" width="50.24" height="100.17"/>
            <polygon class="cls-15" points="440.54 387.17 456.89 487.34 467.41 487.34 451.06 387.17 440.54 387.17"/>
            <polygon class="cls-15" points="454.35 387.17 470.7 487.34 474.67 487.34 458.32 387.17 454.35 387.17"/>
          </g>
          <g>
            <rect class="cls-17" x="342.11" y="383.67" width="70.51" height="103.67"/>
            <rect class="cls-6" x="345.73" y="387.29" width="63.26" height="100.05"/>
            <polygon class="cls-15" points="350.95 387.29 365.36 475.53 365.83 478.4 367.28 487.34 381.99 487.34 380.53 478.4 380.06 475.53 365.65 387.29 350.95 387.29"/>
            <polygon class="cls-15" points="370.27 387.29 384.68 475.53 385.15 478.4 386.6 487.34 392.15 487.34 390.7 478.4 390.22 475.53 375.82 387.29 370.27 387.29"/>
          </g>
          <g>
            <rect class="cls-3" x="315.8" y="467.24" width="105.44" height="2.87"/>
            <rect class="cls-3" x="315.8" y="485.91" width="105.44" height="1.44"/>
            <g>
              <rect class="cls-3" x="416.63" y="470.11" width="1.75" height="17.23"/>
              <rect class="cls-3" x="400.3" y="470.11" width="1.75" height="17.23"/>
              <rect class="cls-3" x="383.97" y="470.11" width="1.75" height="17.23"/>
              <rect class="cls-3" x="367.64" y="470.11" width="1.75" height="17.23"/>
              <rect class="cls-3" x="351.31" y="470.11" width="1.75" height="17.23"/>
              <rect class="cls-3" x="334.98" y="470.11" width="1.75" height="17.23"/>
              <rect class="cls-3" x="318.64" y="470.11" width="1.75" height="17.23"/>
            </g>
          </g>
          <g>
            <rect class="cls-17" x="342.11" y="162.85" width="70.51" height="177.97"/>
            <rect class="cls-9" x="345.73" y="166.47" width="63.27" height="170.72"/>
            <rect class="cls-5" x="345.73" y="166.47" width="23.92" height="170.72"/>
            <polygon class="cls-5" points="409 337.19 409 232.07 397.29 256.99 397.29 337.19 409 337.19"/>
          </g>
        </g>
      </g>
      <g id="Character_1" data-name="Character 1">
        <g>
          <path class="cls-19" d="M154.4,241.22c.54,3.23.96,6.46,1.32,9.71.2,1.62.36,3.25.5,4.88.16,1.62.24,3.31.38,4.83.31,3.03.78,6.22,1.34,9.34.56,3.13,1.17,6.31,1.83,9.41v.04c.2.88-.36,1.75-1.24,1.93-.76.16-1.51-.24-1.83-.92-1.39-3.05-2.54-6.13-3.53-9.3-.99-3.19-1.81-6.36-2.41-9.76l-1.45-9.61c-.49-3.18-.97-6.39-1.39-9.57h0c-.24-1.81,1.03-3.45,2.82-3.69,1.76-.23,3.37.98,3.66,2.71Z"/>
          <path class="cls-25" d="M159.32,277.92l2.97,2.73-4.56,1.9s-2.35-2.74-.89-4l2.48-.64Z"/>
          <path class="cls-25" d="M161.91,284.54l-1.47.36c-.68.17-1.39-.13-1.75-.73l-.96-1.62,4.56-1.9.71,1.76c.36.89-.16,1.9-1.09,2.13Z"/>
          <path class="cls-7" d="M146.04,238.92c-2.19,3.5,2.8,16.12,2.8,16.12l9.4-2.9s-.86-5.96-2.9-10.9c-2.1-5.07-6.89-6.16-9.29-2.32Z"/>
          <path class="cls-14" d="M149.64,244.76c1.44,1.16,2.75,5.78,3.19,9.05l-3.99,1.23s-1.92-4.86-2.85-9.38c1.4-.87,2.89-1.51,3.65-.9Z"/>
          <path class="cls-7" d="M126.68,234.77c2.21,16.92-1.08,34.03-1.31,37.58,3.37.37,16.06,1.76,22.97,2.51,7.45-23.63,2.47-38.13,2.47-38.13,0,0-1.42-.5-3.39-1-.62-.16-1.28-.31-1.98-.45-.38-.08-.78-.15-1.18-.22-2.57-.42-6.85-.63-9.8-.71-.62-.01-1.25-.01-1.86,0-.57.01-1.13.03-1.66.06-2.39.12-4.27.36-4.27.36Z"/>
          <path class="cls-14" d="M130.69,243.68c.18,1.63-.73,7.85-3.43,9.03.11-2.33.17-4.77.14-7.28l3.29-1.76Z"/>
          <path class="cls-25" d="M136.24,223.39c.39,3.2.59,9.02-1.77,10.96,1.59,1.83,8.47,4.36,8.47,4.36,0,0,2.22-2.22,1.33-3.65-3.45-1.09-3.18-3.7-2.39-6.1l-5.64-5.57Z"/>
          <path class="cls-14" d="M138.54,225.66l3.34,3.29c-.19.57-.35,1.15-.43,1.72-1.33-.29-3.07-1.9-3.11-3.32-.02-.71.06-1.38.2-1.7Z"/>
          <path class="cls-25" d="M135.61,218.68c.13,4.29-.02,6.8,2.07,9.07,3.15,3.41,8.49,1.61,9.64-2.62,1.04-3.81.66-10.18-3.48-12.02-4.07-1.81-8.37,1.29-8.24,5.58Z"/>
          <path class="cls-3" d="M135.91,221.48c2.08-.8,2.04-4.02,1.97-4.67,1.28-.04,3.84-1.53,5.81-.84s4.74.36,5.47-2.56c.73-2.91-2.63-4.75-5.29-4.27-2.67.47-4.75,2.43-8,1.61s-4.53,1.83-3.47,3.61c-3.31,2.45-.91,8.43,2.54,9.5,2.61.8.96-2.38.96-2.38Z"/>
          <path class="cls-3" d="M133.3,214.4c-2.35-.04-2.15-2.85-1.46-3.71-1.11.8-1.37,2.72-.84,3.43.53.71,2.29.27,2.29.27Z"/>
          <path class="cls-25" d="M133.56,222.21c.55,1.02,1.52,1.68,2.43,1.94,1.38.39,1.64-.87,1.26-2.17-.34-1.17-1.05-2.75-2.43-2.57-1.36.18-1.89,1.63-1.26,2.8Z"/>
          <path class="cls-3" d="M148.39,282.74h-14.53c-.8-5.77-.63-9.53-.63-9.53l6.96.75,8.15.89s.29,4.23.05,7.89Z"/>
          <path class="cls-3" d="M140.19,273.96s-.76,4.01-2.25,8.78h-13.94c.48-6.32,1.37-10.39,1.37-10.39l7.87.86,6.96.75Z"/>
          <path class="cls-3" d="M142.06,220.08c-.01.35.16.64.39.64.23,0,.42-.27.43-.62.01-.35-.16-.64-.39-.64-.23,0-.42.27-.43.62Z"/>
          <path class="cls-3" d="M146,220.21c-.01.35.16.64.39.64.23,0,.42-.27.43-.62.01-.35-.16-.64-.39-.64-.23,0-.42.27-.43.62Z"/>
          <path class="cls-22" d="M144.74,220.34s.73,2.03,1.57,3.03c-.63.56-1.67.26-1.67.26l.1-3.29Z"/>
          <path class="cls-3" d="M143.14,224.52c-1.32-.22-1.9-1.16-1.93-1.2-.03-.05-.01-.11.03-.14s.11-.01.14.03c0,.01.69,1.1,2.22,1.15.06,0,.1.05.1.11s-.05.1-.11.1c-.16,0-.31-.02-.45-.04Z"/>
          <path class="cls-3" d="M140.89,218.77s-.07-.02-.09-.04c-.09-.07-.1-.2-.03-.29.71-.88,1.65-.8,1.69-.79.11.01.19.11.18.22-.01.11-.11.19-.22.18h0s-.77-.06-1.33.64c-.05.06-.12.09-.19.07Z"/>
          <path class="cls-3" d="M147.87,218.25c-.07,0-.13-.03-.17-.09-.53-.74-1.26-.72-1.29-.72-.11,0-.21-.08-.21-.2,0-.11.08-.21.2-.21.04,0,.98-.03,1.64.89.07.09.04.22-.05.29-.03.03-.07.04-.11.04Z"/>
          <g>
            <path class="cls-19" d="M130.59,241.7c-.58,1.54-1.2,3.15-1.77,4.73-.58,1.59-1.17,3.18-1.71,4.77-.53,1.6-1.06,3.19-1.52,4.77-.45,1.58-.89,3.17-1.18,4.69l.03-.42c-.04,1.6-.07,3.21-.01,4.82.04,1.61.15,3.22.3,4.84.13,1.62.34,3.23.59,4.84.23,1.6.55,3.25.89,4.75l.02.09c.2.88-.36,1.75-1.23,1.94-.75.17-1.5-.22-1.82-.88-.8-1.66-1.38-3.25-1.94-4.92-.52-1.66-.99-3.34-1.38-5.05-.37-1.71-.69-3.43-.9-5.17-.23-1.74-.36-3.5-.44-5.26,0-.08,0-.15,0-.23l.02-.19c.22-1.9.57-3.68.98-5.44.4-1.76.89-3.47,1.41-5.17.52-1.7,1.06-3.38,1.65-5.04.61-1.66,1.2-3.29,1.91-4.96.71-1.66,2.63-2.44,4.3-1.73,1.62.69,2.39,2.53,1.78,4.16l-.02.04Z"/>
            <path class="cls-7" d="M126.68,234.77c-4.08.65-7.05,12.74-7.05,12.74l9.86,3.8s1.97-2.89,3.4-8.44c1.45-5.63-1.26-8.88-6.2-8.09Z"/>
            <path class="cls-25" d="M125.79,278.11l2.5,3.17-4.8,1.16s-1.88-3.08-.25-4.09l2.55-.24Z"/>
            <path class="cls-25" d="M127.3,285.05l-1.51.13c-.7.06-1.35-.35-1.61-1l-.69-1.75,4.8-1.16.42,1.85c.21.94-.45,1.85-1.41,1.93Z"/>
          </g>
        </g>
      </g>
      <g id="Character_2" data-name="Character 2">
        <g>
          <path class="cls-3" d="M185.89,222.9c-2.03-.43-2.76,2.39-2.25,3.93.51,1.54-1.73,1.91-1.06,4.28.51,1.81-2.85,2.68-.42,5.42,2.38,2.69,6.5-.23,10.54,1.14,4.04,1.36,9.31.82,10.77-1.98,1.15-2.19-1.6-3.1-.91-4.58,1.1-2.37.91-6.2-1.92-6.72,2-1.15,2.72-2.69,1.66-5.48-1.04-2.73-4.82-1.54-6.44-1.01-1.61.53-3.16,1.21-4.92.72-3.46-.95-5.6,1.15-5.05,4.27Z"/>
          <path class="cls-24" d="M204.49,244.87c1.03,1.88,2.09,3.81,3.19,5.66.56.92,1.11,1.85,1.68,2.73.28.45.58.87.88,1.28.15.2.3.42.45.6l.39.48s-.03,0-.09,0c-.06-.01-.09.02-.03.02.12,0,.48-.13.83-.35.72-.46,1.46-1.18,2.17-1.93,1.43-1.51,2.76-3.27,4.03-5.01l1.81,1.01c-.94,2.11-2.04,4.07-3.42,6-.71.95-1.47,1.88-2.54,2.74-.55.42-1.17.86-2.14,1.11-.47.12-1.08.15-1.67,0-.6-.14-1.13-.47-1.52-.83-.23-.21-.28-.28-.4-.4l-.32-.35c-.22-.23-.4-.46-.6-.69-.38-.46-.75-.93-1.09-1.39-.7-.93-1.34-1.88-1.95-2.84-1.23-1.92-2.34-3.86-3.38-5.9l3.72-1.93Z"/>
          <path class="cls-3" d="M202,240.96c1.74-.06,4.82,6.27,4.82,6.27l-4.53,5.5s-5.29-6.63-4.56-8.78c.76-2.23,1.74-2.91,4.28-2.99Z"/>
          <polygon class="cls-14" points="202.29 242.49 204.64 249.88 202.52 252.45 202.29 242.49"/>
          <path class="cls-3" d="M203.64,242.99c.09,2.59-.36,8.63-3.08,22.71l-16.62-.49c.48-6.76.61-10.93-2.21-24.91,0,0,3.51-.65,7.09-.72,2.8-.05,5.1-.07,7.55.23,1.92.23,4,.63,5.36.92,1.09.23,1.88,1.16,1.92,2.27Z"/>
          <path class="cls-24" d="M189.82,231.1c.4,2.44.75,6.91-1,8.48,0,0,1.62,3.02,5.76,4.11,3.83-1.94,1.78-3.89,1.78-3.89-2.69-.73-2.56-2.73-2.03-4.61l-4.52-4.09Z"/>
          <g>
            <polygon class="cls-21" points="194.58 243.69 194.09 242.72 191.43 243.32 194.58 243.69"/>
            <path class="cls-17" d="M194.09,242.72c-.85-.39-4.81-2.97-4.97-3.77-.69,0-1.98.44-1.98.44,0,0,.5,2.91,3.61,6.26.8-1.83,1.86-2.62,3.34-2.93Z"/>
            <polygon class="cls-21" points="194.58 243.69 194.81 242.72 196.44 242.84 194.58 243.69"/>
            <path class="cls-17" d="M194.81,242.72c1.32-.87,1-2.71.87-3.51.76.07,1.98.44,1.98.44,0,0,2.14,2.63.2,6-.64-1.73-1.73-2.35-3.05-2.93Z"/>
          </g>
          <path class="cls-14" d="M191.66,232.77l2.67,2.42c-.13.44-.23.89-.27,1.33-1.03-.18-2.42-1.36-2.5-2.44-.04-.54,0-1.06.1-1.31Z"/>
          <path class="cls-24" d="M187.96,226.44c.49,4.03.62,5.75,2.79,7.71,3.27,2.94,8.11,1.45,8.83-2.65.65-3.69-.27-9.67-4.33-11.04-4-1.35-7.79,1.95-7.29,5.98Z"/>
          <path class="cls-3" d="M188.07,220.48c2.45.82,3.91,1.77,4.14,3.91s-.96,5.98-3.1,5.68c-2.14-.3-2.86-1.57-2.86-2.96,0-1.39,1.82-6.63,1.82-6.63Z"/>
          <path class="cls-3" d="M187.35,221.64c3.26,3.03,13.12,2.69,12.88.31-.24-2.37-6.62-2.96-8.69-2.46-2.07.49-4.2,2.15-4.2,2.15Z"/>
          <path class="cls-17" d="M201.43,282.74h-10.34c-.04-.39-.09-.77-.12-1.16-.09-.77-.16-1.52-.24-2.25-.03-.27-.05-.53-.08-.81-.06-.6-.13-1.2-.18-1.78-.02-.18-.04-.37-.06-.55-.5-4.79-.91-8.54-1.08-10.09-.05-.41-.09-.67-.1-.74v-.03l2.92.1.78.03,2.97.09h.03l2.93.1.78.03.93.03h.04s.02.26.04.74c.11,2.15.45,8.72.79,16.3Z"/>
          <path class="cls-14" d="M194.32,282.74h-3.22c-.04-.39-.09-.77-.12-1.16-.09-.77-.16-1.52-.24-2.25-.03-.27-.05-.53-.08-.81-.06-.6-.13-1.2-.18-1.78-.02-.18-.04-.37-.06-.55.6-.74,1.38-.36,2.4,1.77.11.24.23.48.33.74.32.77.6,1.58.81,2.43.14.53.26,1.06.36,1.61Z"/>
          <path class="cls-3" d="M194.79,227.45c.02.33.21.59.43.57s.37-.29.35-.62c-.02-.33-.21-.59-.43-.57-.22.01-.37.29-.35.62Z"/>
          <path class="cls-3" d="M198.5,227.13c.02.33.21.59.43.57s.37-.29.35-.62c-.02-.33-.21-.59-.43-.57s-.37.29-.35.62Z"/>
          <path class="cls-3" d="M198.76,226.54l.78-.28s-.37.64-.78.28Z"/>
          <path class="cls-28" d="M197.1,227.56s.65,1.39,1.3,2.03c-.41.43-1.16.29-1.16.29l-.14-2.32Z"/>
          <path class="cls-3" d="M195.52,231.29c.15.01.32.02.49,0,.05,0,.09-.05.09-.1,0-.05-.05-.09-.1-.09-1.45.09-2.18-.88-2.19-.89-.03-.04-.09-.05-.14-.02-.04.03-.05.09-.02.14.03.04.64.85,1.87.96Z"/>
          <path class="cls-24" d="M187.09,230.22c.34.77,1,1.32,1.65,1.56.98.37,1.55-.48,1.36-1.45-.18-.87-.9-2.11-1.91-2.06-1,.05-1.48,1.07-1.09,1.95Z"/>
          <path class="cls-3" d="M193.2,226.48c.08,0,.16-.04.2-.12.36-.82,1.48-1.07,1.5-1.07.11-.02.17-.13.15-.23-.02-.1-.12-.17-.23-.15-.05.01-1.34.29-1.77,1.3-.04.1,0,.21.1.25.02,0,.04.01.06.01Z"/>
          <path class="cls-3" d="M199.49,225.14c.07,0,.13-.02.18-.08.06-.09.04-.21-.04-.27-.87-.63-1.71-.32-1.74-.31-.1.04-.15.15-.11.25s.15.15.25.11h0s.69-.24,1.38.26c.03.02.06.03.1.04Z"/>
          <path class="cls-24" d="M183.33,246.8c-1.2,1.55-2.42,3.29-3.49,5.01-1.07,1.75-2.08,3.51-2.84,5.35.08-.32.02-.23.04-.1.01.15.04.34.09.55.09.43.22.9.37,1.37.3.96.68,1.93,1.07,2.9.76,1.95,1.61,3.92,2.41,5.88l-1.81,1.01c-1.26-1.79-2.38-3.63-3.46-5.55-.52-.97-1.02-1.95-1.48-3-.23-.53-.45-1.07-.64-1.68-.1-.3-.18-.63-.24-1.02-.04-.4-.15-.86.12-1.69.76-2.17,1.69-4.23,2.83-6.16,1.13-1.95,2.34-3.76,3.81-5.55l3.23,2.66Z"/>
          <path class="cls-3" d="M181.73,240.3c-1.73.17-4.83,5.4-4.83,5.4l5.42,5.81s3.26-4.23,3-6.48c-.27-2.34-1.61-4.92-3.59-4.73Z"/>
          <path class="cls-17" d="M195.97,265.21l-.07.34-2.76,13.15-.84,4.04h-12.6c1.02-8.52,2.18-15.35,4.24-17.53h12.03Z"/>
          <path class="cls-3" d="M195.05,226.86l.78-.28s-.37.64-.78.28Z"/>
          <path class="cls-7" d="M183.72,264.23l-.47,1.48c-.06.11.07.24.26.24l17.11.51c.15,0,.28-.07.29-.16l.19-1.48c.01-.1-.11-.19-.28-.2l-16.83-.5c-.13,0-.24.04-.28.12Z"/>
          <g>
            <path class="cls-17" d="M185.93,266.17h-.45c-.09-.02-.16-.06-.15-.12l.27-1.93c0-.06.09-.1.18-.1h.45c.09.02.16.06.15.12l-.27,1.93c0,.06-.09.1-.18.1Z"/>
            <path class="cls-17" d="M199.35,266.57h-.45c-.09-.02-.16-.06-.15-.12l.27-1.93c0-.06.09-.1.18-.1h.45c.09.02.16.06.15.12l-.27,1.93c0,.06-.09.1-.18.1Z"/>
            <path class="cls-17" d="M192.64,266.37h-.45c-.09-.02-.16-.06-.15-.12l.27-1.93c0-.06.09-.1.18-.1h.45c.09.02.16.06.15.12l-.27,1.93c0,.06-.09.1-.18.1Z"/>
          </g>
          <path class="cls-24" d="M179.68,266.44l4.31,1-3.33,2.5s-2.36-1.06-2.51-2.78l1.53-.71Z"/>
          <path class="cls-24" d="M185.02,270.87l-1,.67c-.46.3-1.06.28-1.48-.07l-1.88-1.54,3.33-2.5,1.31,1.62c.46.57.33,1.41-.28,1.82Z"/>
          <path class="cls-24" d="M217.22,250.28l.53-4.39,2.84,3.05s-.8,2.46-2.5,2.79l-.87-1.45Z"/>
          <path class="cls-24" d="M221.06,244.5l.77.93c.35.42.39,1.02.09,1.48l-1.33,2.03-2.84-3.05,1.47-1.47c.52-.52,1.37-.48,1.84.08Z"/>
        </g>
      </g>
      <g id="Character_3" data-name="Character 3">
        <g>
          <path class="cls-17" d="M201.16,407.53c-7.59-6.89-21.55-7.7-30.88-6.79-9.03.88-17.16,3.65-15.9,8.35s5.55,35.81,1.95,41.94h35.15s17.28-36.61,9.69-43.5Z"/>
          <g>
            <path class="cls-3" d="M166.83,397.38c-5.66-.47-3.38,8.36-9.01,12.71,1.05,4.73,9.86,7.06,18,5.55,8.14-1.51,7.46-9.5,4.64-16.61-1.9-4.79-8.97-6.66-13.63-1.64Z"/>
            <path class="cls-23" d="M168.57,424.45c-.57.51-1,.83-1.52,1.18-.5.34-1.02.66-1.55.96-1.06.59-2.2,1.07-3.4,1.44-1.2.37-2.48.6-3.79.61-1.31.04-2.65-.17-3.91-.58l-.16-.05c-1.05-.33-1.67-1.37-1.54-2.42.19-1.49.62-2.82,1.12-4.07.49-1.25,1.11-2.4,1.75-3.52.65-1.11,1.37-2.17,2.1-3.2.76-1.02,1.52-2,2.41-2.96.49-.53,1.31-.56,1.83-.07.45.41.54,1.06.26,1.57l-.02.04c-.55,1.02-1.12,2.09-1.63,3.16-.53,1.06-1.03,2.13-1.45,3.21-.88,2.13-1.58,4.35-1.68,6.25l-1.7-2.47c.78.16,1.57.21,2.38.13.81-.08,1.63-.27,2.44-.55.82-.28,1.62-.67,2.41-1.12.39-.22.78-.46,1.15-.71.35-.24.78-.55,1.01-.74l.13-.1c1.13-.89,2.77-.7,3.66.42.86,1.09.71,2.66-.31,3.57Z"/>
            <path class="cls-23" d="M161.62,413.71l2.29-2.28-3.37-1.87s-.6,2.1-.32,3.81l1.4.33Z"/>
            <path class="cls-23" d="M164.55,408.86l-1.31-1.36c-.42-.43-1.14-.36-1.46.14l-1.24,1.92,3.37,1.87.8-1.48c.19-.36.13-.8-.15-1.1Z"/>
            <path class="cls-7" d="M161.55,412.79l4.16,1.27c.28.09.57-.09.66-.4l2.29-8.56c.08-.3-.08-.62-.36-.71l-4.16-1.27c-.28-.09-.57.09-.66.4l-2.29,8.56c-.08.3.08.62.36.71Z"/>
            <path class="cls-11" d="M161.95,412.71l4.01,1.23c.27.08.55-.09.63-.38l2.21-8.26c.08-.29-.08-.6-.35-.68l-4.01-1.23c-.27-.08-.55.09-.63.38l-2.21,8.26c-.08.29.08.6.35.68Z"/>
            <path class="cls-7" d="M157.98,445.38c-2.04,1.12-2.14,3.26-2.14,3.26-1.7,0-3.89,2.39-3.89,2.39h24.86l.16-1.76-18.99-3.89Z"/>
            <path class="cls-3" d="M182.93,417.29c2.1-.02,3.8,1.65,3.9,3.75.41,8.16-2.69,17.05-7.62,25.03-.96,1.55-1.64,2.87-2.32,3.8-.67.92-1.76,1.43-2.89,1.36-5.25-.36-10.73-.94-14.34-2-1.96-.57-2.91-2.78-2.01-4.62,2.11-4.29,5.62-10.31,5.25-11.75-1.24-4.82,2.01-5.74,1.7-9.71-.12-1.57.79-3.04,2.29-3.5.91-.28,1.96-.57,3.09-.85,2.71-.67,5.29-.96,8.44-1.28,1.59-.17,3.17-.23,4.51-.24Z"/>
            <path class="cls-7" d="M148.92,433.55c-8.03.68-12.51,17.48-12.51,17.48h22.88c-1.85-5.36-2.34-18.16-10.37-17.48Z"/>
            <path class="cls-4" d="M148.98,442.78s-2.85,5.44-3.71,8.25h2.32s-.2-2.88,1.39-8.25Z"/>
            <path class="cls-12" d="M183.03,422.5l3.78,1.83c-.21,3.7-1.09,7.51-2.47,11.27-1.29-5.92-1.31-13.1-1.31-13.1Z"/>
            <path class="cls-23" d="M186.81,419.49c1.2,3.04,2.18,6.06,2.99,9.22.41,1.58.76,3.18.99,4.86.12.84.21,1.69.25,2.59.03.9.03,1.83-.17,2.91-.42,2.09-1.48,3.79-2.65,5.15-1.18,1.38-2.51,2.47-3.88,3.45-2.78,1.91-5.67,3.34-8.8,4.42-.68.23-1.41-.13-1.64-.8-.21-.6.05-1.24.58-1.55l.06-.03c1.28-.73,2.61-1.55,3.84-2.41,1.25-.84,2.45-1.76,3.54-2.73,1.1-.96,2.1-2,2.88-3.08.8-1.08,1.29-2.21,1.44-3.23.12-.99-.06-2.48-.34-3.87-.29-1.42-.67-2.88-1.07-4.33-.84-2.9-1.85-5.84-2.88-8.67l-.02-.05c-.49-1.35.21-2.85,1.56-3.34,1.33-.48,2.8.18,3.32,1.49Z"/>
            <path class="cls-23" d="M176.14,408.14c-.12,2.8.1,7.86,2.28,9.38,0,0-3.03,4.18-6.52,4.7s-1.92-3.42-1.92-3.42c2.92-1.18,2.5-3.42,1.65-5.45l4.51-5.21Z"/>
            <path class="cls-14" d="M174.3,410.26l-2.67,3.08c.2.48.38.97.49,1.46,1.13-.34,2.72-1.64,2.66-2.87-.03-.61-.33-1.4-.47-1.67Z"/>
            <path class="cls-23" d="M178.05,403.04c-.35,4.58-.41,6.53-2.76,8.85-3.54,3.49-9.09,2.05-10.11-2.55-.92-4.14-.19-10.93,4.33-12.69,4.45-1.73,8.89,1.81,8.54,6.39Z"/>
            <path class="cls-3" d="M167.09,398.3c1.42,3.25,7.41,4.66,8.98,4.68-1.64,1.78,1.5,3.86,1.5,3.86,0,0,3.03-1.81,2.81-4.11s-1.72-6.27-5.34-7.35c-2.62-.78-6.52.54-7.95,2.92Z"/>
            <path class="cls-3" d="M164.92,401.8c1.46-2.03,5-3.07,5-3.07,0,0-1.76-1.68-2.43-1.51-2.29,1.5-2.85,3.36-2.57,4.58Z"/>
            <path class="cls-23" d="M178.96,407.03c-.3.9-1,1.58-1.7,1.92-1.06.51-1.8-.4-1.67-1.5.11-1,.81-2.46,1.95-2.51,1.13-.04,1.77,1.06,1.42,2.09Z"/>
            <path class="cls-3" d="M171.04,404.87c0,.37-.21.67-.45.67s-.44-.31-.43-.68.21-.67.45-.67c.24,0,.44.31.43.68Z"/>
            <path class="cls-3" d="M166.82,404.8c0,.37-.21.67-.45.67s-.44-.31-.43-.68c0-.37.21-.67.45-.67.24,0,.44.31.43.68Z"/>
            <path class="cls-3" d="M166.5,404.14l-.89-.27s.45.71.89.27Z"/>
            <path class="cls-2" d="M168.27,405.24s-.82,1.32-1.84,2.17c.37.57,1.23.56,1.23.56l.61-2.73Z"/>
            <path class="cls-3" d="M169.17,409.57s-.08-.04-.08-.09c0-.05.04-.09.09-.09,1.64.03,2.44-1.12,2.45-1.13.03-.04.08-.05.13-.02.04.03.05.08.02.13-.03.05-.85,1.23-2.6,1.21,0,0,0,0-.01,0Z"/>
            <path class="cls-3" d="M172.29,403.26s-.08-.03-.11-.06c-.66-.75-1.48-.64-1.49-.64-.1.02-.19-.05-.21-.15-.01-.1.05-.19.15-.21.04,0,1.03-.14,1.81.76.07.08.06.19-.02.26-.04.04-.09.05-.14.04Z"/>
            <path class="cls-3" d="M164.81,402.98s-.09-.03-.12-.06c-.06-.08-.05-.19.03-.26.92-.76,1.87-.47,1.91-.46.1.03.15.13.12.23-.03.1-.13.15-.23.12-.04-.01-.81-.23-1.57.39-.04.03-.09.05-.14.04Z"/>
            <path class="cls-3" d="M170.72,404.21l-.89-.27s.45.71.89.27Z"/>
            <path class="cls-23" d="M176.46,451.81l-3.92,1.28-.5-3.82s3.13.23,4.62,1.12l-.2,1.42Z"/>
            <path class="cls-23" d="M170.15,452.75l-.06-.82c-.08-1.12.59-2.16,1.65-2.55l.3-.11.5,3.82-1.73.2c-.33.04-.63-.21-.66-.54Z"/>
          </g>
        </g>
      </g>
      <g id="Character_4" data-name="Character 4">
        <g>
          <g>
            <g>
              <polygon class="cls-18" points="347.87 337.06 344.21 336.21 345.64 327.66 349.3 328.51 347.87 337.06"/>
              <path class="cls-3" d="M344.14,335.54l4.03,1.25c.15.05.23.18.19.33l-.77,3.24c-.08.34-.48.55-.82.44-1.4-.46-2.04-.75-3.81-1.3-1.09-.34-5.49-2.05-6.78-2.96-1.26-.89-.36-2.16.26-1.89,2.81,1.21,5.76,1.39,7.01.91.23-.09.47-.1.68-.03Z"/>
              <polygon class="cls-14" points="349.3 328.51 345.64 327.66 344.91 332.07 348.56 332.92 349.3 328.51"/>
              <g>
                <path class="cls-7" d="M356.94,241.91s-4.82,30.49-6.23,41.13c-1.55,11.65-6.97,47.39-6.97,47.39l6.63,1.83s8.43-34.69,11.02-46.01c2.81-12.29,8.95-44.33,8.95-44.33h-13.39Z"/>
                <path class="cls-13" d="M356.94,241.91s-4.82,30.49-6.23,41.13c-1.55,11.65-6.97,47.39-6.97,47.39l6.63,1.83s8.43-34.69,11.02-46.01c2.81-12.29,8.95-44.33,8.95-44.33h-13.39Z"/>
              </g>
              <path class="cls-13" d="M364.8,252.62c-2.54,6.46-2.39,19.24-1.3,23.74,1.53-7.39,3.28-16.23,4.62-23.11-.52-1.76-1.78-4.56-3.32-.63Z"/>
              <polygon class="cls-7" points="350.53 332.38 343.43 330.43 343.54 327.54 351.54 330.3 350.53 332.38"/>
              <path class="cls-7" d="M342.68,335.77c.33.1.72.15.99.17.03,0,.07-.02.08-.05.02-.03.01-.07,0-.09-.09-.11-.9-1.12-1.39-1.09-.11,0-.21.07-.27.18-.1.18-.11.34-.03.48.1.18.34.31.62.4ZM343.48,335.75c-.68-.07-1.15-.24-1.26-.45-.05-.09-.04-.19.03-.32.03-.06.07-.08.13-.09.26-.02.77.47,1.1.86Z"/>
              <path class="cls-7" d="M343.66,335.94s.03,0,.04,0c.03,0,.05-.03.06-.05.02-.04.41-1.05.15-1.51-.07-.12-.18-.2-.32-.23-.17-.03-.31.03-.38.16-.2.36.11,1.28.4,1.6.01.01.02.02.04.03ZM343.6,334.34c.07.02.12.06.16.13.15.27,0,.87-.11,1.21-.23-.36-.42-1.04-.28-1.28.02-.05.07-.1.2-.07.01,0,.03,0,.04,0Z"/>
            </g>
            <path class="cls-18" d="M361.02,215.11c-.72,2.28-1.56,4.4-2.54,6.54-.97,2.13-2.06,4.23-3.48,6.27-.17.25-.36.51-.56.76-.21.27-.35.47-.63.79-.52.61-1.17,1.17-1.9,1.59-1.47.87-3.16,1.11-4.58.98-1.44-.13-2.71-.55-3.87-1.09-1.16-.56-2.17-1.18-3.19-2.01l1.52-2.37c1.85.71,4,1.23,5.62,1.07.81-.09,1.42-.34,1.84-.7.21-.19.41-.39.58-.66.09-.12.25-.39.37-.57.13-.2.26-.41.38-.63,1.01-1.74,1.89-3.7,2.73-5.68.81-1.98,1.6-4.06,2.3-6.04l5.4,1.75Z"/>
            <path class="cls-17" d="M358.15,209.51c3.72-.86,5.98,1.51,4.86,6.16-.61,2.57-1.72,5.67-2.54,7.85-.22.58-.42,1.09-.58,1.51l-8.45-4.71c.93-3.7,4.22-10.23,6.71-10.81Z"/>
            <path class="cls-14" d="M357.99,213.92c2.25-2-.05,6.12-.99,9.5l-2.48-1.38c.25-2.34,1.75-6.58,3.48-8.11Z"/>
            <g>
              <polygon class="cls-18" points="375.68 336.99 371.93 336.99 371.38 328.32 375.12 328.32 375.68 336.99"/>
              <path class="cls-3" d="M371.73,336.56h4.21c.15,0,.27.11.28.26l.23,3.33c.02.35-.3.67-.65.67-2.55,0-2.17-.11-4.02-.11-1.14,0-5.74.12-7.31.12s-1.78-1.55-1.12-1.7c2.98-.63,6.68-1.5,7.73-2.33.19-.15.42-.23.64-.23Z"/>
              <polygon class="cls-14" points="375.12 328.32 371.38 328.32 371.66 332.79 375.41 332.79 375.12 328.32"/>
              <g>
                <path class="cls-7" d="M364.25,241.91s-.13,28.43.56,39.16c.76,11.74,5.23,50.65,5.23,50.65h6.86s-1.34-37.96-1.02-49.58c.35-12.62,1.08-40.22,1.08-40.22h-12.72Z"/>
                <path class="cls-13" d="M364.25,241.91s-.13,28.43.56,39.16c.76,11.74,5.23,50.65,5.23,50.65h6.86s-1.34-37.96-1.02-49.58c.35-12.62,1.08-40.22,1.08-40.22h-12.72Z"/>
              </g>
              <polygon class="cls-7" points="377.19 331.71 369.77 331.71 369.34 329.11 377.53 329.52 377.19 331.71"/>
              <path class="cls-7" d="M370.41,337.21c.35,0,.73-.07,1-.13.03,0,.06-.03.06-.07,0-.03,0-.07-.04-.09-.12-.08-1.19-.81-1.64-.63-.11.04-.18.13-.2.25-.04.2,0,.36.11.47.15.15.42.2.71.2ZM371.16,336.95c-.67.13-1.16.11-1.34-.06-.07-.07-.09-.17-.06-.31.01-.06.04-.1.1-.12.25-.1.87.22,1.31.5Z"/>
              <path class="cls-7" d="M371.39,337.08s.03,0,.04,0c.03-.01.04-.04.05-.07,0-.05.08-1.12-.3-1.49-.1-.1-.23-.14-.37-.12-.17.02-.28.11-.31.26-.08.41.48,1.19.86,1.41.01,0,.03.01.04.01ZM370.86,335.56c.07,0,.13.03.19.08.23.22.26.83.25,1.19-.33-.28-.7-.87-.65-1.14.01-.05.04-.11.17-.13.01,0,.03,0,.04,0Z"/>
            </g>
            <path class="cls-17" d="M356.94,241.91h20.03c.13-1.79-.33-7.61-.08-15.02.17-4.98.66-10.67,1.86-16.34.09-.4.18-.8.27-1.21,0,0-1.02-.21-2.47-.42-1.21-.18-2.73-.36-4.21-.43-2.56-.12-6.26-.2-8.51,0-1.31.12-2.58.34-3.6.54-1.3.26-2.07.49-2.07.49,0,0-4.85,11.33-1.21,32.39Z"/>
            <path class="cls-14" d="M376.89,226.89c.17-4.98.66-10.67,1.86-16.34-1.34-.12-3.63.01-3.99,2.18-.39,2.32.17,7.79,2.13,14.16Z"/>
            <path class="cls-18" d="M380.54,212.47c.83,2.76,1.54,5.51,2.19,8.3.67,2.79,1.2,5.6,1.66,8.5l.09.57c.03.31.07.64.06.91,0,.29-.02.55-.05.79-.02.26-.07.48-.11.71-.19.9-.45,1.67-.74,2.41-.57,1.48-1.27,2.8-1.99,4.09-1.5,2.55-3.11,4.92-4.96,7.19l-2.35-1.54c.6-1.24,1.22-2.51,1.79-3.77.59-1.25,1.15-2.52,1.65-3.78.52-1.25.98-2.52,1.32-3.72.17-.6.29-1.19.34-1.69.01-.12.03-.25.03-.34,0-.11,0-.2,0-.27,0-.09-.02-.11-.02-.15l-.1-.47c-.58-2.67-1.35-5.36-2.05-8.07l-2.2-8.1,5.46-1.57Z"/>
            <path class="cls-17" d="M379.02,209.34c2.5.58,4.59,6.47,5.23,11.27l-7.33,2.92c-.86-2.17-2.01-5.28-2.66-7.85-1.19-4.65,1.03-7.2,4.76-6.34Z"/>
            <path class="cls-3" d="M369.03,201.93l4.52-2.59c.72,3.04-1.36,5.32-4.52,2.59Z"/>
            <path class="cls-18" d="M364.23,208.46c2.47-.59,2.89-2.12,2.71-3.8-.04-.41-.11-.83-.21-1.25l3.08-2.58,2.26-1.89c-.61,2.74-1.28,7.74.59,9.57,0,0-2.05,3.84-6.76,4.14-2.61-2.13-1.68-4.19-1.68-4.19Z"/>
            <path class="cls-14" d="M366.73,203.41c.09.42.17.84.21,1.25,1.15-.23,2.9-1.26,3.05-2.57.05-.45-.15-.95-.18-1.26l-3.08,2.58Z"/>
            <path class="cls-3" d="M365.11,190.07l-1.1,5.66c-2.47-1.91-1.88-5.4,1.1-5.66Z"/>
            <path class="cls-18" d="M373.51,194.76c-.59,3.68-.75,5.87-2.8,7.63-3.09,2.66-7.48.64-8-3.11-.47-3.38.58-8.84,4.34-10.05,3.71-1.2,7.06,1.85,6.47,5.54Z"/>
            <path class="cls-3" d="M372.09,197.97c-2-1.09-1.15-3.36-.66-3.97-1.02.24-2.63-1.44-2.14-2.63-1.07.73-4.01.59-3.83-.41-1.68,1.65-3.93-.33-2.99-1.78-1.74-.56-1.63-2.97.02-3.16,1.66-.19,1.83.58,1.83.58,0,0-.34-2.36,2.04-2.17,2.39.19,1.97,1.83,1.97,1.83,0,0,1.14-1.56,3.09-.78,1.95.78,1.34,2.17,1.34,2.17,0,0,2.26-1.47,3.33-.16,1.07,1.31.59,2.58.59,2.58,0,0,2.86.93,1.22,3.82-1.19,2.1-2.41,2.94-3.05,4.59,1.42,2.8-3.58,3.11-2.78-.51Z"/>
            <path class="cls-18" d="M374.6,198.48c-.49.89-1.28,1.51-2,1.78-1.09.41-1.39-.99-1.01-2.11.34-1.01,1.15-2.03,2.21-1.96,1.04.08,1.37,1.27.81,2.29Z"/>
            <path class="cls-3" d="M367.8,195.4c-.03.3-.21.53-.41.52-.2-.01-.33-.27-.3-.57s.21-.53.41-.52.33.27.3.57Z"/>
            <path class="cls-3" d="M364.4,195.16c-.03.3-.21.53-.41.52-.2-.01-.33-.27-.3-.57s.21-.53.41-.52c.2.01.33.27.3.57Z"/>
            <path class="cls-1" d="M365.47,195.39s-.85,1.69-1.69,2.48c.48.54,1.41.37,1.41.37l.28-2.85Z"/>
            <path class="cls-3" d="M366.34,199.13c1.19-.06,1.81-.83,1.84-.87.03-.04.02-.09-.01-.12s-.09-.02-.12.01c0,0-.72.89-2.04.8-.05,0-.09.03-.09.08,0,.05.03.09.08.09.12,0,.24.01.35,0Z"/>
            <path class="cls-3" d="M368.96,194.38s.06,0,.08-.03c.08-.05.11-.16.06-.24-.52-.83-1.34-.84-1.37-.84-.09,0-.18.08-.18.18,0,.1.08.18.18.18.03,0,.67.02,1.07.67.04.06.1.09.16.08Z"/>
            <path class="cls-3" d="M363.05,193.89c.06,0,.11-.03.14-.08.42-.69,1.07-.73,1.08-.73.1,0,.17-.09.17-.19,0-.1-.09-.17-.19-.17h0s-.85.06-1.36.9c-.05.08-.02.19.06.24.03.02.07.03.1.03Z"/>
            <path class="cls-18" d="M375.65,243.64l-4.5.33,3.05,3.61s3.28-.95,2.63-2.59l-1.19-1.35Z"/>
            <path class="cls-18" d="M369.59,247.21l.65.71c.46.5,1.17.68,1.81.45l2.16-.78-3.05-3.61-1.15.65c-.94.53-1.14,1.79-.41,2.59Z"/>
            <path class="cls-18" d="M342.68,227.34l-2.99-2.6-.82,4.07s2.74,1.86,3.57.3l.25-1.78Z"/>
            <path class="cls-18" d="M336.75,225.53l-.19,1.31c-.08.55.22,1.08.72,1.29l1.58.68.82-4.07-1.54-.25c-.67-.11-1.3.36-1.4,1.03Z"/>
            <path class="cls-7" d="M332.29,230.12h3.78c.46,0,.84-.38.84-.84v-5.91c0-.46-.38-.84-.84-.84h-3.78c-.46,0-.84.38-.84.84v5.91c0,.46.38.84.84.84Z"/>
            <path class="cls-7" d="M336.95,229.12c-1.28,0-2.32-1.26-2.32-2.8s1.04-2.8,2.32-2.8,2.32,1.26,2.32,2.8c0,1.54-1.04,2.8-2.32,2.8ZM336.95,224.34c-.83,0-1.5.89-1.5,1.98s.67,1.98,1.5,1.98,1.5-.89,1.5-1.98c0-1.09-.67-1.98-1.5-1.98Z"/>
          </g>
          <g>
            <rect class="cls-3" x="315.8" y="340.82" width="105.44" height="5.74"/>
            <rect class="cls-3" x="315.8" y="246.36" width="105.44" height="2.87"/>
            <rect class="cls-3" x="315.8" y="265.03" width="105.44" height="1.44"/>
            <g>
              <rect class="cls-3" x="416.63" y="249.23" width="1.75" height="91.59"/>
              <rect class="cls-3" x="400.3" y="249.23" width="1.75" height="91.59"/>
              <rect class="cls-3" x="383.97" y="249.23" width="1.75" height="91.59"/>
              <rect class="cls-3" x="367.64" y="249.23" width="1.75" height="91.59"/>
              <rect class="cls-3" x="351.31" y="249.23" width="1.75" height="91.59"/>
              <rect class="cls-3" x="334.98" y="249.23" width="1.75" height="91.59"/>
              <rect class="cls-3" x="318.65" y="249.23" width="1.75" height="91.59"/>
            </g>
          </g>
        </g>
      </g>
    </g>
  </g>
</svg>