<?xml version="1.0" encoding="UTF-8"?>
<svg id="_レイヤー_2" data-name="レイヤー 2" xmlns="http://www.w3.org/2000/svg" xmlns:xlink="http://www.w3.org/1999/xlink" viewBox="0 0 500 81.72">
  <defs>
    <style>
      .cls-1 {
        fill: url(#_名称未設定グラデーション_30);
      }

      .cls-2 {
        fill: #3b3c44;
      }

      .cls-3 {
        fill: url(#_名称未設定グラデーション_37);
      }

      .cls-4 {
        fill: #00a0e9;
      }

      .cls-5 {
        fill: url(#_名称未設定グラデーション_38-2);
      }

      .cls-6 {
        fill: url(#_名称未設定グラデーション_38);
      }
    </style>
    <linearGradient id="_名称未設定グラデーション_38" data-name="名称未設定グラデーション 38" x1="8.17" y1="24.52" x2="16.34" y2="16.34" gradientUnits="userSpaceOnUse">
      <stop offset="0" stop-color="#00a0e9"/>
      <stop offset=".05" stop-color="#0099e2"/>
      <stop offset=".29" stop-color="#007dc5"/>
      <stop offset=".53" stop-color="#0069b0"/>
      <stop offset=".77" stop-color="#005da4"/>
      <stop offset="1" stop-color="#005aa0"/>
    </linearGradient>
    <linearGradient id="_名称未設定グラデーション_38-2" data-name="名称未設定グラデーション 38" x1="28.6" y1="77.63" x2="36.77" y2="69.46" xlink:href="#_名称未設定グラデーション_38"/>
    <linearGradient id="_名称未設定グラデーション_37" data-name="名称未設定グラデーション 37" x1="49.03" y1="16.34" x2="65.38" y2="16.34" gradientUnits="userSpaceOnUse">
      <stop offset="0" stop-color="#005aa0"/>
      <stop offset=".03" stop-color="#0060a6"/>
      <stop offset=".2" stop-color="#007cc3"/>
      <stop offset=".37" stop-color="#0090d8"/>
      <stop offset=".54" stop-color="#009ce4"/>
      <stop offset=".7" stop-color="#00a0e9"/>
    </linearGradient>
    <linearGradient id="_名称未設定グラデーション_30" data-name="名称未設定グラデーション 30" x1="28.6" y1="44.95" x2="44.95" y2="28.6" gradientUnits="userSpaceOnUse">
      <stop offset=".5" stop-color="#00a0e9"/>
      <stop offset=".61" stop-color="#0097e0"/>
      <stop offset=".78" stop-color="#0080c7"/>
      <stop offset="1" stop-color="#005aa0"/>
      <stop offset="1" stop-color="#005aa0"/>
    </linearGradient>
  </defs>
  <g id="final">
    <g>
      <g>
        <polygon class="cls-6" points="16.34 16.34 0 16.34 16.34 32.69 16.34 16.34"/>
        <path class="cls-4" d="M78.34,32.69c-1.23-3.48-3.22-6.61-5.78-9.16h0s-7.18-7.18-7.18-7.18L49.03,0v16.34h-16.34v49.03h-16.34l16.34,16.34h16.34v-16.34h6.19c3.62,0,7.06-.79,10.16-2.2,3.12-1.42,5.89-3.47,8.14-6,2.1-2.35,3.75-5.11,4.82-8.14.3-.85.55-1.73.76-2.62.41-1.78.64-3.64.64-5.55,0-2.87-.5-5.62-1.4-8.17ZM61.9,45.56c-1.48,2.1-3.92,3.47-6.68,3.47h-6.19v-16.34h6.19c4.51,0,8.17,3.67,8.17,8.17,0,1.75-.55,3.37-1.49,4.7Z"/>
        <polygon class="cls-5" points="32.69 65.38 16.34 65.38 32.69 81.72 49.03 81.72 32.69 65.38"/>
        <polygon class="cls-3" points="49.03 0 49.03 16.34 65.38 32.69 65.38 16.34 49.03 0"/>
        <polygon class="cls-1" points="38.91 22.56 32.69 16.34 32.69 49.03 49.03 49.03 49.03 32.69 38.91 22.56"/>
      </g>
      <g>
        <g>
          <path class="cls-2" d="M101.79,32h-8.91v-7.51h25.98v7.51h-8.96v25.23h-8.11v-25.23Z"/>
          <path class="cls-2" d="M125.06,24.49h24.18v7.51h-16.07v5.36h13.16v6.51h-13.16v5.86h16.07v7.51h-24.18V24.49Z"/>
          <path class="cls-2" d="M154.74,40.86c0-9.81,7.21-17.02,17.42-17.02,8.76,0,15.37,5.31,17.02,13.06h-8.56c-1.3-3.35-4.35-5.56-8.46-5.56-5.56,0-9.21,4-9.21,9.51s3.65,9.51,9.21,9.51c4.1,0,7.16-2.2,8.46-5.56h8.56c-1.65,7.76-8.26,13.06-17.02,13.06-10.21,0-17.42-7.21-17.42-17.02Z"/>
          <path class="cls-2" d="M195.49,24.49h8.11v12.36h12.26v-12.36h8.11v32.74h-8.11v-12.86h-12.26v12.86h-8.11V24.49Z"/>
          <path class="cls-2" d="M242.38,24.49h12.86c8.91,0,12.86,4.86,12.86,11.51s-3.95,11.56-12.86,11.56h-4.76v9.66h-8.11V24.49ZM255.39,40.06c3.45,0,4.5-1.7,4.5-4.05s-1.05-4-4.5-4h-4.91v8.06h4.91Z"/>
          <path class="cls-2" d="M274.01,24.49h13.26c8.66,0,12.51,4.71,12.51,11.21,0,4.61-1.95,8.36-6.16,10.11l7.36,11.41h-9.61l-5.81-10.26h-3.45v10.26h-8.11V24.49ZM287.38,39.46c3.25,0,4.2-1.6,4.2-3.75s-.95-3.7-4.2-3.7h-5.26v7.46h5.26Z"/>
          <path class="cls-2" d="M304.47,40.86c0-9.81,7.21-17.02,17.42-17.02s17.42,7.21,17.42,17.02-7.21,17.02-17.42,17.02-17.42-7.21-17.42-17.02ZM331.1,40.86c0-5.51-3.65-9.51-9.21-9.51s-9.21,4-9.21,9.51,3.65,9.51,9.21,9.51,9.21-4,9.21-9.51Z"/>
          <path class="cls-2" d="M345.29,24.49h12.86c8.91,0,12.86,4.86,12.86,11.51s-3.95,11.56-12.86,11.56h-4.76v9.66h-8.11V24.49ZM358.3,40.06c3.45,0,4.5-1.7,4.5-4.05s-1.05-4-4.5-4h-4.91v8.06h4.91Z"/>
          <path class="cls-2" d="M376.92,24.49h24.18v7.51h-16.07v5.36h13.16v6.51h-13.16v5.86h16.07v7.51h-24.18V24.49Z"/>
          <path class="cls-2" d="M408.25,24.49h13.26c8.66,0,12.51,4.71,12.51,11.21,0,4.61-1.95,8.36-6.16,10.11l7.36,11.41h-9.61l-5.81-10.26h-3.45v10.26h-8.11V24.49ZM421.62,39.46c3.25,0,4.2-1.6,4.2-3.75s-.95-3.7-4.2-3.7h-5.26v7.46h5.26Z"/>
          <path class="cls-2" d="M447.84,32h-8.91v-7.51h25.98v7.51h-8.96v25.23h-8.11v-25.23Z"/>
          <path class="cls-2" d="M480.13,43.66l-11.96-19.17h9.56l6.46,11.51,6.46-11.51h9.36l-11.76,18.92v13.82h-8.11v-13.56Z"/>
        </g>
        <g>
          <g>
            <path class="cls-2" d="M177.04,76.36v-.15h1.54v.15c0,2.4,1.32,3.9,3.86,3.9s3.86-1.5,3.86-3.9v-9.35h1.59v9.35c0,3.26-1.94,5.36-5.47,5.36s-5.38-2.07-5.38-5.36Z"/>
            <path class="cls-2" d="M190.82,72.9c0-3.79,2.21-6.17,6.22-6.17s6.24,2.38,6.24,6.17v8.53h-1.59v-4.85h-9.33v4.85h-1.54v-8.53ZM201.69,75.13v-2.23c0-2.91-1.59-4.72-4.67-4.72s-4.65,1.81-4.65,4.72v2.23h9.33Z"/>
            <path class="cls-2" d="M206.56,67.01h6.24c3.48,0,5.03,1.94,5.03,4.59s-1.57,4.61-5.03,4.61h-4.65v5.23h-1.59v-14.42ZM212.83,74.75c2.49,0,3.4-1.37,3.4-3.15s-.9-3.13-3.4-3.13h-4.67v6.28h4.67Z"/>
            <path class="cls-2" d="M220.08,72.9c0-3.79,2.21-6.17,6.22-6.17s6.24,2.38,6.24,6.17v8.53h-1.59v-4.85h-9.33v4.85h-1.54v-8.53ZM230.95,75.13v-2.23c0-2.91-1.59-4.72-4.67-4.72s-4.65,1.81-4.65,4.72v2.23h9.33Z"/>
            <path class="cls-2" d="M235.49,72.68c0-3.64,2.16-5.95,6.06-5.95s6.04,2.32,6.04,5.95v8.75h-1.59v-8.75c0-2.78-1.54-4.5-4.45-4.5s-4.48,1.72-4.48,4.5v8.75h-1.59v-8.75Z"/>
            <path class="cls-2" d="M256.68,74.22c0-4.32,3.18-7.5,7.67-7.5,3.62,0,6.39,2.05,7.32,5.12h-1.68c-.86-2.21-2.95-3.66-5.64-3.66-3.59,0-6.09,2.56-6.09,6.04s2.49,6.04,6.09,6.04c2.69,0,4.79-1.46,5.64-3.66h1.68c-.93,3.06-3.7,5.12-7.32,5.12-4.5,0-7.67-3.18-7.67-7.5Z"/>
            <path class="cls-2" d="M273.9,74.22c0-4.32,3.18-7.5,7.67-7.5s7.67,3.18,7.67,7.5-3.18,7.5-7.67,7.5-7.67-3.18-7.67-7.5ZM287.66,74.22c0-3.48-2.49-6.04-6.09-6.04s-6.09,2.56-6.09,6.04,2.49,6.04,6.09,6.04,6.09-2.56,6.09-6.04Z"/>
            <path class="cls-2" d="M292.14,67.01h6.37c3.4,0,4.9,1.9,4.9,4.45,0,2.38-1.28,3.97-3.64,4.41l4.17,5.56h-1.92l-3.9-5.47h-4.39v5.47h-1.59v-14.42ZM298.53,74.51c2.4,0,3.26-1.32,3.26-3.04s-.86-3-3.26-3h-4.81v6.04h4.81Z"/>
            <path class="cls-2" d="M306.69,67.01h6.24c3.48,0,5.03,1.94,5.03,4.59s-1.57,4.61-5.03,4.61h-4.65v5.23h-1.59v-14.42ZM312.95,74.75c2.49,0,3.4-1.37,3.4-3.15s-.9-3.13-3.4-3.13h-4.67v6.28h4.67Z"/>
            <path class="cls-2" d="M319.83,74.22c0-4.32,3.18-7.5,7.67-7.5s7.67,3.18,7.67,7.5-3.18,7.5-7.67,7.5-7.67-3.18-7.67-7.5ZM333.59,74.22c0-3.48-2.49-6.04-6.09-6.04s-6.09,2.56-6.09,6.04,2.49,6.04,6.09,6.04,6.09-2.56,6.09-6.04Z"/>
            <path class="cls-2" d="M338.07,67.01h6.37c3.4,0,4.9,1.9,4.9,4.45,0,2.38-1.28,3.97-3.64,4.41l4.17,5.56h-1.92l-3.9-5.47h-4.39v5.47h-1.59v-14.42ZM344.46,74.51c2.4,0,3.26-1.32,3.26-3.04s-.86-3-3.26-3h-4.81v6.04h4.81Z"/>
            <path class="cls-2" d="M352.27,72.9c0-3.79,2.21-6.17,6.22-6.17s6.24,2.38,6.24,6.17v8.53h-1.59v-4.85h-9.33v4.85h-1.54v-8.53ZM363.14,75.13v-2.23c0-2.91-1.59-4.72-4.67-4.72s-4.65,1.81-4.65,4.72v2.23h9.33Z"/>
            <path class="cls-2" d="M372.03,68.47h-4.9v-1.46h11.38v1.46h-4.9v12.97h-1.59v-12.97Z"/>
            <path class="cls-2" d="M381.31,67.01h1.59v14.42h-1.59v-14.42Z"/>
            <path class="cls-2" d="M385.83,74.22c0-4.32,3.18-7.5,7.67-7.5s7.67,3.18,7.67,7.5-3.18,7.5-7.67,7.5-7.67-3.18-7.67-7.5ZM399.59,74.22c0-3.48-2.49-6.04-6.09-6.04s-6.09,2.56-6.09,6.04,2.49,6.04,6.09,6.04,6.09-2.56,6.09-6.04Z"/>
            <path class="cls-2" d="M403.73,72.68c0-3.64,2.16-5.95,6.06-5.95s6.04,2.32,6.04,5.95v8.75h-1.59v-8.75c0-2.78-1.54-4.5-4.45-4.5s-4.48,1.72-4.48,4.5v8.75h-1.59v-8.75Z"/>
          </g>
          <rect class="cls-2" x="92.88" y="73.5" width="77.66" height="1.46"/>
          <rect class="cls-2" x="422.34" y="73.5" width="77.66" height="1.46"/>
        </g>
      </g>
    </g>
  </g>
</svg>