<?xml version="1.0" encoding="utf-8"?>
<!-- Generator: Adobe Illustrator 27.5.0, SVG Export Plug-In . SVG Version: 6.00 Build 0)  -->
<svg version="1.1" xmlns="http://www.w3.org/2000/svg" xmlns:xlink="http://www.w3.org/1999/xlink" x="0px" y="0px"
	 viewBox="0 0 500 500" style="enable-background:new 0 0 500 500;" xml:space="preserve">
<g id="Background_Complete">
	<g>
		<g>
			<g>
				<rect x="61.951" y="230.251" style="fill:#E6E6E6;" width="31.31" height="33.33"/>
				<rect x="53.931" y="230.251" style="fill:#F0F0F0;" width="8.02" height="33.33"/>
				<rect x="77.951" y="225.111" style="fill:#E6E6E6;" width="23.52" height="38.47"/>
				<rect x="71.161" y="225.111" style="fill:#F0F0F0;" width="6.8" height="38.47"/>
				<rect x="84.881" y="230.251" style="fill:#F0F0F0;" width="19.83" height="33.33"/>
				<rect x="80.351" y="230.251" style="fill:#F5F5F5;" width="4.53" height="33.33"/>
				<rect x="101.111" y="235.891" style="fill:#E6E6E6;" width="26.01" height="27.69"/>
				<rect x="94.451" y="235.891" style="fill:#F5F5F5;" width="6.66" height="27.69"/>
				<rect x="114.401" y="231.621" style="fill:#E6E6E6;" width="19.54" height="31.96"/>
				<rect x="108.761" y="231.621" style="fill:#F0F0F0;" width="5.65" height="31.96"/>
				<rect x="120.161" y="235.891" style="fill:#F0F0F0;" width="18.98" height="27.69"/>
				<rect x="116.391" y="235.891" style="fill:#F5F5F5;" width="3.76" height="27.69"/>
			</g>
			<g>
				<rect x="180.763" y="230.429" style="fill:#E6E6E6;" width="31.31" height="33.33"/>
				<rect x="172.743" y="230.429" style="fill:#F0F0F0;" width="8.02" height="33.33"/>
				<rect x="196.763" y="225.289" style="fill:#E6E6E6;" width="23.52" height="38.47"/>
				<rect x="189.973" y="225.289" style="fill:#F0F0F0;" width="6.8" height="38.47"/>
				<rect x="203.693" y="230.429" style="fill:#F0F0F0;" width="19.83" height="33.33"/>
				<rect x="199.163" y="230.429" style="fill:#F5F5F5;" width="4.53" height="33.33"/>
				<rect x="54.01" y="263.741" style="fill:#E0E0E0;" width="204" height="9.646"/>
				<rect x="219.923" y="236.069" style="fill:#E6E6E6;" width="26.01" height="27.69"/>
				<rect x="213.263" y="236.069" style="fill:#F5F5F5;" width="6.66" height="27.69"/>
				<rect x="233.213" y="231.799" style="fill:#E6E6E6;" width="19.54" height="31.96"/>
				<rect x="227.573" y="231.799" style="fill:#F0F0F0;" width="5.65" height="31.96"/>
				<rect x="238.973" y="236.069" style="fill:#F0F0F0;" width="18.98" height="27.69"/>
				<rect x="235.203" y="236.069" style="fill:#F5F5F5;" width="3.76" height="27.69"/>
			</g>
		</g>
		<g>
			<g>
				<g>
					<g>
						<path style="fill:#F0F0F0;" d="M278.843,382.282L278.843,382.282c-1.566,0-2.836-1.27-2.836-2.836V278.799h5.671v100.647
							C281.679,381.013,280.41,382.282,278.843,382.282z"/>
					</g>
					<g>
						<path style="fill:#F0F0F0;" d="M392.265,271.783h-13.04v-1.159c0-2.274,1.909-4.083,4.18-3.96l5.107,0.276
							c2.104,0.114,3.752,1.853,3.752,3.96V271.783z"/>
						<g>
							<path style="fill:#E0E0E0;" d="M369.99,244.43c-0.049-1.027-0.897-1.834-1.925-1.834h-13.177
								c-1.028,0-1.875,0.807-1.924,1.834l3.128,27.459h19.667L369.99,244.43z"/>
							<path style="fill:#E0E0E0;" d="M405.776,202.212h-4.909l-5.518,51.862h4.909c0.814,0,1.543-0.66,1.63-1.473l5.205-48.915
								C407.179,202.872,406.589,202.212,405.776,202.212z"/>
							<path style="fill:#F5F5F5;" d="M398.181,254.074h-73.583c-0.814,0-1.403-0.66-1.316-1.473l5.205-48.915
								c0.087-0.814,0.816-1.473,1.63-1.473H403.7c0.814,0,1.403,0.66,1.316,1.473l-5.205,48.915
								C399.725,253.414,398.995,254.074,398.181,254.074z"/>
							<path style="fill:#EBEBEB;" d="M396.807,249.284h-69.389c-0.71,0-1.224-0.575-1.148-1.285l4.541-42.677
								c0.075-0.71,0.712-1.285,1.422-1.285h69.389c0.71,0,1.224,0.575,1.148,1.285l-4.541,42.677
								C398.154,248.708,397.517,249.284,396.807,249.284z"/>
							<path style="fill:#E0E0E0;" d="M376.604,269.757H352.2c-0.53,0-0.959,0.429-0.959,0.959v0.215
								c0,0.53,0.429,0.959,0.959,0.959h24.404c0.53,0,0.959-0.429,0.959-0.959v-0.215
								C377.563,270.187,377.133,269.757,376.604,269.757z"/>
							<g>
								<path style="fill:#E6E6E6;" d="M327.163,249.284l20.621-17.923c1.957-1.701,4.462-1.701,5.597,0l11.949,17.923H327.163z"/>
								<path style="fill:#F5F5F5;" d="M347.784,231.361l-20.621,17.923h19.771c-1.972-0.999-6.615-1.529-6.063-3.812
									c0.719-2.97,9.913-1.931,10.595-4.752c0.683-2.822-5.875-1.931-5.049-5.346c0.434-1.795,2.131-3.739,3.65-5.194
									C349.296,230.345,348.503,230.736,347.784,231.361z"/>
							</g>
							<g>
								<path style="fill:#E6E6E6;" d="M357.504,249.284l9.141-9.042c0.867-0.858,1.978-0.858,2.481,0l5.297,9.042H357.504z"/>
								<path style="fill:#F5F5F5;" d="M366.644,240.242l-9.141,9.042h8.764c-0.874-0.504-2.932-0.771-2.687-1.923
									c0.319-1.498,4.394-0.974,4.697-2.398c0.303-1.424-2.604-0.974-2.238-2.697c0.192-0.905,0.944-1.886,1.618-2.62
									C367.315,239.729,366.963,239.926,366.644,240.242z"/>
							</g>
							<g>
								<path style="fill:#F0F0F0;" d="M373.145,249.284l12.806-9.042c1.215-0.858,2.771-0.858,3.475,0l7.421,9.042H373.145z"/>
								<path style="fill:#FAFAFA;" d="M385.951,240.242l-12.806,9.042h12.278c-1.225-0.504-4.108-0.771-3.765-1.923
									c0.446-1.498,6.156-0.974,6.58-2.398c0.424-1.424-3.649-0.974-3.135-2.697c0.27-0.905,1.323-1.886,2.266-2.62
									C386.89,239.729,386.397,239.926,385.951,240.242z"/>
							</g>
							<g>
								<path style="fill:#F0F0F0;" d="M389.196,222.204c-0.967,4.551-5.441,8.241-9.993,8.241c-4.551,0-7.457-3.69-6.489-8.241
									c0.967-4.551,5.441-8.241,9.992-8.241S390.163,217.653,389.196,222.204z"/>
								<path style="opacity:0.8;fill:#FAFAFA;" d="M389.196,222.204c-0.967,4.551-5.441,8.241-9.993,8.241
									c-4.551,0-7.457-3.69-6.489-8.241c0.967-4.551,5.441-8.241,9.992-8.241S390.163,217.653,389.196,222.204z"/>
							</g>
						</g>
						<g>
							<g>
								<path style="fill:#F5F5F5;" d="M318.921,270.048h-1.835c-0.193,0-0.35-0.157-0.35-0.35v-1.941c0-0.193,0.157-0.35,0.35-0.35
									h1.318c0.159,0,0.298,0.107,0.339,0.26l0.518,1.941C319.319,269.83,319.152,270.048,318.921,270.048z"/>
								<path style="fill:#F5F5F5;" d="M321.457,270.048h-1.835c-0.194,0-0.35-0.157-0.35-0.35v-1.941c0-0.193,0.157-0.35,0.35-0.35
									h1.317c0.159,0,0.298,0.107,0.339,0.26l0.517,1.941C321.855,269.83,321.688,270.048,321.457,270.048z"/>
								<path style="fill:#F5F5F5;" d="M323.993,270.048h-1.835c-0.193,0-0.35-0.157-0.35-0.35v-1.941c0-0.193,0.157-0.35,0.35-0.35
									h1.318c0.159,0,0.298,0.107,0.339,0.26l0.518,1.941C324.391,269.83,324.223,270.048,323.993,270.048z"/>
								<path style="fill:#F5F5F5;" d="M326.529,270.048h-1.835c-0.194,0-0.35-0.157-0.35-0.35v-1.941c0-0.193,0.157-0.35,0.35-0.35
									h1.318c0.159,0,0.297,0.107,0.338,0.26l0.518,1.941C326.927,269.83,326.759,270.048,326.529,270.048z"/>
								<path style="fill:#F5F5F5;" d="M329.065,270.048h-1.835c-0.193,0-0.35-0.157-0.35-0.35v-1.941c0-0.193,0.157-0.35,0.35-0.35
									h1.317c0.159,0,0.298,0.107,0.339,0.26l0.518,1.941C329.463,269.83,329.295,270.048,329.065,270.048z"/>
								<path style="fill:#F5F5F5;" d="M331.601,270.048h-1.835c-0.194,0-0.35-0.157-0.35-0.35v-1.941c0-0.193,0.157-0.35,0.35-0.35
									h1.318c0.159,0,0.298,0.107,0.339,0.26l0.518,1.941C331.999,269.83,331.831,270.048,331.601,270.048z"/>
								<path style="fill:#F5F5F5;" d="M334.137,270.048h-1.835c-0.194,0-0.35-0.157-0.35-0.35v-1.941c0-0.193,0.157-0.35,0.35-0.35
									h1.318c0.159,0,0.298,0.107,0.339,0.26l0.517,1.941C334.535,269.83,334.367,270.048,334.137,270.048z"/>
								<path style="fill:#F5F5F5;" d="M336.673,270.048h-1.835c-0.193,0-0.35-0.157-0.35-0.35v-1.941c0-0.193,0.157-0.35,0.35-0.35
									h1.318c0.159,0,0.298,0.107,0.339,0.26l0.518,1.941C337.071,269.83,336.903,270.048,336.673,270.048z"/>
								<path style="fill:#F5F5F5;" d="M339.209,270.048h-1.835c-0.194,0-0.35-0.157-0.35-0.35v-1.941c0-0.193,0.157-0.35,0.35-0.35
									h1.318c0.159,0,0.298,0.107,0.339,0.26l0.517,1.941C339.607,269.83,339.439,270.048,339.209,270.048z"/>
								<path style="fill:#F5F5F5;" d="M341.745,270.048h-1.835c-0.194,0-0.351-0.157-0.351-0.35v-1.941
									c0-0.193,0.157-0.35,0.351-0.35h1.317c0.159,0,0.298,0.107,0.339,0.26l0.518,1.941
									C342.143,269.83,341.975,270.048,341.745,270.048z"/>
								<path style="fill:#F5F5F5;" d="M344.281,270.048h-1.835c-0.194,0-0.35-0.157-0.35-0.35v-1.941c0-0.193,0.157-0.35,0.35-0.35
									h1.318c0.159,0,0.298,0.107,0.339,0.26l0.518,1.941C344.679,269.83,344.511,270.048,344.281,270.048z"/>
								<path style="fill:#F5F5F5;" d="M346.817,270.048h-1.835c-0.193,0-0.35-0.157-0.35-0.35v-1.941c0-0.193,0.157-0.35,0.35-0.35
									h1.318c0.159,0,0.298,0.107,0.339,0.26l0.517,1.941C347.215,269.83,347.047,270.048,346.817,270.048z"/>
								<path style="fill:#F5F5F5;" d="M349.353,270.048h-1.835c-0.194,0-0.35-0.157-0.35-0.35v-1.941c0-0.193,0.157-0.35,0.35-0.35
									h1.318c0.159,0,0.298,0.107,0.339,0.26l0.517,1.941C349.75,269.83,349.583,270.048,349.353,270.048z"/>
								<path style="fill:#F5F5F5;" d="M351.888,270.048h-1.835c-0.194,0-0.35-0.157-0.35-0.35v-1.941c0-0.193,0.157-0.35,0.35-0.35
									h1.318c0.159,0,0.298,0.107,0.338,0.26l0.518,1.941C352.286,269.83,352.119,270.048,351.888,270.048z"/>
								<path style="fill:#F5F5F5;" d="M354.424,270.048h-1.835c-0.194,0-0.35-0.157-0.35-0.35v-1.941c0-0.193,0.157-0.35,0.35-0.35
									h1.317c0.159,0,0.298,0.107,0.339,0.26l0.518,1.941C354.822,269.83,354.655,270.048,354.424,270.048z"/>
							</g>
							<rect x="315.241" y="268.728" style="fill:#EBEBEB;" width="41.03" height="3.056"/>
						</g>
						<rect x="397.943" y="271.383" style="fill:#E6E6E6;" width="49.159" height="7.416"/>
						<g>
							<path style="fill:#E6E6E6;" d="M309.506,382.282L309.506,382.282c-1.566,0-2.836-1.27-2.836-2.836V278.799h5.671v100.647
								C312.342,381.013,311.072,382.282,309.506,382.282z"/>
						</g>
						<path style="fill:#E6E6E6;" d="M440.988,382.282L440.988,382.282c-1.566,0-2.836-1.27-2.836-2.836V278.799h5.671v100.647
							C443.824,381.013,442.554,382.282,440.988,382.282z"/>
						<rect x="272.729" y="271.383" style="fill:#F0F0F0;" width="139.236" height="7.416"/>
						<path style="fill:#F0F0F0;" d="M405.851,382.282L405.851,382.282c-1.566,0-2.836-1.27-2.836-2.836V278.799h5.671v100.647
							C408.687,381.013,407.417,382.282,405.851,382.282z"/>
					</g>
				</g>
			</g>
		</g>
		<g>
			<g>
				
					<ellipse transform="matrix(0.1602 -0.9871 0.9871 0.1602 184.8083 463.034)" style="fill:#E0E0E0;" cx="364.52" cy="122.909" rx="20.447" ry="20.447"/>
				<circle style="opacity:0.8;fill:#FFFFFF;" cx="364.272" cy="122.909" r="16.409"/>
			</g>
			<g>
				<g>
					<path style="fill:#E0E0E0;" d="M365.894,124.271c0,0.919-0.745,1.664-1.664,1.664c-0.919,0-1.664-0.745-1.664-1.664
						c0-0.919,0.745-1.664,1.664-1.664C365.149,122.607,365.894,123.352,365.894,124.271z"/>
				</g>
				<g>
					<polygon style="fill:#E0E0E0;" points="364.039,124.883 356.979,118.238 357.664,117.51 364.061,123.53 375.526,113.401 
						376.188,114.15 					"/>
				</g>
			</g>
		</g>
		<g>
			<g>
				<rect x="66.506" y="103.08" style="fill:#EBEBEB;" width="163.832" height="99.83"/>
				<g>
					<g>
						<rect x="230.356" y="103.04" style="fill:#E0E0E0;" width="1.2" height="99.83"/>
					</g>
					<rect x="71.466" y="107.416" style="fill:#E0E0E0;" width="0.99" height="89.83"/>
				</g>
			</g>
			<rect x="71.368" y="107.416" style="fill:#FFFFFF;" width="153.633" height="89.83"/>
			<rect x="162.709" y="137.352" style="fill:#F5F5F5;" width="12.66" height="18.185"/>
			<rect x="78.768" y="166.163" style="fill:#F5F5F5;" width="12.66" height="18.185"/>
			<rect x="77.534" y="128.24" style="fill:#F5F5F5;" width="12.66" height="12.66"/>
			<rect x="140.51" y="171.96" style="fill:#F5F5F5;" width="12.66" height="12.66"/>
			<g>
				<rect x="182.928" y="138.918" style="fill:#F5F5F5;" width="32.42" height="45.56"/>
				<g>
					<rect x="187.367" y="145.514" style="fill:#E0E0E0;" width="23.287" height="0.5"/>
				</g>
				<g>
					<rect x="198.761" y="146.002" style="fill:#E0E0E0;" width="0.5" height="33.743"/>
				</g>
				<g>
					<rect x="209.454" y="146.002" style="fill:#E0E0E0;" width="0.5" height="33.743"/>
				</g>
				<g>
					<rect x="189.256" y="146.002" style="fill:#E0E0E0;" width="0.5" height="33.743"/>
				</g>
				<g>
					<rect x="187.593" y="146.002" style="fill:#E0E0E0;" width="0.5" height="33.743"/>
				</g>
				<g>
					<rect x="187.843" y="147.781" style="fill:#E0E0E0;" width="21.624" height="0.5"/>
				</g>
			</g>
			<g>
				
					<rect x="133.031" y="122.319" transform="matrix(6.123234e-17 -1 1 6.123234e-17 7.8606 262.4784)" style="fill:#F5F5F5;" width="4.277" height="9.98"/>
				
					<rect x="135.457" y="154.051" transform="matrix(6.123234e-17 -1 1 6.123234e-17 -21.9216 296.1616)" style="fill:#F5F5F5;" width="3.327" height="9.98"/>
				<rect x="101.329" y="123.767" style="fill:#F0F0F0;" width="32.42" height="45.56"/>
				
					<rect x="133.219" y="161.418" transform="matrix(6.123234e-17 -1 1 6.123234e-17 -31.5257 301.2902)" style="fill:#F5F5F5;" width="3.327" height="9.98"/>
				
					<rect x="134.882" y="130.962" transform="matrix(6.123234e-17 -1 1 6.123234e-17 0.5932 272.4981)" style="fill:#F5F5F5;" width="3.327" height="9.98"/>
				
					<rect x="132.694" y="139.23" transform="matrix(6.123234e-17 -1 1 6.123234e-17 -9.8622 278.5774)" style="fill:#F5F5F5;" width="3.327" height="9.98"/>
				<rect x="105.15" y="129.368" style="fill:#E6E6E6;" width="22.099" height="3.921"/>
				<polygon style="fill:#E6E6E6;" points="127.605,146.121 105.506,146.121 105.15,144.339 127.249,144.339 				"/>
				<rect x="105.15" y="137.21" style="fill:#E6E6E6;" width="7.842" height="3.921"/>
			</g>
		</g>
	</g>
	<g>
		<rect x="416.779" y="398.494" style="fill:#EBEBEB;" width="33.122" height="0.25"/>
		<rect x="322.527" y="401.208" style="fill:#EBEBEB;" width="8.693" height="0.25"/>
		<rect x="396.586" y="389.208" style="fill:#EBEBEB;" width="19.192" height="0.25"/>
		<rect x="52.459" y="390.888" style="fill:#EBEBEB;" width="43.193" height="0.25"/>
		<rect x="104.556" y="390.888" style="fill:#EBEBEB;" width="6.333" height="0.25"/>
		<rect x="131.471" y="395.111" style="fill:#EBEBEB;" width="93.676" height="0.25"/>
		<g>
			<path style="fill:#EBEBEB;" d="M238.401,337.8H45.302c-3.147,0-5.708-2.561-5.708-5.708V60.66c0-3.147,2.561-5.708,5.708-5.708
				h193.099c3.146,0,5.707,2.561,5.707,5.708v271.432C244.108,335.239,241.547,337.8,238.401,337.8z M45.302,55.203
				c-3.01,0-5.458,2.448-5.458,5.458v271.432c0,3.01,2.448,5.458,5.458,5.458h193.099c3.009,0,5.457-2.448,5.457-5.458V60.66
				c0-3.009-2.448-5.458-5.457-5.458H45.302z"/>
			<path style="fill:#EBEBEB;" d="M454.698,337.8H261.599c-3.147,0-5.707-2.561-5.707-5.708V60.66c0-3.147,2.561-5.708,5.707-5.708
				h193.099c3.148,0,5.708,2.561,5.708,5.708v271.432C460.406,335.239,457.845,337.8,454.698,337.8z M261.599,55.203
				c-3.009,0-5.457,2.448-5.457,5.458v271.432c0,3.01,2.448,5.458,5.457,5.458h193.099c3.01,0,5.458-2.448,5.458-5.458V60.66
				c0-3.009-2.448-5.458-5.458-5.458H261.599z"/>
		</g>
		<rect y="382.398" style="fill:#EBEBEB;" width="500" height="0.25"/>
	</g>
</g>
<g id="Background_Simple_1_" style="display:none;">
	<g style="display:inline;">
		<path style="fill:#407BFF;" d="M322.165,87.343c-18.142,5.541-34.007,17.794-43.631,33.698
			c-6.254,10.334-9.878,21.962-15.595,32.584c-15.959,29.65-49.093,49.873-83.573,51.007c-17.889,0.588-36.162-3.54-53.501,0.772
			c-22.177,5.514-39.527,25.83-40.975,47.979c-1.448,22.149,13.117,44.425,34.399,52.61c25.134,9.666,56.386,0.999,78.569,15.988
			c10.533,7.117,17.33,19.176,17.819,31.613c0.455,11.576-3.064,25.95,6.717,32.605c3.665,2.494,8.347,3.03,12.82,3.248
			c32.477,1.586,64.838-9.833,90.995-28.56c26.157-18.727,46.432-44.401,61.704-72.23c16.813-30.637,27.992-64.834,27.263-99.529
			c-0.664-31.61-12.28-57.595-30.462-83.152c-5.233-7.355-8.456-15.112-17.34-18.84C353.995,81.523,335.66,83.221,322.165,87.343z"
			/>
		<path style="opacity:0.9;fill:#FFFFFF;" d="M322.165,87.343c-18.142,5.541-34.007,17.794-43.631,33.698
			c-6.254,10.334-9.878,21.962-15.595,32.584c-15.959,29.65-49.093,49.873-83.573,51.007c-17.889,0.588-36.162-3.54-53.501,0.772
			c-22.177,5.514-39.527,25.83-40.975,47.979c-1.448,22.149,13.117,44.425,34.399,52.61c25.134,9.666,56.386,0.999,78.569,15.988
			c10.533,7.117,17.33,19.176,17.819,31.613c0.455,11.576-3.064,25.95,6.717,32.605c3.665,2.494,8.347,3.03,12.82,3.248
			c32.477,1.586,64.838-9.833,90.995-28.56c26.157-18.727,46.432-44.401,61.704-72.23c16.813-30.637,27.992-64.834,27.263-99.529
			c-0.664-31.61-12.28-57.595-30.462-83.152c-5.233-7.355-8.456-15.112-17.34-18.84C353.995,81.523,335.66,83.221,322.165,87.343z"
			/>
	</g>
</g>
<g id="Shadow_1_">
	<ellipse id="Shadow" style="fill:#F5F5F5;" cx="250" cy="412.46" rx="193.89" ry="11.32"/>
</g>
<g id="Plant">
	<g>
		<g>
			<g>
				<g>
					<path style="fill:#407BFF;" d="M313.488,375.267c0,0-3.145-35.339-19.562-69.277c0,0,24.237,22.623,25.087,69.277H313.488z"/>
					<path style="fill:#407BFF;" d="M325.802,376.544c0,0,2.742-39.796,8.926-59.698c0,0,3.391,24.697-5.445,58.576L325.802,376.544
						z"/>
					<path style="opacity:0.3;" d="M325.802,376.544c0,0,2.742-39.796,8.926-59.698c0,0,3.391,24.697-5.445,58.576L325.802,376.544z
						"/>
					<path style="fill:#407BFF;" d="M323.261,377.725c0,0-4.249-53.557,7.649-77.561c0,0,1.275,48.664-1.7,77.561H323.261z"/>
					<path style="opacity:0.2;" d="M323.261,377.725c0,0-4.249-53.557,7.649-77.561c0,0,1.275,48.664-1.7,77.561H323.261z"/>
				</g>
			</g>
			<path style="fill:#407BFF;" d="M333.308,378.029c0,0,3.145-35.339,19.562-69.277c0,0-24.237,22.623-25.087,69.277H333.308z"/>
			<path style="fill:#407BFF;" d="M317.312,380.738c0,0-13.188-61.522-10.843-94.099c0,0,17.643,36.266,16.793,91.086
				L317.312,380.738z"/>
			<path style="opacity:0.1;fill:#FFFFFF;" d="M317.312,380.738c0,0-13.188-61.522-10.843-94.099c0,0,17.643,36.266,16.793,91.086
				L317.312,380.738z"/>
		</g>
		<g>
			<path style="fill:#407BFF;" d="M329.544,411.976h-12.293c-4.142,0-7.607-3.146-8.007-7.268l-3.143-32.424h34.593l-3.143,32.424
				C337.152,408.831,333.687,411.976,329.544,411.976z"/>
			<path style="opacity:0.3;fill:#FFFFFF;" d="M328.468,411.976h-10.14c-4.753,0-8.729-3.609-9.188-8.34l-3.039-31.352h34.593
				l-3.039,31.352C337.197,408.367,333.221,411.976,328.468,411.976z"/>
		</g>
	</g>
</g>
<g id="Character_1_">
	<g>
		<g>
			<g>
				<g>
					<g>
						<g>
							<g>
								<g>
									<g>
										<path style="fill:#FFC3BD;" d="M255.409,195.083l1.937-8.434l-2.231-4.827c-0.275-0.467-0.381-1.014-0.3-1.55
											c0,0,0.545-3.167,1.094-4.888c0.199-0.624,0.866-0.969,1.496-0.792l4.422,1.244c0.928,0.159,1.824,6.714,1.824,6.714
											c0.107,0.438,0.085,0.898-0.061,1.324l-1.315,4.129l-0.794,10.212L255.409,195.083z"/>
									</g>
								</g>
								<g>
									<path style="fill:#407BFF;" d="M236.244,186.354c6.403,4.333,11.804,10.136,15.667,16.832
										c0.558-1.923,3.226-10.065,2.761-12.352c-0.098-0.484-0.246-0.985-0.112-1.46c0.134-0.475,0.7-0.865,1.123-0.613
										c3.275-0.362,5.971,0.234,9.239,0.658c-0.892,7.394-2.373,31.113-14.525,26.296c-9.05-3.588-15.629-12.021-19.114-21.111
										c-0.553-1.443-0.993-2.964-0.923-4.508c0.07-1.543,0.718-3.122,1.978-4.015
										C233.599,185.186,234.964,185.488,236.244,186.354z"/>
								</g>
								<path style="opacity:0.7;" d="M236.244,186.354c6.403,4.333,11.804,10.136,15.667,16.832
									c0.558-1.923,3.226-10.065,2.761-12.352c-0.098-0.484-0.246-0.985-0.112-1.46c0.134-0.475,0.7-0.865,1.123-0.613
									c3.275-0.362,5.971,0.234,9.239,0.658c-0.892,7.394-2.373,31.113-14.525,26.296c-9.05-3.588-15.629-12.021-19.114-21.111
									c-0.553-1.443-0.993-2.964-0.923-4.508c0.07-1.543,0.718-3.122,1.978-4.015
									C233.599,185.186,234.964,185.488,236.244,186.354z"/>
							</g>
							<g>
								<g>
									<g>
										<g>
											<g>
												<g>
													<g>
														<g>
															<path d="M224.067,260.958c0,0,1.426,19.084-0.202,40.748c0,0-2.551-21.643-3.872-30.304L224.067,260.958z"/>
															<path style="fill:#FFC3BD;" d="M216.15,182.549c1.249-4.279,0.787-10.354,0.219-14.148l9.451,8.824
																c-0.495,1.661-0.739,3.442-0.437,5.069c0.151,0.813,0.813,1.435,1.637,1.505l3.944,1.111l0.548,3.014l-2.344,0.678
																l-3.082,3.333l-7.743-3.024l-8.308-3.578c0,0,1.472-0.592,3.799-0.825
																C214.702,184.421,215.905,183.386,216.15,182.549z"/>
															<path style="opacity:0.2;enable-background:new    ;" d="M220.235,172.701l5.444,5.038
																c-0.255,0.976-0.413,1.98-0.422,2.964c-2.172-0.434-4.878-2.393-5.628-4.819
																C219.138,174.389,219.663,172.848,220.235,172.701z"/>
															<path style="fill:#FFC3BD;" d="M214.786,161.563c0.594,6.973,0.595,11.079,4.21,14.571
																c5.429,5.263,13.973,1.835,15.46-5.154c1.347-6.339,0.135-16.646-6.765-19.254
																c-4.915-1.887-10.43,0.567-12.317,5.482C214.841,158.595,214.64,160.086,214.786,161.563z"/>
															<path style="fill:#263238;" d="M224.512,161.916c0.069,0.568,0.421,0.991,0.791,0.944
																c0.37-0.047,0.611-0.537,0.542-1.105c-0.069-0.568-0.421-0.983-0.792-0.936
																C224.683,160.866,224.442,161.356,224.512,161.916z"/>
															<path style="fill:#263238;" d="M231.322,161.091c0.07,0.56,0.421,0.983,0.792,0.936
																c0.37-0.047,0.611-0.537,0.541-1.097c-0.07-0.56-0.421-0.991-0.791-0.944
																C231.493,160.033,231.252,160.523,231.322,161.091z"/>
															<path style="fill:#263238;" d="M223.727,161.01c-0.056,0.011-0.114,0.011-0.17,0
																c-0.162-0.083-0.233-0.277-0.162-0.445c0.435-0.982,1.315-1.696,2.365-1.92c0.183-0.027,0.354,0.1,0.381,0.283
																c0.027,0.183-0.1,0.354-0.284,0.381l0,0c-0.829,0.186-1.519,0.758-1.854,1.539
																C223.944,160.946,223.84,161.007,223.727,161.01z"/>
															<path style="fill:#263238;" d="M233.882,159.825c-0.112,0.02-0.226-0.021-0.301-0.107
																c-0.551-0.638-1.373-0.976-2.214-0.911c-0.182,0.03-0.353-0.094-0.383-0.276s0.094-0.353,0.276-0.383
																c1.073-0.107,2.131,0.312,2.839,1.124c0.122,0.13,0.116,0.335-0.014,0.458c-0.002,0.002-0.005,0.004-0.007,0.007
																C234.025,159.788,233.955,159.819,233.882,159.825z"/>
															<path style="fill:#263238;" d="M217.111,159.835c0.659,1.717,0.699,3.665,0.111,5.407
																c-0.406-0.176-0.6-0.217-1.042-0.24c-0.442-0.024-0.921,0.14-1.155,0.515c-0.27,0.433-0.146,0.993-0.01,1.485
																c0.605,2.197,1.266,4.379,1.982,6.542c-3.601-3.392-5.882-8.123-6.452-13.037
																C212.608,160.266,215.045,160.075,217.111,159.835z"/>
															<path style="fill:#FFC3BD;" d="M211.535,168.159c0.977,1.46,2.489,2.477,4.21,2.83
																c2.292,0.436,3.249-1.649,2.455-3.713c-0.711-1.85-2.764-4.319-4.984-3.835
																C210.997,163.926,210.355,166.343,211.535,168.159z"/>
															<path style="fill:#ED893E;" d="M229.781,162.855c1.028,1.555,2.054,2.966,3.467,4.182
																c-0.812,1.133-2.553,1.074-2.553,1.074L229.781,162.855z"/>
															<polygon style="fill:#FFC3BD;" points="252.279,387.328 258.715,385.008 262.376,400.522 255.94,402.85 
																															"/>
															<polygon style="fill:#FFC3BD;" points="205.301,389.826 212.131,390.219 210.867,406.009 204.037,405.616 
																															"/>
															<path style="fill:#263238;" d="M212.924,405.754c1.603,1.61,5.431,3.428,10.673,4.884
																c1.153,0.324,0.619,3.133-2.248,2.969c-2.867-0.165-9.118-0.738-11.189-0.857c-3.371-0.194-5.364-0.104-8.018-0.257
																c-0.079-0.003-0.158-0.015-0.234-0.036c-0.533-0.148-0.844-0.701-0.696-1.233l1.694-5.992
																c0.078-0.27,0.331-0.45,0.611-0.435l8.325,0.479C212.249,405.294,212.635,405.465,212.924,405.754z"/>
															<path style="fill:#263238;" d="M264.043,399.473c5.353,0.911,6.328,0.479,11.707-0.445
																c1.156-0.2,1.494,2.723-1.105,3.771c-4.308,1.74-4.449,1.732-8.085,3.219c-3.144,1.257-6.689,2.864-9.172,3.91
																c-0.073,0.031-0.15,0.053-0.229,0.066c-0.541,0.088-1.051-0.279-1.139-0.82l-1.031-6.149
																c-0.042-0.276,0.109-0.545,0.366-0.654l6.925-2.797C262.847,399.379,263.457,399.343,264.043,399.473z"/>
															<polygon style="opacity:0.2;enable-background:new    ;" points="252.27,387.336 254.162,395.336 260.598,393.008 
																258.714,385.017 															"/>
															<polygon style="opacity:0.2;enable-background:new    ;" points="204.646,397.973 211.476,398.365 212.131,390.219 
																205.301,389.826 															"/>
															<path style="fill:#263238;" d="M262.371,390.429l-10.733,4.336c0,0-13.633-50.946-17.352-68.7
																c-3.719-17.754-16.706-79.004-16.706-79.004l24.044,0.194c0,0,7.717,54.413,10.128,75.146
																C254.259,343.964,262.371,390.429,262.371,390.429z"/>
															<path style="opacity:0.2;enable-background:new    ;" d="M229.911,305.38c-2.331-11.017-5.038-23.831-7.321-34.614
																l3.547-2.867C230.992,274.693,231.438,293.182,229.911,305.38z"/>
															<path style="fill:#263238;" d="M205.077,246.99c0,0-0.361,58.865-1.283,83.223
																c-0.849,21.557-1.482,66.036-1.482,66.036l12.51,0.72c0,0,5.022-48.426,6.945-70.285
																c1.752-19.969,9.767-79.486,9.767-79.486L205.077,246.99z"/>
															<polygon style="fill:#407BFF;" points="216.687,392.647 201.205,392.049 201.571,396.482 215.302,397.272 
																															"/>
															<polygon style="fill:#407BFF;" points="262.514,385.626 248.699,391.232 251.002,395.341 263.116,390.436 
																															"/>
															<path style="fill:#407BFF;" d="M214.029,406.599c0.465,0.063,0.937-0.035,1.339-0.278
																c0.271-0.201,0.418-0.529,0.387-0.865c0.014-0.195-0.086-0.381-0.257-0.476c-0.73-0.432-3.01,0.794-3.267,0.939
																c-0.057,0.03-0.089,0.092-0.08,0.155c0.004,0.064,0.047,0.119,0.107,0.139
																C212.832,406.408,213.426,406.537,214.029,406.599z M215.128,405.242c0.071-0.012,0.143-0.007,0.212,0.012
																c0.063,0.046,0.096,0.123,0.086,0.2c0.021,0.222-0.076,0.438-0.255,0.571c-0.782,0.31-1.654,0.305-2.431-0.016
																C213.48,405.604,214.29,405.343,215.128,405.242L215.128,405.242z"/>
															<path style="fill:#407BFF;" d="M212.3,406.251c0.022,0.01,0.048,0.012,0.071,0.004
																c0.73-0.34,2.187-1.756,2.081-2.543c-0.033-0.249-0.238-0.44-0.489-0.454c-0.246-0.047-0.501,0.012-0.702,0.164
																c-0.825,0.609-1.108,2.599-1.12,2.652c-0.005,0.058,0.023,0.114,0.071,0.146
																C212.238,406.239,212.269,406.25,212.3,406.251z M213.831,403.569l0.08,0.005c0.204,0.012,0.223,0.137,0.22,0.181
																c0.063,0.447-0.869,1.53-1.608,2.02c0.095-0.772,0.418-1.498,0.928-2.086
																C213.559,403.606,213.694,403.563,213.831,403.569z"/>
															<path style="fill:#407BFF;" d="M263.254,400.235L263.254,400.235c1.104-0.212,3.024-0.714,3.464-1.576
																c0.156-0.277,0.151-0.616-0.011-0.888c-0.073-0.166-0.229-0.28-0.409-0.299c-0.935-0.107-2.967,2.199-3.196,2.479
																c-0.043,0.053-0.047,0.128-0.011,0.186C263.115,400.204,263.183,400.245,263.254,400.235z M266.234,397.815
																l0.018,0.001c0.07,0.011,0.128,0.058,0.152,0.124c0.099,0.169,0.107,0.376,0.022,0.552
																c-0.251,0.509-1.273,0.992-2.739,1.325c0.833-0.893,2.014-1.997,2.565-2.001L266.234,397.815z"/>
															<path style="fill:#407BFF;" d="M263.254,400.235c0.042,0.001,0.082-0.016,0.109-0.047
																c0.632-0.656,1.59-2.643,1.185-3.314c-0.097-0.156-0.302-0.31-0.726-0.193c-0.316,0.091-0.581,0.306-0.736,0.597
																c-0.536,0.99-0.017,2.769,0.005,2.841c0.017,0.056,0.062,0.098,0.118,0.113L263.254,400.235z M264.099,396.964
																c0.068-0.009,0.136,0.023,0.173,0.081c0.243,0.405-0.349,1.897-0.944,2.68c-0.221-0.749-0.203-1.549,0.052-2.287
																c0.104-0.217,0.298-0.378,0.531-0.44C263.971,396.975,264.035,396.964,264.099,396.964z"/>
															<path style="fill:#407BFF;" d="M209.37,184.958c0,0,0.27-0.11,0.828-0.266l1.184-0.153l1.779-0.469l0.03,0.019
																c0.599,0.392,9.25,5.988,12.033,7.079l0.844,0.129c2.345-3.641,2.23-7.659,2.23-7.659l0.977,0.042
																c0.445,0.438,1.131,0.556,1.131,0.556c0.275,0.032,0.546,0.063,0.827,0.098l2.577,1.804c0,0,5.685,11.492,7.8,40.374
																l1.049,21.856l-41.12,1.173L209.37,184.958z"/>
															<g style="opacity:0.4;enable-background:new    ;">
																<path d="M227.235,188.997c-0.01,0.032-0.019,0.064-0.039,0.097l0.04-0.086L227.235,188.997z"/>
															</g>
															<path style="fill:#407BFF;" d="M227.235,188.997c-0.01,0.032-0.019,0.064-0.039,0.097l0.04-0.086L227.235,188.997z"
																/>
															<g>
																<path style="fill:#407BFF;" d="M228.299,183.641c0,0,5.893,2.292,8.476,17.952
																	c2.584,15.66,1.93,18.724,2.792,41.002c0.22,5.675,0.199,11.306,4.453,10.602c0,0,0.247,1.09-0.845-23.547
																	C242.084,205.012,243.644,183.656,228.299,183.641z"/>
															</g>
															<g style="opacity:0.6;">
																<path d="M228.299,183.641c0,0,5.893,2.292,8.476,17.952c2.584,15.66,1.93,18.724,2.792,41.002
																	c0.22,5.675,0.199,11.306,4.453,10.602c0,0,0.247,1.09-0.845-23.547
																	C242.084,205.012,243.644,183.656,228.299,183.641z"/>
															</g>
															<g>
																<path style="fill:#407BFF;" d="M210.831,184.139c0,0,7.098,3.682,8.576,28.245
																	c1.478,24.562,6.05,41.106-2.209,42.119c-8.259,1.013-17.449-3.387-17.449-3.387s-0.773,2.255,0.451-9.086
																	c1.021-9.47,0.502-1.769,1.099-10.741c0.69-10.372-5.766-38.684-2.224-41.634
																	C202.616,186.705,210.831,184.139,210.831,184.139z"/>
																<g style="opacity:0.6;">
																	<path d="M210.831,184.139c0,0,7.098,3.682,8.576,28.245c1.478,24.562,6.05,41.106-2.209,42.119
																		c-8.259,1.013-17.449-3.387-17.449-3.387s-0.773,2.255,0.451-9.086c1.021-9.47,0.502-1.769,1.099-10.741
																		c0.69-10.372-5.766-38.684-2.224-41.634C202.616,186.705,210.831,184.139,210.831,184.139z"/>
																</g>
																<g style="opacity:0.3;">
																	<path d="M208.211,237.544l5.07,0.582c1.796,0.206,3.419-1.083,3.625-2.878l0.084-0.735l-11.574-1.329l-0.084,0.735
																		C205.127,235.715,206.415,237.338,208.211,237.544z"/>
																</g>
																<g>
																	<path style="fill:#FFC3BD;" d="M230.926,210.188l9.301-1.499l2.876-3.761c0.329-0.43,0.796-0.734,1.323-0.861
																		l3.251-0.782c0.724-0.174,1.487,0.003,2.06,0.479l1.185,0.983c0.404,0.336,0.685,0.797,0.798,1.31l0.338,1.538
																		c0.202,0.92-0.162,1.872-0.926,2.422l-4.673,3.365c-0.366,0.264-0.8,0.417-1.25,0.442l-4.087,0.225l-10.814,2.943
																		L230.926,210.188z"/>
																</g>
															</g>
														</g>
														<path style="fill:#263238;" d="M228.478,170.598c-1.273-0.248-2.388-1.007-3.085-2.1
															c-0.045-0.078-0.019-0.178,0.058-0.224c0.081-0.041,0.179-0.012,0.225,0.066c0.777,1.179,2.058,1.93,3.466,2.03
															c0.091,0,0.165,0.074,0.164,0.165c0,0.091-0.074,0.164-0.165,0.164c-0.008,0-0.015-0.001-0.023-0.002
															C228.903,170.678,228.689,170.645,228.478,170.598z"/>
													</g>
												</g>
											</g>
										</g>
									</g>
								</g>
								<path style="fill:#407BFF;" d="M213.195,184.084l13.283,11.853l0.473-0.927c1.77-3.515,2.251-7.546,1.344-11.367
									c0,0,0.072,2.506-1.059,5.355l-1.635-3.673c-0.013,1.403-0.426,2.956-0.426,2.956l-0.897-0.888l-2.483,2.005
									C218.208,187.342,213.617,184.37,213.195,184.084z"/>
								<path style="opacity:0.2;fill:#FFFFFF;enable-background:new    ;" d="M213.195,184.084l13.283,11.853l0.473-0.927
									c1.77-3.515,2.251-7.546,1.344-11.367c0,0,0.072,2.506-1.059,5.355l-1.635-3.673c-0.013,1.403-0.426,2.956-0.426,2.956
									l-0.897-0.888l-2.483,2.005C218.208,187.342,213.617,184.37,213.195,184.084z"/>
								<path style="fill:#407BFF;" d="M225.179,188.275c2.011,1.095,3.762,2.191,5.498,3.683c-0.176-1.374-0.352-2.747-0.528-4.121
									c-0.187-1.459-0.384-2.95-1.049-4.262c-0.665-1.312-1.901-2.431-3.367-2.543c-0.126-0.01-0.369-0.246-0.495-0.243
									C225.778,183.076,225.753,185.997,225.179,188.275z"/>
								<path style="opacity:0.6;fill:#FFFFFF;" d="M225.179,188.275c2.011,1.095,3.762,2.191,5.498,3.683
									c-0.176-1.374-0.352-2.747-0.528-4.121c-0.187-1.459-0.384-2.95-1.049-4.262c-0.665-1.312-1.901-2.431-3.367-2.543
									c-0.126-0.01-0.369-0.246-0.495-0.243C225.778,183.076,225.753,185.997,225.179,188.275z"/>
								<path style="fill:#407BFF;" d="M225.179,188.275l-4.673,4.898c0,0-7.43-7.995-7.349-10.27l3.533-2.978L225.179,188.275z"/>
								<path style="opacity:0.6;fill:#FFFFFF;" d="M225.179,188.275l-4.673,4.898c0,0-7.43-7.995-7.349-10.27l3.533-2.978
									L225.179,188.275z"/>
							</g>
							<g>
								<path style="fill:#FFFFFF;" d="M222.794,190.774l2.34,2.467c0.197,0.344,0.883,0.511,1.155,0.469l1.647-0.234
									c0.238-0.022,0.422-0.236,0.493-0.551l-0.687-3.145l-2.567-1.5L222.794,190.774z"/>
								<path style="fill:#FFFFFF;" d="M226.168,222.963c0,0,3.098,7.944,4.268,6.956c1.17-0.988,3.699-6.242,3.702-6.348
									c-0.037-0.66-0.395-13.837-6.12-30.271l-1.889,0.245C227.163,208.14,226.168,222.963,226.168,222.963z"/>
							</g>
							<g>
								<path style="fill:#407BFF;" d="M235.483,208.575c1.132,0.764,3.129,7.339-0.194,8.299
									c-3.336,1.353-18.061,6.594-25.373,5.42c-1.918-0.308-3.778-0.943-4.869-2.551c-5.022-7.405-8.09-15.802-8.861-24.79
									c-0.188-2.19,0.146-4.979,3.672-5.609c2.548,0.281,5.513,1.88,6.832,4.078c3.909,6.511,4.186,11.728,7.294,18.57
									L235.483,208.575z"/>
							</g>
							<g style="opacity:0.6;">
								<path d="M235.483,208.575c1.132,0.764,3.129,7.339-0.194,8.299c-3.336,1.353-18.061,6.594-25.373,5.42
									c-1.918-0.308-3.778-0.943-4.869-2.551c-5.022-7.405-8.09-15.802-8.861-24.79c-0.188-2.19,0.146-4.979,3.672-5.609
									c2.548,0.281,5.513,1.88,6.832,4.078c3.909,6.511,4.186,11.728,7.294,18.57L235.483,208.575z"/>
							</g>
						</g>
						<g>
							<g>
								<g>
									<path style="fill:#407BFF;" d="M233,165.321c-1.383,0-2.598-0.962-2.895-2.341l-0.74-3.435l6.976-0.72l-0.024,3.514
										c-0.01,1.515-1.153,2.774-2.66,2.93l-0.347,0.036C233.205,165.316,233.102,165.321,233,165.321z M230.623,160.457
										l0.496,2.305c0.208,0.964,1.113,1.614,2.083,1.512l0.347-0.036c0.98-0.101,1.725-0.92,1.73-1.906l0.016-2.357
										L230.623,160.457z"/>
								</g>
								<g>
									<path style="fill:#407BFF;" d="M226.059,166.037c-1.383,0-2.598-0.962-2.895-2.341l-0.74-3.435l6.976-0.72l-0.024,3.514
										c-0.01,1.515-1.153,2.774-2.66,2.93l-0.347,0.036C226.263,166.032,226.161,166.037,226.059,166.037z M223.681,161.173
										l0.496,2.305c0.208,0.964,1.117,1.615,2.083,1.512l0.347-0.036c0.98-0.101,1.724-0.92,1.73-1.906l0.016-2.357
										L223.681,161.173z"/>
								</g>
								<g>
									
										<rect x="228.149" y="159.55" transform="matrix(0.9946 -0.1034 0.1034 0.9946 -15.3266 24.5796)" style="fill:#407BFF;" width="2.367" height="1.037"/>
								</g>
							</g>
							<g>
								<polygon style="fill:#407BFF;" points="214.574,163.493 214.278,162.5 220.793,160.556 223.288,160.169 223.444,161.194 
									221.019,161.565 								"/>
							</g>
						</g>
					</g>
					<path style="fill:#263238;" d="M234.293,158.024c1.232-0.108,1.961-1.854,1.47-2.99c-0.459-1.061-1.199-1.832-1.663-2.89
						c-0.675-1.541-1.358-3.098-2.368-4.444c-1.01-1.345-2.391-2.48-4.028-2.869c-1.637-0.389-2.842,0.701-4.261,1.605
						c-1.371,0.874-3.026,1.153-4.629,1.43c-1.603,0.277-3.258,0.592-4.593,1.521c-1.335,0.929-2.262,2.647-1.771,4.197
						C223.367,150.622,220.317,159.25,234.293,158.024z"/>
				</g>
				<path style="fill:#FFC3BD;" d="M257.933,176.96c0.021-1.258,0.042-2.517,0.063-3.775c0.007-0.44-0.02-0.953-0.378-1.21
					c-0.448-0.321-1.117,0.03-1.34,0.533c-0.223,0.503-0.712,4.68-0.773,5.314C256.077,178.532,257.918,177.872,257.933,176.96z"/>
			</g>
			<path style="fill:#263238;" d="M209.963,160.523c-1.267-1.855-1.199-4.519,0.16-6.308c1.36-1.788,3.909-2.566,6.035-1.842
				c2.141,0.73,4.394-0.262,6.636-0.559c-1.536,1.626-1.448,7.3-1.795,7.667c-0.348,0.367-0.843,0.55-1.325,0.702
				C216.722,161.12,213.03,160.952,209.963,160.523z"/>
		</g>
	</g>
</g>
<g id="Light_bulb">
	<g>
		<g>
			<g>
				<path style="fill:#407BFF;" d="M179.172,84.743c-0.681,0.085-1.362-0.292-1.633-0.959l-6.059-14.922
					c-0.323-0.796,0.06-1.703,0.856-2.026c0.8-0.324,1.703,0.06,2.027,0.856l6.059,14.922c0.323,0.796-0.06,1.703-0.856,2.026
					C179.436,84.692,179.304,84.726,179.172,84.743z"/>
			</g>
			<g>
				<path style="fill:#407BFF;" d="M228.506,126.008c-0.262,0.033-0.536-0.001-0.797-0.112l-15.177-6.411
					c-0.792-0.334-1.161-1.247-0.827-2.038c0.334-0.792,1.248-1.161,2.038-0.827l15.177,6.411c0.792,0.334,1.161,1.247,0.827,2.038
					C229.523,125.6,229.038,125.942,228.506,126.008z"/>
			</g>
			<g>
				<path style="fill:#407BFF;" d="M164.358,98.909c-0.262,0.033-0.536-0.001-0.797-0.112l-14.518-6.133
					c-0.792-0.334-1.161-1.247-0.827-2.038c0.334-0.793,1.248-1.161,2.038-0.827l14.518,6.133c0.792,0.334,1.161,1.247,0.827,2.038
					C165.376,98.501,164.891,98.843,164.358,98.909z"/>
			</g>
			<g>
				<path style="fill:#407BFF;" d="M213.36,99.565c-0.681,0.085-1.362-0.292-1.633-0.959c-0.323-0.796,0.06-1.703,0.856-2.026
					l15.38-6.244c0.799-0.325,1.703,0.059,2.027,0.856c0.323,0.796-0.06,1.703-0.856,2.026l-15.379,6.244
					C213.624,99.515,213.493,99.549,213.36,99.565z"/>
			</g>
			<g>
				<path style="fill:#407BFF;" d="M149.613,125.448c-0.681,0.085-1.362-0.292-1.633-0.959c-0.322-0.796,0.061-1.703,0.856-2.026
					l14.464-5.873c0.798-0.325,1.704,0.059,2.027,0.856c0.323,0.796-0.06,1.703-0.856,2.026l-14.464,5.873
					C149.877,125.397,149.746,125.431,149.613,125.448z"/>
			</g>
			<g>
				<path style="fill:#407BFF;" d="M199.391,85.205c-0.262,0.033-0.536-0.001-0.797-0.112c-0.792-0.334-1.161-1.247-0.827-2.038
					l6.398-15.145c0.334-0.792,1.248-1.162,2.038-0.827c0.792,0.334,1.161,1.247,0.827,2.038l-6.398,15.145
					C200.409,84.796,199.924,85.138,199.391,85.205z"/>
			</g>
			<g>
				<path style="fill:#407BFF;" d="M172.556,148.725c-0.262,0.033-0.536-0.001-0.797-0.112c-0.792-0.334-1.161-1.247-0.827-2.038
					l6.14-14.534c0.334-0.792,1.247-1.163,2.038-0.827c0.792,0.334,1.161,1.247,0.827,2.038l-6.14,14.534
					C173.574,148.317,173.089,148.659,172.556,148.725z"/>
			</g>
		</g>
		<g>
			<g>
				<g>
					<path style="fill:#407BFF;" d="M207.223,100.523c-4.22-10.249-15.949-15.137-26.199-10.917
						c-10.249,4.22-15.137,15.949-10.917,26.199c3.061,7.435,11.049,10.031,17.213,14.377c1.909,1.346,4.588,8.216,4.588,8.216
						l15.742-6.482c0,0-2.935-6.764-2.527-9.065C206.44,115.426,210.284,107.958,207.223,100.523z"/>
					<path style="opacity:0.5;fill:#FFFFFF;" d="M207.223,100.523c-4.22-10.249-15.949-15.137-26.199-10.917
						c-10.249,4.22-15.137,15.949-10.917,26.199c3.061,7.435,11.049,10.031,17.213,14.377c1.909,1.346,4.588,8.216,4.588,8.216
						l15.742-6.482c0,0-2.935-6.764-2.527-9.065C206.44,115.426,210.284,107.958,207.223,100.523z"/>
					<g>
						<path style="fill:#263238;" d="M205.432,139.34l-6.721,2.767c-2.491,1.026-5.342-0.162-6.368-2.653v0l15.742-6.481v0
							C209.111,135.464,207.923,138.314,205.432,139.34z"/>
					</g>
					<g>
						<path style="fill:#263238;" d="M204.021,145.459L204.021,145.459c-2.032,0.836-4.357-0.132-5.194-2.164l0,0l7.358-3.03l0,0
							C207.022,142.297,206.053,144.622,204.021,145.459z"/>
						<path style="opacity:0.5;fill:#FFFFFF;" d="M204.021,145.459L204.021,145.459c-2.032,0.836-4.357-0.132-5.194-2.164l0,0
							l7.358-3.03l0,0C207.022,142.297,206.053,144.622,204.021,145.459z"/>
					</g>
				</g>
				<g style="opacity:0.7;">
					<path style="fill:#FFFFFF;" d="M205.432,139.34l-6.721,2.767c-2.491,1.026-5.342-0.162-6.368-2.653v0l15.742-6.481v0
						C209.111,135.464,207.923,138.314,205.432,139.34z"/>
				</g>
			</g>
			<path style="opacity:0.3;fill:#FFFFFF;" d="M203.622,97.979c4.752,11.704,2.808,27.945-6.234,31.616
				c-9.042,3.671-22.394-8.186-26.509-18.322c-2.535-6.244,2.739-14.282,11.781-17.953
				C191.702,89.649,201.087,91.735,203.622,97.979z"/>
			<path style="opacity:0.4;fill:#FFFFFF;" d="M202.483,111.717c2.364,5.821-0.439,12.456-6.261,14.82
				c-5.822,2.364-12.456-0.439-14.82-6.261c-2.364-5.821,0.439-12.456,6.261-14.82C193.484,103.093,200.119,105.896,202.483,111.717
				z"/>
			<path style="opacity:0.4;fill:#FFFFFF;" d="M200.345,115.688c1.66,4.09-1.15,6.679-5.239,8.339
				c-4.089,1.66-7.909,1.763-9.57-2.327c-1.66-4.09,1.172-6.625,5.261-8.285C194.887,111.755,198.685,111.598,200.345,115.688z"/>
			<g>
				<g>
					
						<rect x="191.672" y="116.29" transform="matrix(0.8978 -0.4404 0.4404 0.8978 -36.2308 97.6025)" style="fill:#407BFF;" width="1.038" height="21.156"/>
				</g>
				<g>
					
						<rect x="198.828" y="113.385" transform="matrix(0.9507 -0.3102 0.3102 0.9507 -28.6169 67.9413)" style="fill:#407BFF;" width="1.038" height="21.156"/>
				</g>
				<g>
					<polygon style="fill:#407BFF;" points="195.003,123.447 189.142,120.97 189.545,120.015 194.452,122.088 196.487,117.269 
						197.443,117.673 					"/>
				</g>
			</g>
		</g>
	</g>
</g>
<g id="Icons">
	<g>
		<g>
			<g>
				<g>
					<path style="fill:#407BFF;" d="M195.013,177.933c-0.821,0-1.486-0.665-1.486-1.486v-9.189c0-0.821,0.665-1.486,1.486-1.486
						s1.486,0.665,1.486,1.486v9.189C196.5,177.268,195.834,177.933,195.013,177.933z"/>
				</g>
				<g>
					<path style="fill:#407BFF;" d="M199.608,173.339h-9.189c-0.821,0-1.486-0.666-1.486-1.486c0-0.821,0.665-1.486,1.486-1.486
						h9.189c0.821,0,1.486,0.666,1.486,1.486C201.094,172.673,200.429,173.339,199.608,173.339z"/>
				</g>
			</g>
			<g style="opacity:0.5;">
				<g>
					<path style="fill:#FFFFFF;" d="M195.013,177.933c-0.821,0-1.486-0.665-1.486-1.486v-9.189c0-0.821,0.665-1.486,1.486-1.486
						s1.486,0.665,1.486,1.486v9.189C196.5,177.268,195.834,177.933,195.013,177.933z"/>
				</g>
				<g>
					<path style="fill:#FFFFFF;" d="M199.608,173.339h-9.189c-0.821,0-1.486-0.666-1.486-1.486c0-0.821,0.665-1.486,1.486-1.486
						h9.189c0.821,0,1.486,0.666,1.486,1.486C201.094,172.673,200.429,173.339,199.608,173.339z"/>
				</g>
			</g>
		</g>
		<g>
			<g>
				<g>
					<path style="fill:#407BFF;" d="M251.657,155.079c-1.279,0-2.316-1.037-2.316-2.316v-14.319c0-1.279,1.037-2.316,2.316-2.316
						c1.279,0,2.316,1.037,2.316,2.316v14.319C253.973,154.042,252.936,155.079,251.657,155.079z"/>
				</g>
				<g>
					<path style="fill:#407BFF;" d="M258.817,147.92h-14.319c-1.279,0-2.316-1.037-2.316-2.316c0-1.279,1.037-2.316,2.316-2.316
						h14.319c1.279,0,2.316,1.037,2.316,2.316C261.133,146.883,260.096,147.92,258.817,147.92z"/>
				</g>
			</g>
			<g style="opacity:0.5;">
				<g>
					<path style="fill:#FFFFFF;" d="M251.657,155.079c-1.279,0-2.316-1.037-2.316-2.316v-14.319c0-1.279,1.037-2.316,2.316-2.316
						c1.279,0,2.316,1.037,2.316,2.316v14.319C253.973,154.042,252.936,155.079,251.657,155.079z"/>
				</g>
				<g>
					<path style="fill:#FFFFFF;" d="M258.817,147.92h-14.319c-1.279,0-2.316-1.037-2.316-2.316c0-1.279,1.037-2.316,2.316-2.316
						h14.319c1.279,0,2.316,1.037,2.316,2.316C261.133,146.883,260.096,147.92,258.817,147.92z"/>
				</g>
			</g>
		</g>
	</g>
</g>
</svg>
