<!--?xml version="1.0" encoding="utf-8"?-->
<!-- Generator: Adobe Illustrator 18.1.1, SVG Export Plug-In . SVG Version: 6.00 Build 0)  -->

<svg version="1.1" id="_x32_" xmlns="http://www.w3.org/2000/svg" xmlns:xlink="http://www.w3.org/1999/xlink" x="0px" y="0px" viewBox="0 0 512 512" style="width: 512px; height: 512px; opacity: 1;" xml:space="preserve">
<style type="text/css">
	.st0{fill:#4B4B4B;}
</style>
<g>
	<path class="st0" d="M6.549,43.616v293.709c0,24.102,19.523,43.616,43.612,43.616h59.685V0H50.161
		C26.072,0,6.549,19.514,6.549,43.616z" style="fill: rgb(0, 0, 0);"></path>
	<path class="st0" d="M449.381,0H135.496v380.941h53.007V512h12.926h251.014V380.782c29.538-1.6,53.008-25.978,53.008-55.911V56.079
		C505.451,25.094,480.353,0,449.381,0z M201.429,144.683h54.948v27.821h-54.948V144.683z M201.429,202.378h54.948v27.821h-54.948
		V202.378z M201.429,260.056h54.948v27.838h-54.948V260.056z M426.591,486.14H214.355V331.602h212.236V486.14z M347.947,202.378
		v27.821H293v-27.821H347.947z M293,172.504v-27.821h54.948v27.821H293z M347.947,260.056v27.838H293v-27.838H347.947z
		 M439.517,287.894h-54.942v-27.838h54.942V287.894z M439.517,230.198h-54.942v-27.821h54.942V230.198z M439.517,172.504h-54.942
		v-27.821h54.942V172.504z M439.517,115.827H201.429V65.933h238.088V115.827z" style="fill: rgb(0, 0, 0);"></path>
	<rect x="256.019" y="362.739" class="st0" width="135.721" height="17.234" style="fill: rgb(0, 0, 0);"></rect>
	<rect x="256.019" y="407.979" class="st0" width="88.326" height="17.234" style="fill: rgb(0, 0, 0);"></rect>
</g>
</svg>
