<?xml version="1.0" encoding="UTF-8"?>
<svg id="_レイヤー_2" data-name="レイヤー 2" xmlns="http://www.w3.org/2000/svg" viewBox="0 0 500 394.68">
  <defs>
    <style>
      .cls-1 {
        fill: #fff;
      }
    </style>
  </defs>
  <g id="final">
    <g>
      <g>
        <polygon class="cls-1" points="161.02 61.82 99.2 61.82 161.02 123.64 161.02 61.82"/>
        <path class="cls-1" d="M395.5,123.64c-4.66-13.17-12.19-24.98-21.86-34.66h0s-27.16-27.16-27.16-27.16L284.66,0v61.82h-61.82v185.46h-61.82l61.82,61.82h61.82v-61.82h23.41c13.71,0,26.7-3,38.41-8.33,11.8-5.38,22.27-13.14,30.79-22.69,7.93-8.89,14.18-19.32,18.23-30.79,1.14-3.23,2.1-6.54,2.88-9.92,1.56-6.75,2.42-13.77,2.42-20.99,0-10.84-1.88-21.24-5.3-30.91ZM333.34,172.31c-5.6,7.94-14.84,13.14-25.27,13.14h-23.41v-61.82h23.41c17.04,0,30.91,13.87,30.91,30.91,0,6.61-2.09,12.74-5.64,17.77Z"/>
        <polygon class="cls-1" points="222.84 247.27 161.02 247.27 222.84 309.09 284.66 309.09 222.84 247.27"/>
        <polygon class="cls-1" points="284.66 0 284.66 61.82 346.48 123.64 346.48 61.82 284.66 0"/>
        <polygon class="cls-1" points="246.37 85.34 222.84 61.82 222.84 185.45 284.66 185.45 284.66 123.64 246.37 85.34"/>
      </g>
      <g>
        <g>
          <path class="cls-1" d="M10.94,333.62H0v-9.22h31.9v9.22h-11v30.98h-9.96v-30.98Z"/>
          <path class="cls-1" d="M39.53,324.4h29.69v9.22h-19.73v6.58h16.17v7.99h-16.17v7.19h19.73v9.22h-29.69v-40.2Z"/>
          <path class="cls-1" d="M75.98,344.5c0-12.05,8.85-20.9,21.39-20.9,10.76,0,18.87,6.52,20.9,16.04h-10.51c-1.6-4.12-5.35-6.82-10.39-6.82-6.82,0-11.31,4.92-11.31,11.68s4.49,11.68,11.31,11.68c5.04,0,8.79-2.7,10.39-6.82h10.51c-2.03,9.53-10.14,16.04-20.9,16.04-12.54,0-21.39-8.85-21.39-20.9Z"/>
          <path class="cls-1" d="M126.02,324.4h9.96v15.18h15.06v-15.18h9.96v40.2h-9.96v-15.8h-15.06v15.8h-9.96v-40.2Z"/>
          <path class="cls-1" d="M183.61,324.4h15.8c10.94,0,15.8,5.96,15.8,14.14s-4.86,14.2-15.8,14.2h-5.84v11.86h-9.96v-40.2ZM199.59,343.52c4.24,0,5.53-2.09,5.53-4.98s-1.29-4.92-5.53-4.92h-6.02v9.9h6.02Z"/>
          <path class="cls-1" d="M222.46,324.4h16.29c10.63,0,15.37,5.78,15.37,13.77,0,5.66-2.4,10.27-7.56,12.42l9.04,14.02h-11.8l-7.13-12.6h-4.24v12.6h-9.96v-40.2ZM238.87,342.78c4,0,5.16-1.97,5.16-4.61s-1.17-4.55-5.16-4.55h-6.45v9.16h6.45Z"/>
          <path class="cls-1" d="M259.86,344.5c0-12.05,8.85-20.9,21.39-20.9s21.39,8.85,21.39,20.9-8.85,20.9-21.39,20.9-21.39-8.85-21.39-20.9ZM292.56,344.5c0-6.76-4.49-11.68-11.31-11.68s-11.31,4.92-11.31,11.68,4.49,11.68,11.31,11.68,11.31-4.92,11.31-11.68Z"/>
          <path class="cls-1" d="M309.99,324.4h15.8c10.94,0,15.8,5.96,15.8,14.14s-4.86,14.2-15.8,14.2h-5.84v11.86h-9.96v-40.2ZM325.97,343.52c4.24,0,5.53-2.09,5.53-4.98s-1.29-4.92-5.53-4.92h-6.02v9.9h6.02Z"/>
          <path class="cls-1" d="M348.84,324.4h29.69v9.22h-19.73v6.58h16.17v7.99h-16.17v7.19h19.73v9.22h-29.69v-40.2Z"/>
          <path class="cls-1" d="M387.32,324.4h16.29c10.63,0,15.37,5.78,15.37,13.77,0,5.66-2.4,10.27-7.56,12.42l9.04,14.02h-11.8l-7.13-12.6h-4.24v12.6h-9.96v-40.2ZM403.73,342.78c4,0,5.16-1.97,5.16-4.61s-1.17-4.55-5.16-4.55h-6.45v9.16h6.45Z"/>
          <path class="cls-1" d="M435.94,333.62h-10.94v-9.22h31.9v9.22h-11v30.98h-9.96v-30.98Z"/>
          <path class="cls-1" d="M475.6,347.94l-14.69-23.54h11.74l7.93,14.14,7.93-14.14h11.5l-14.45,23.24v16.97h-9.96v-16.66Z"/>
        </g>
        <g>
          <g>
            <path class="cls-1" d="M103.36,388.1v-.19h1.9v.19c0,2.95,1.62,4.79,4.74,4.79s4.74-1.84,4.74-4.79v-11.48h1.95v11.48c0,4.01-2.38,6.58-6.72,6.58s-6.61-2.55-6.61-6.58Z"/>
            <path class="cls-1" d="M120.28,383.85c0-4.66,2.71-7.58,7.64-7.58s7.66,2.92,7.66,7.58v10.48h-1.95v-5.96h-11.46v5.96h-1.9v-10.48ZM133.64,386.59v-2.74c0-3.57-1.95-5.8-5.74-5.8s-5.71,2.22-5.71,5.8v2.74h11.46Z"/>
            <path class="cls-1" d="M139.62,376.62h7.66c4.28,0,6.17,2.38,6.17,5.63s-1.92,5.66-6.17,5.66h-5.71v6.42h-1.95v-17.71ZM147.31,386.13c3.06,0,4.17-1.68,4.17-3.87s-1.11-3.85-4.17-3.85h-5.74v7.72h5.74Z"/>
            <path class="cls-1" d="M156.22,383.85c0-4.66,2.71-7.58,7.64-7.58s7.66,2.92,7.66,7.58v10.48h-1.95v-5.96h-11.46v5.96h-1.9v-10.48ZM169.57,386.59v-2.74c0-3.57-1.95-5.8-5.74-5.8s-5.71,2.22-5.71,5.8v2.74h11.46Z"/>
            <path class="cls-1" d="M175.15,383.58c0-4.47,2.65-7.31,7.45-7.31s7.42,2.84,7.42,7.31v10.75h-1.95v-10.75c0-3.41-1.9-5.52-5.47-5.52s-5.5,2.11-5.5,5.52v10.75h-1.95v-10.75Z"/>
            <path class="cls-1" d="M201.17,385.48c0-5.31,3.9-9.21,9.42-9.21,4.44,0,7.85,2.52,8.99,6.28h-2.06c-1.06-2.71-3.63-4.5-6.93-4.5-4.41,0-7.47,3.14-7.47,7.42s3.06,7.42,7.47,7.42c3.3,0,5.88-1.79,6.93-4.5h2.06c-1.14,3.76-4.55,6.28-8.99,6.28-5.52,0-9.42-3.9-9.42-9.21Z"/>
            <path class="cls-1" d="M222.32,385.48c0-5.31,3.9-9.21,9.42-9.21s9.42,3.9,9.42,9.21-3.9,9.21-9.42,9.21-9.42-3.9-9.42-9.21ZM239.22,385.48c0-4.28-3.06-7.42-7.47-7.42s-7.47,3.14-7.47,7.42,3.06,7.42,7.47,7.42,7.47-3.14,7.47-7.42Z"/>
            <path class="cls-1" d="M244.72,376.62h7.83c4.17,0,6.01,2.33,6.01,5.47,0,2.92-1.57,4.87-4.47,5.42l5.12,6.82h-2.36l-4.79-6.72h-5.39v6.72h-1.95v-17.71ZM252.57,385.83c2.95,0,4.01-1.62,4.01-3.74s-1.06-3.68-4.01-3.68h-5.9v7.42h5.9Z"/>
            <path class="cls-1" d="M262.59,376.62h7.66c4.28,0,6.17,2.38,6.17,5.63s-1.92,5.66-6.17,5.66h-5.71v6.42h-1.95v-17.71ZM270.28,386.13c3.06,0,4.17-1.68,4.17-3.87s-1.11-3.85-4.17-3.85h-5.74v7.72h5.74Z"/>
            <path class="cls-1" d="M278.73,385.48c0-5.31,3.9-9.21,9.42-9.21s9.42,3.9,9.42,9.21-3.9,9.21-9.42,9.21-9.42-3.9-9.42-9.21ZM295.63,385.48c0-4.28-3.06-7.42-7.47-7.42s-7.47,3.14-7.47,7.42,3.06,7.42,7.47,7.42,7.47-3.14,7.47-7.42Z"/>
            <path class="cls-1" d="M301.13,376.62h7.83c4.17,0,6.01,2.33,6.01,5.47,0,2.92-1.57,4.87-4.47,5.42l5.12,6.82h-2.36l-4.79-6.72h-5.39v6.72h-1.95v-17.71ZM308.98,385.83c2.95,0,4.01-1.62,4.01-3.74s-1.06-3.68-4.01-3.68h-5.9v7.42h5.9Z"/>
            <path class="cls-1" d="M318.57,383.85c0-4.66,2.71-7.58,7.64-7.58s7.66,2.92,7.66,7.58v10.48h-1.95v-5.96h-11.46v5.96h-1.9v-10.48ZM331.92,386.59v-2.74c0-3.57-1.95-5.8-5.74-5.8s-5.71,2.22-5.71,5.8v2.74h11.46Z"/>
            <path class="cls-1" d="M342.83,378.41h-6.01v-1.79h13.97v1.79h-6.01v15.92h-1.95v-15.92Z"/>
            <path class="cls-1" d="M354.23,376.62h1.95v17.71h-1.95v-17.71Z"/>
            <path class="cls-1" d="M359.78,385.48c0-5.31,3.9-9.21,9.42-9.21s9.42,3.9,9.42,9.21-3.9,9.21-9.42,9.21-9.42-3.9-9.42-9.21ZM376.68,385.48c0-4.28-3.06-7.42-7.47-7.42s-7.47,3.14-7.47,7.42,3.06,7.42,7.47,7.42,7.47-3.14,7.47-7.42Z"/>
            <path class="cls-1" d="M381.77,383.58c0-4.47,2.65-7.31,7.45-7.31s7.42,2.84,7.42,7.31v10.75h-1.95v-10.75c0-3.41-1.9-5.52-5.47-5.52s-5.5,2.11-5.5,5.52v10.75h-1.95v-10.75Z"/>
          </g>
          <rect class="cls-1" x="0" y="384.58" width="95.37" height="1.79"/>
          <rect class="cls-1" x="404.63" y="384.58" width="95.37" height="1.79"/>
        </g>
      </g>
    </g>
  </g>
</svg>