<svg width="17" height="35" viewBox="0 0 17 35" fill="none" xmlns="http://www.w3.org/2000/svg">
<path d="M14.38 9.15C14.38 8.45 14.24 7.8 13.96 7.2C13.68 6.6 13.29 6.08 12.79 5.64C12.31 5.22 11.73 4.88 11.05 4.62C10.39 4.38 9.67 4.26 8.89 4.26C8.11 4.26 7.38 4.38 6.7 4.62C6.04 4.88 5.46 5.22 4.96 5.64C4.48 6.08 4.1 6.6 3.82 7.2C3.54 7.8 3.4 8.45 3.4 9.15C3.4 9.85 3.54 10.5 3.82 11.1C4.1 11.7 4.48 12.21 4.96 12.63C5.46 13.07 6.04 13.41 6.7 13.65C7.38 13.91 8.11 14.04 8.89 14.04C9.67 14.04 10.39 13.91 11.05 13.65C11.73 13.41 12.31 13.07 12.79 12.63C13.29 12.21 13.68 11.7 13.96 11.1C14.24 10.5 14.38 9.85 14.38 9.15ZM16.96 9.15C16.96 10.31 16.76 11.39 16.36 12.39C15.96 13.41 15.4 14.29 14.68 15.03C13.96 15.79 13.11 16.38 12.13 16.8C11.15 17.24 10.07 17.46 8.89 17.46C7.71 17.46 6.63 17.24 5.65 16.8C4.67 16.38 3.82 15.79 3.1 15.03C2.4 14.29 1.86 13.41 1.48 12.39C1.1 11.39 0.91 10.31 0.91 9.15C0.91 7.99 1.1 6.9 1.48 5.88C1.86 4.88 2.4 4 3.1 3.24C3.82 2.5 4.67 1.91 5.65 1.47C6.63 1.05 7.71 0.84 8.89 0.84C10.07 0.84 11.15 1.05 12.13 1.47C13.11 1.91 13.96 2.5 14.68 3.24C15.4 4 15.96 4.88 16.36 5.88C16.76 6.9 16.96 7.99 16.96 9.15ZM14.62 19.9298L14.89 20.2898C14.79 20.4498 14.74 20.6198 14.74 20.7998C14.74 20.8998 14.85 21.0798 15.07 21.3398C15.31 21.6198 15.57 22.0198 15.85 22.5398C16.13 23.0598 16.38 23.7198 16.6 24.5198C16.84 25.3398 16.96 26.3298 16.96 27.4898C16.96 28.2698 16.88 29.0498 16.72 29.8298C16.56 30.6298 16.3 31.3498 15.94 31.9898C15.6 32.6498 15.15 33.1798 14.59 33.5798C14.05 33.9998 13.39 34.2098 12.61 34.2098C11.89 34.2098 11.22 33.9998 10.6 33.5798C10 33.1598 9.62 32.5898 9.46 31.8698L9.4 31.8698C9.2 32.7298 8.8 33.4298 8.2 33.9698C7.62 34.5298 6.88 34.8098 5.98 34.8098C4.96 34.8098 4.12 34.5498 3.46 34.0298C2.8 33.5298 2.27 32.8998 1.87 32.1398C1.49 31.3798 1.23 30.5398 1.09 29.6198C0.969999 28.7198 0.909999 27.8698 0.909999 27.0698C0.909999 26.1698 0.989999 25.3298 1.15 24.5498C1.33 23.7698 1.53 23.0798 1.75 22.4798C1.99 21.8798 2.2 21.3798 2.38 20.9798C2.58 20.5998 2.68 20.3298 2.68 20.1698C2.68 20.0698 2.66 19.9798 2.62 19.8998C2.58 19.8398 2.54 19.7698 2.5 19.6898L2.59 19.4198L6.91 21.1598L6.73 21.4898C6.69 21.4698 6.62 21.4598 6.52 21.4598L6.31 21.4598C5.85 21.4598 5.44 21.6798 5.08 22.1198C4.72 22.5598 4.41 23.0798 4.15 23.6798C3.91 24.2998 3.72 24.9398 3.58 25.5998C3.46 26.2798 3.4 26.8498 3.4 27.3098C3.4 27.6698 3.43 28.0898 3.49 28.5698C3.57 29.0698 3.7 29.5298 3.88 29.9498C4.06 30.3898 4.3 30.7598 4.6 31.0598C4.92 31.3598 5.33 31.5098 5.83 31.5098C6.31 31.5098 6.69 31.3598 6.97 31.0598C7.27 30.7798 7.5 30.4298 7.66 30.0098C7.82 29.5898 7.92 29.1398 7.96 28.6598C8.02 28.1998 8.05 27.7998 8.05 27.4598C8.05 26.9798 8 26.5598 7.9 26.1998C7.82 25.8598 7.6 25.6298 7.24 25.5098L7.24 25.1498L11.32 25.1498L11.32 25.5098C10.92 25.5498 10.65 25.7598 10.51 26.1398C10.39 26.5398 10.33 26.9798 10.33 27.4598C10.33 27.7798 10.36 28.1498 10.42 28.5698C10.48 28.9898 10.59 29.3798 10.75 29.7398C10.91 30.1198 11.13 30.4398 11.41 30.6998C11.69 30.9598 12.04 31.0898 12.46 31.0898C12.86 31.0898 13.18 30.9698 13.42 30.7298C13.68 30.5098 13.88 30.2098 14.02 29.8298C14.16 29.4698 14.25 29.0598 14.29 28.5998C14.35 28.1598 14.38 27.7098 14.38 27.2498C14.38 26.7098 14.32 26.1598 14.2 25.5998C14.08 25.0398 13.92 24.5298 13.72 24.0698C13.52 23.6098 13.3 23.2298 13.06 22.9298C12.82 22.6298 12.58 22.4798 12.34 22.4798C12.26 22.4798 12.16 22.4898 12.04 22.5098C11.94 22.5298 11.84 22.5598 11.74 22.5998L11.56 22.3298L14.62 19.9298Z" fill="white"/>
</svg>
